<?xml version="1.0" encoding="UTF-8" standalone="no"?>
<!-- Created with Inkscape (http://www.inkscape.org/) -->

<svg
   width="1280"
   height="640"
   viewBox="0 0 338.66667 169.33333"
   version="1.1"
   id="svg1"
   inkscape:version="1.3.2 (091e20e, 2023-11-25, custom)"
   sodipodi:docname="banner.svg"
   xml:space="preserve"
   inkscape:export-filename="banner.png"
   inkscape:export-xdpi="96"
   inkscape:export-ydpi="96"
   xmlns:inkscape="http://www.inkscape.org/namespaces/inkscape"
   xmlns:sodipodi="http://sodipodi.sourceforge.net/DTD/sodipodi-0.dtd"
   xmlns:xlink="http://www.w3.org/1999/xlink"
   xmlns="http://www.w3.org/2000/svg"
   xmlns:svg="http://www.w3.org/2000/svg"><sodipodi:namedview
     id="namedview1"
     pagecolor="#2b2836"
     bordercolor="#000000"
     borderopacity="0.25"
     inkscape:showpageshadow="2"
     inkscape:pageopacity="0.0"
     inkscape:pagecheckerboard="0"
     inkscape:deskcolor="#d1d1d1"
     inkscape:document-units="mm"
     inkscape:zoom="0.65834035"
     inkscape:cx="573.41161"
     inkscape:cy="377.46433"
     inkscape:window-width="1920"
     inkscape:window-height="974"
     inkscape:window-x="-11"
     inkscape:window-y="-11"
     inkscape:window-maximized="1"
     inkscape:current-layer="svg1"
     inkscape:export-bgcolor="#2b2836ff" /><defs
     id="defs1"><linearGradient
       id="swatch10"
       inkscape:swatch="solid"><stop
         style="stop-color:#84fba2;stop-opacity:1;"
         offset="0"
         id="stop10" /></linearGradient><linearGradient
       id="swatch9"
       inkscape:swatch="solid"><stop
         style="stop-color:#f36a66;stop-opacity:1;"
         offset="0"
         id="stop9" /></linearGradient><linearGradient
       id="swatch8"
       inkscape:swatch="solid"><stop
         style="stop-color:#ffb793;stop-opacity:1;"
         offset="0"
         id="stop8" /></linearGradient><linearGradient
       id="swatch7"
       inkscape:swatch="solid"><stop
         style="stop-color:#93b4ff;stop-opacity:1;"
         offset="0"
         id="stop7" /></linearGradient><linearGradient
       id="swatch6"
       inkscape:swatch="solid"><stop
         style="stop-color:#ff8adb;stop-opacity:1;"
         offset="0"
         id="stop6" /></linearGradient><linearGradient
       id="swatch5"
       inkscape:swatch="solid"><stop
         style="stop-color:#f3e4a2;stop-opacity:1;"
         offset="0"
         id="stop5" /></linearGradient><linearGradient
       id="swatch3"
       inkscape:swatch="solid"><stop
         style="stop-color:#000000;stop-opacity:1;"
         offset="0"
         id="stop3" /></linearGradient><linearGradient
       id="swatch11"
       inkscape:swatch="solid"><stop
         style="stop-color:#ff8adb;stop-opacity:1;"
         offset="0"
         id="stop11" /></linearGradient><rect
       x="215.6939"
       y="177.71963"
       width="714.75385"
       height="141.81716"
       id="rect1" /><linearGradient
       inkscape:collect="always"
       xlink:href="#swatch11"
       id="linearGradient11"
       x1="42.781455"
       y1="15.408568"
       x2="297.5545"
       y2="15.408568"
       gradientUnits="userSpaceOnUse" /><linearGradient
       id="swatch136"
       inkscape:swatch="solid"><stop
         style="stop-color:#2b2836;stop-opacity:1;"
         offset="0"
         id="stop136" /></linearGradient><linearGradient
       id="swatch135"
       inkscape:swatch="solid"><stop
         style="stop-color:#000000;stop-opacity:1;"
         offset="0"
         id="stop135" /></linearGradient><linearGradient
       id="swatch129"
       inkscape:swatch="solid"><stop
         style="stop-color:#f3e4a2;stop-opacity:1;"
         offset="0"
         id="stop129" /></linearGradient><inkscape:path-effect
       effect="fillet_chamfer"
       id="path-effect123"
       is_visible="true"
       lpeversion="1"
       nodesatellites_param="F,0,0,1,0,0,0,1 @ F,0,0,1,0,0,0,1 @ F,0,0,1,0,0,0,1 @ F,0,0,1,0,0,0,1 @ F,0,0,1,0,0,0,1"
       radius="0"
       unit="px"
       method="auto"
       mode="F"
       chamfer_steps="1"
       flexible="false"
       use_knot_distance="true"
       apply_no_radius="true"
       apply_with_radius="true"
       only_selected="false"
       hide_knots="false" /><linearGradient
       id="swatch86"
       inkscape:swatch="solid"><stop
         style="stop-color:#503f77;stop-opacity:0.98823529;"
         offset="0"
         id="stop86" /></linearGradient><linearGradient
       id="swatch84"
       inkscape:swatch="solid"><stop
         style="stop-color:#655e7f;stop-opacity:0.98823529;"
         offset="0"
         id="stop84" /></linearGradient><linearGradient
       id="swatch83"
       inkscape:swatch="solid"><stop
         style="stop-color:#e9eb6e;stop-opacity:1;"
         offset="0"
         id="stop83" /></linearGradient><linearGradient
       id="swatch82"
       inkscape:swatch="solid"><stop
         style="stop-color:#84fba2;stop-opacity:1;"
         offset="0"
         id="stop82" /></linearGradient><linearGradient
       id="swatch80"
       inkscape:swatch="solid"><stop
         style="stop-color:#674d98;stop-opacity:1;"
         offset="0"
         id="stop80" /></linearGradient><linearGradient
       id="swatch78"
       inkscape:swatch="solid"><stop
         style="stop-color:#513e78;stop-opacity:0.99607843;"
         offset="0"
         id="stop78" /></linearGradient><linearGradient
       id="swatch76"
       inkscape:swatch="solid"><stop
         style="stop-color:#93b4ff;stop-opacity:0.98823529;"
         offset="0"
         id="stop76" /></linearGradient><clipPath
       clipPathUnits="userSpaceOnUse"
       id="clipPath14"><rect
         style="opacity:0.916143;fill:#dce7fd;fill-opacity:1;stroke-width:1.08331"
         id="rect15"
         width="1413.5018"
         height="579.22314"
         x="-195.50543"
         y="106.72144" /></clipPath><inkscape:path-effect
       effect="fillet_chamfer"
       id="path-effect123-2"
       is_visible="true"
       lpeversion="1"
       nodesatellites_param="F,0,0,1,0,0,0,1 @ F,0,0,1,0,0,0,1 @ F,0,0,1,0,0,0,1 @ F,0,0,1,0,0,0,1 @ F,0,0,1,0,0,0,1"
       radius="0"
       unit="px"
       method="auto"
       mode="F"
       chamfer_steps="1"
       flexible="false"
       use_knot_distance="true"
       apply_no_radius="true"
       apply_with_radius="true"
       only_selected="false"
       hide_knots="false" /><inkscape:path-effect
       effect="fillet_chamfer"
       id="path-effect123-5"
       is_visible="true"
       lpeversion="1"
       nodesatellites_param="F,0,0,1,0,0,0,1 @ F,0,0,1,0,0,0,1 @ F,0,0,1,0,0,0,1 @ F,0,0,1,0,0,0,1 @ F,0,0,1,0,0,0,1"
       radius="0"
       unit="px"
       method="auto"
       mode="F"
       chamfer_steps="1"
       flexible="false"
       use_knot_distance="true"
       apply_no_radius="true"
       apply_with_radius="true"
       only_selected="false"
       hide_knots="false" /><linearGradient
       id="swatch82-1"
       inkscape:swatch="solid"><stop
         style="stop-color:#7b94a5;stop-opacity:1;"
         offset="0"
         id="stop82-5" /></linearGradient><linearGradient
       id="swatch78-9"
       inkscape:swatch="solid"><stop
         style="stop-color:#655e7f;stop-opacity:0.99607843;"
         offset="0"
         id="stop78-6" /></linearGradient><linearGradient
       id="swatch2"
       inkscape:swatch="solid"
       inkscape:label="comments"><stop
         style="stop-color:#655e7f;stop-opacity:1;"
         offset="0"
         id="stop2" /></linearGradient><linearGradient
       id="swatch1"
       inkscape:swatch="solid"
       inkscape:label="blue"><stop
         style="stop-color:#2b2836;stop-opacity:1;"
         offset="0"
         id="stop1" /></linearGradient><linearGradient
       inkscape:collect="always"
       xlink:href="#swatch3"
       id="linearGradient3"
       x1="13.800461"
       y1="17.458955"
       x2="324.86619"
       y2="17.458955"
       gradientUnits="userSpaceOnUse" /><linearGradient
       inkscape:collect="always"
       xlink:href="#swatch5"
       id="linearGradient5"
       x1="13.800461"
       y1="17.458955"
       x2="324.86619"
       y2="17.458955"
       gradientUnits="userSpaceOnUse" /><linearGradient
       inkscape:collect="always"
       xlink:href="#swatch6"
       id="linearGradient6"
       x1="285.6868"
       y1="76.902939"
       x2="324.86617"
       y2="76.902939"
       gradientUnits="userSpaceOnUse" /><linearGradient
       inkscape:collect="always"
       xlink:href="#swatch7"
       id="linearGradient7"
       x1="279.32625"
       y1="65.64949"
       x2="324.86619"
       y2="65.64949"
       gradientUnits="userSpaceOnUse" /><linearGradient
       inkscape:collect="always"
       xlink:href="#swatch8"
       id="linearGradient8"
       x1="285.22116"
       y1="88.156379"
       x2="324.8662"
       y2="88.156379"
       gradientUnits="userSpaceOnUse" /><linearGradient
       inkscape:collect="always"
       xlink:href="#swatch9"
       id="linearGradient9"
       x1="241.81902"
       y1="42.872733"
       x2="324.86618"
       y2="42.872733"
       gradientUnits="userSpaceOnUse" /><linearGradient
       inkscape:collect="always"
       xlink:href="#swatch10"
       id="linearGradient10"
       x1="264.28737"
       y1="54.33784"
       x2="324.86619"
       y2="54.33784"
       gradientUnits="userSpaceOnUse" /><linearGradient
       id="swatch42"
       inkscape:swatch="solid"><stop
         style="stop-color:#65f97f;stop-opacity:1;"
         offset="0"
         id="stop42" /></linearGradient><inkscape:path-effect
       effect="mirror_symmetry"
       start_point="598.40341,583.95648"
       end_point="598.40341,746.17532"
       center_point="598.40341,665.0659"
       id="path-effect37"
       is_visible="true"
       lpeversion="1.2"
       lpesatellites=""
       mode="free"
       discard_orig_path="false"
       fuse_paths="false"
       oposite_fuse="false"
       split_items="false"
       split_open="false"
       link_styles="false" /><inkscape:path-effect
       effect="simplify"
       id="path-effect36"
       is_visible="true"
       lpeversion="1.3"
       threshold="14.567931"
       steps="1"
       smooth_angles="358.62069"
       helper_size="2.61"
       simplify_individual_paths="false"
       simplify_just_coalesce="false" /><inkscape:path-effect
       effect="simplify"
       id="path-effect35"
       is_visible="true"
       lpeversion="1.3"
       threshold="0.01"
       steps="31.132184"
       smooth_angles="243.44828"
       helper_size="2.4712644"
       simplify_individual_paths="false"
       simplify_just_coalesce="false" /><inkscape:path-effect
       effect="mirror_symmetry"
       start_point="450.22655,595.9475"
       end_point="450.22655,747"
       center_point="450.22655,671.47375"
       id="path-effect34"
       is_visible="true"
       lpeversion="1.2"
       lpesatellites=""
       mode="free"
       discard_orig_path="false"
       fuse_paths="false"
       oposite_fuse="false"
       split_items="false"
       split_open="false"
       link_styles="false" /><inkscape:path-effect
       effect="mirror_symmetry"
       start_point="609.5253,423.11719"
       end_point="609.5253,739.89844"
       center_point="609.5253,581.50782"
       id="path-effect33"
       is_visible="true"
       lpeversion="1.2"
       lpesatellites=""
       mode="free"
       discard_orig_path="false"
       fuse_paths="false"
       oposite_fuse="false"
       split_items="false"
       split_open="false"
       link_styles="false" /><inkscape:path-effect
       effect="mirror_symmetry"
       start_point="598.40341,583.95648"
       end_point="598.40341,746.17532"
       center_point="598.40341,665.0659"
       id="path-effect37-0"
       is_visible="true"
       lpeversion="1.2"
       lpesatellites=""
       mode="free"
       discard_orig_path="false"
       fuse_paths="false"
       oposite_fuse="false"
       split_items="false"
       split_open="false"
       link_styles="false" /><inkscape:path-effect
       effect="simplify"
       id="path-effect36-6"
       is_visible="true"
       lpeversion="1.3"
       threshold="14.567931"
       steps="1"
       smooth_angles="358.62069"
       helper_size="2.61"
       simplify_individual_paths="false"
       simplify_just_coalesce="false" /><inkscape:path-effect
       effect="simplify"
       id="path-effect35-8"
       is_visible="true"
       lpeversion="1.3"
       threshold="0.01"
       steps="31.132184"
       smooth_angles="243.44828"
       helper_size="2.4712644"
       simplify_individual_paths="false"
       simplify_just_coalesce="false" /><inkscape:path-effect
       effect="mirror_symmetry"
       start_point="450.22655,595.9475"
       end_point="450.22655,747"
       center_point="450.22655,671.47375"
       id="path-effect34-9"
       is_visible="true"
       lpeversion="1.2"
       lpesatellites=""
       mode="free"
       discard_orig_path="false"
       fuse_paths="false"
       oposite_fuse="false"
       split_items="false"
       split_open="false"
       link_styles="false" /><inkscape:path-effect
       effect="mirror_symmetry"
       start_point="609.5253,423.11719"
       end_point="609.5253,739.89844"
       center_point="609.5253,581.50782"
       id="path-effect33-8"
       is_visible="true"
       lpeversion="1.2"
       lpesatellites=""
       mode="free"
       discard_orig_path="false"
       fuse_paths="false"
       oposite_fuse="false"
       split_items="false"
       split_open="false"
       link_styles="false" /><linearGradient
       inkscape:collect="always"
       xlink:href="#swatch2"
       id="linearGradient131"
       x1="151.71059"
       y1="497.14832"
       x2="873.55792"
       y2="497.14832"
       gradientUnits="userSpaceOnUse" /><linearGradient
       inkscape:collect="always"
       xlink:href="#swatch82-1"
       id="linearGradient132"
       x1="420.52075"
       y1="681.3858"
       x2="601.22839"
       y2="681.3858"
       gradientUnits="userSpaceOnUse" /><linearGradient
       inkscape:collect="always"
       xlink:href="#swatch136"
       id="linearGradient133"
       x1="412.9617"
       y1="380.50009"
       x2="611.51154"
       y2="380.50009"
       gradientUnits="userSpaceOnUse" /><linearGradient
       inkscape:collect="always"
       xlink:href="#swatch5"
       id="linearGradient134"
       x1="419.48215"
       y1="371.47449"
       x2="605.40161"
       y2="371.47449"
       gradientUnits="userSpaceOnUse" /><linearGradient
       inkscape:collect="always"
       xlink:href="#swatch136"
       id="linearGradient135"
       x1="434.62714"
       y1="335.97491"
       x2="590.4696"
       y2="335.97491"
       gradientUnits="userSpaceOnUse" /><linearGradient
       inkscape:collect="always"
       xlink:href="#swatch5"
       id="linearGradient136"
       x1="467.69592"
       y1="440.50116"
       x2="556.60504"
       y2="440.50116"
       gradientUnits="userSpaceOnUse" /><linearGradient
       inkscape:collect="always"
       xlink:href="#swatch136"
       id="linearGradient137"
       x1="112.31167"
       y1="664.47375"
       x2="788.46582"
       y2="664.47375"
       gradientUnits="userSpaceOnUse" /><linearGradient
       inkscape:collect="always"
       xlink:href="#swatch7"
       id="linearGradient2"
       gradientUnits="userSpaceOnUse"
       x1="141.5"
       y1="675.57153"
       x2="882.5"
       y2="675.57153" /><linearGradient
       inkscape:collect="always"
       xlink:href="#swatch7"
       id="linearGradient39"
       x1="74.000008"
       y1="609.5"
       x2="286.79037"
       y2="609.5"
       gradientUnits="userSpaceOnUse"
       gradientTransform="matrix(0.88037126,0,0,1,41.185522,0)" /><linearGradient
       inkscape:collect="always"
       xlink:href="#swatch2"
       id="linearGradient42"
       gradientUnits="userSpaceOnUse"
       x1="151.71059"
       y1="497.14832"
       x2="873.55792"
       y2="497.14832" /><linearGradient
       inkscape:collect="always"
       xlink:href="#swatch82-1"
       id="linearGradient43"
       gradientUnits="userSpaceOnUse"
       x1="420.52075"
       y1="681.3858"
       x2="601.22839"
       y2="681.3858" /><linearGradient
       inkscape:collect="always"
       xlink:href="#swatch136"
       id="linearGradient44"
       gradientUnits="userSpaceOnUse"
       x1="412.9617"
       y1="380.50009"
       x2="611.51154"
       y2="380.50009" /><linearGradient
       inkscape:collect="always"
       xlink:href="#swatch5"
       id="linearGradient45"
       gradientUnits="userSpaceOnUse"
       x1="419.48215"
       y1="371.47449"
       x2="605.40161"
       y2="371.47449" /><linearGradient
       inkscape:collect="always"
       xlink:href="#swatch136"
       id="linearGradient46"
       gradientUnits="userSpaceOnUse"
       x1="434.62714"
       y1="335.97491"
       x2="590.4696"
       y2="335.97491" /><linearGradient
       inkscape:collect="always"
       xlink:href="#swatch5"
       id="linearGradient47"
       gradientUnits="userSpaceOnUse"
       x1="467.69592"
       y1="440.50116"
       x2="556.60504"
       y2="440.50116" /><linearGradient
       inkscape:collect="always"
       xlink:href="#swatch5"
       id="linearGradient48"
       gradientUnits="userSpaceOnUse"
       x1="467.69592"
       y1="440.50116"
       x2="556.60504"
       y2="440.50116" /><linearGradient
       inkscape:collect="always"
       xlink:href="#swatch5"
       id="linearGradient49"
       gradientUnits="userSpaceOnUse"
       x1="467.69592"
       y1="440.50116"
       x2="556.60504"
       y2="440.50116" /><linearGradient
       inkscape:collect="always"
       xlink:href="#swatch5"
       id="linearGradient50"
       gradientUnits="userSpaceOnUse"
       x1="467.69592"
       y1="440.50116"
       x2="556.60504"
       y2="440.50116" /><linearGradient
       inkscape:collect="always"
       xlink:href="#swatch5"
       id="linearGradient51"
       gradientUnits="userSpaceOnUse"
       x1="467.69592"
       y1="440.50116"
       x2="556.60504"
       y2="440.50116" /><linearGradient
       inkscape:collect="always"
       xlink:href="#swatch5"
       id="linearGradient52"
       gradientUnits="userSpaceOnUse"
       x1="467.69592"
       y1="440.50116"
       x2="556.60504"
       y2="440.50116" /><linearGradient
       inkscape:collect="always"
       xlink:href="#swatch5"
       id="linearGradient53"
       gradientUnits="userSpaceOnUse"
       x1="467.69592"
       y1="440.50116"
       x2="556.60504"
       y2="440.50116" /><linearGradient
       inkscape:collect="always"
       xlink:href="#swatch5"
       id="linearGradient54"
       gradientUnits="userSpaceOnUse"
       x1="467.69592"
       y1="440.50116"
       x2="556.60504"
       y2="440.50116" /><linearGradient
       inkscape:collect="always"
       xlink:href="#swatch5"
       id="linearGradient55"
       gradientUnits="userSpaceOnUse"
       x1="467.69592"
       y1="440.50116"
       x2="556.60504"
       y2="440.50116" /><linearGradient
       inkscape:collect="always"
       xlink:href="#swatch5"
       id="linearGradient56"
       gradientUnits="userSpaceOnUse"
       x1="467.69592"
       y1="440.50116"
       x2="556.60504"
       y2="440.50116" /><linearGradient
       inkscape:collect="always"
       xlink:href="#swatch5"
       id="linearGradient57"
       gradientUnits="userSpaceOnUse"
       x1="467.69592"
       y1="440.50116"
       x2="556.60504"
       y2="440.50116" /><linearGradient
       inkscape:collect="always"
       xlink:href="#swatch5"
       id="linearGradient58"
       gradientUnits="userSpaceOnUse"
       x1="467.69592"
       y1="440.50116"
       x2="556.60504"
       y2="440.50116" /><linearGradient
       inkscape:collect="always"
       xlink:href="#swatch5"
       id="linearGradient59"
       gradientUnits="userSpaceOnUse"
       x1="467.69592"
       y1="440.50116"
       x2="556.60504"
       y2="440.50116" /><linearGradient
       inkscape:collect="always"
       xlink:href="#swatch5"
       id="linearGradient60"
       gradientUnits="userSpaceOnUse"
       x1="467.69592"
       y1="440.50116"
       x2="556.60504"
       y2="440.50116" /><linearGradient
       inkscape:collect="always"
       xlink:href="#swatch5"
       id="linearGradient61"
       gradientUnits="userSpaceOnUse"
       x1="467.69592"
       y1="440.50116"
       x2="556.60504"
       y2="440.50116" /><linearGradient
       inkscape:collect="always"
       xlink:href="#swatch5"
       id="linearGradient62"
       gradientUnits="userSpaceOnUse"
       x1="467.69592"
       y1="440.50116"
       x2="556.60504"
       y2="440.50116" /><linearGradient
       inkscape:collect="always"
       xlink:href="#swatch5"
       id="linearGradient63"
       gradientUnits="userSpaceOnUse"
       x1="467.69592"
       y1="440.50116"
       x2="556.60504"
       y2="440.50116" /><linearGradient
       inkscape:collect="always"
       xlink:href="#swatch5"
       id="linearGradient64"
       gradientUnits="userSpaceOnUse"
       x1="467.69592"
       y1="440.50116"
       x2="556.60504"
       y2="440.50116" /><linearGradient
       inkscape:collect="always"
       xlink:href="#swatch5"
       id="linearGradient65"
       gradientUnits="userSpaceOnUse"
       x1="467.69592"
       y1="440.50116"
       x2="556.60504"
       y2="440.50116" /><linearGradient
       inkscape:collect="always"
       xlink:href="#swatch5"
       id="linearGradient66"
       gradientUnits="userSpaceOnUse"
       x1="467.69592"
       y1="440.50116"
       x2="556.60504"
       y2="440.50116" /><linearGradient
       inkscape:collect="always"
       xlink:href="#swatch5"
       id="linearGradient67"
       gradientUnits="userSpaceOnUse"
       x1="467.69592"
       y1="440.50116"
       x2="556.60504"
       y2="440.50116" /><linearGradient
       inkscape:collect="always"
       xlink:href="#swatch5"
       id="linearGradient68"
       gradientUnits="userSpaceOnUse"
       x1="467.69592"
       y1="440.50116"
       x2="556.60504"
       y2="440.50116" /><linearGradient
       inkscape:collect="always"
       xlink:href="#swatch5"
       id="linearGradient69"
       gradientUnits="userSpaceOnUse"
       x1="467.69592"
       y1="440.50116"
       x2="556.60504"
       y2="440.50116" /><linearGradient
       inkscape:collect="always"
       xlink:href="#swatch5"
       id="linearGradient70"
       gradientUnits="userSpaceOnUse"
       x1="467.69592"
       y1="440.50116"
       x2="556.60504"
       y2="440.50116" /><linearGradient
       inkscape:collect="always"
       xlink:href="#swatch5"
       id="linearGradient71"
       gradientUnits="userSpaceOnUse"
       x1="467.69592"
       y1="440.50116"
       x2="556.60504"
       y2="440.50116" /><linearGradient
       inkscape:collect="always"
       xlink:href="#swatch5"
       id="linearGradient72"
       gradientUnits="userSpaceOnUse"
       x1="467.69592"
       y1="440.50116"
       x2="556.60504"
       y2="440.50116" /><linearGradient
       inkscape:collect="always"
       xlink:href="#swatch136"
       id="linearGradient73"
       gradientUnits="userSpaceOnUse"
       x1="112.31167"
       y1="664.47375"
       x2="788.46582"
       y2="664.47375" /></defs><g
     inkscape:label="Capa 1"
     inkscape:groupmode="layer"
     id="layer1"><text
       xml:space="preserve"
       style="font-style:normal;font-variant:normal;font-weight:bold;font-stretch:normal;font-size:38.8056px;font-family:'ITC Serif Gothic';-inkscape-font-specification:'ITC Serif Gothic Bold';text-align:center;letter-spacing:0px;text-anchor:middle;opacity:1;fill:url(#linearGradient5);fill-opacity:1"
       x="168.01393"
       y="31.622999"
       id="text6"><tspan
         sodipodi:role="line"
         id="tspan6"
         style="font-size:38.8056px;letter-spacing:0px;fill:url(#linearGradient5);fill-opacity:1"
         x="168.01393"
         y="31.622999">SKELETOR SYNTAX</tspan></text><text
       xml:space="preserve"
       style="font-style:normal;font-variant:normal;font-weight:bold;font-stretch:normal;font-size:10.5833px;font-family:'ITC Serif Gothic';-inkscape-font-specification:'ITC Serif Gothic Bold';text-align:center;letter-spacing:0px;text-anchor:middle;opacity:1;fill:url(#linearGradient6);fill-opacity:1"
       x="305.47757"
       y="80.670593"
       id="text15"><tspan
         sodipodi:role="line"
         id="tspan15"
         style="font-size:10.5833px;fill:url(#linearGradient6);fill-opacity:1"
         x="305.47757"
         y="80.670593">VSCODE</tspan></text><text
       xml:space="preserve"
       style="font-style:normal;font-variant:normal;font-weight:bold;font-stretch:normal;font-size:10.5833px;font-family:'ITC Serif Gothic';-inkscape-font-specification:'ITC Serif Gothic Bold';text-align:center;letter-spacing:0px;text-anchor:middle;opacity:1;fill:url(#linearGradient7);fill-opacity:1"
       x="302.24438"
       y="69.417145"
       id="text15-5"><tspan
         sodipodi:role="line"
         id="tspan15-5"
         style="font-size:10.5833px;fill:url(#linearGradient7);fill-opacity:1"
         x="302.24438"
         y="69.417145">TEXTMATE</tspan></text><text
       xml:space="preserve"
       style="font-style:normal;font-variant:normal;font-weight:bold;font-stretch:normal;font-size:10.5833px;font-family:'ITC Serif Gothic';-inkscape-font-specification:'ITC Serif Gothic Bold';text-align:center;letter-spacing:0px;text-anchor:middle;opacity:1;fill:url(#linearGradient8);fill-opacity:1"
       x="304.95901"
       y="91.924034"
       id="text17"><tspan
         sodipodi:role="line"
         id="tspan17"
         style="font-size:10.5833px;fill:url(#linearGradient8);fill-opacity:1"
         x="304.95901"
         y="91.924034">RSTUDIO</tspan></text><text
       xml:space="preserve"
       style="font-style:normal;font-variant:normal;font-weight:bold;font-stretch:normal;font-size:10.5833px;font-family:'ITC Serif Gothic';-inkscape-font-specification:'ITC Serif Gothic Bold';text-align:center;letter-spacing:0px;text-anchor:middle;opacity:1;fill:url(#linearGradient9);fill-opacity:1"
       x="283.05685"
       y="46.677429"
       id="text18"><tspan
         sodipodi:role="line"
         id="tspan18"
         style="font-size:10.5833px;fill:url(#linearGradient9);fill-opacity:1"
         x="283.05685"
         y="46.677429">PYGMENTS/JEKYLL</tspan></text><text
       xml:space="preserve"
       style="font-style:normal;font-variant:normal;font-weight:bold;font-stretch:normal;font-size:10.5833px;font-family:'ITC Serif Gothic';-inkscape-font-specification:'ITC Serif Gothic Bold';text-align:center;letter-spacing:0px;text-anchor:middle;opacity:1;fill:url(#linearGradient10);fill-opacity:1"
       x="294.44449"
       y="58.047287"
       id="text19"><tspan
         sodipodi:role="line"
         id="tspan19"
         style="font-size:10.5833px;fill:url(#linearGradient10);fill-opacity:1"
         x="294.44449"
         y="58.047287">HIGHLIGHT JS</tspan></text></g><g
     style="clip-rule:evenodd;fill-rule:evenodd;image-rendering:optimizeQuality;shape-rendering:geometricPrecision;text-rendering:geometricPrecision"
     id="g1"
     transform="matrix(0.17567568,0,0,0.17567568,63.927923,39.33333)"><g
       id="g62"
       style="clip-rule:evenodd;display:inline;opacity:1;fill:url(#linearGradient2);fill-opacity:1;fill-rule:evenodd;image-rendering:optimizeQuality;shape-rendering:geometricPrecision;text-rendering:geometricPrecision"
       inkscape:label="body"
       transform="matrix(1.2145749,0,0,1.1782662,-21.862349,-214.49693)"><path
         id="path39"
         style="clip-rule:evenodd;display:inline;opacity:1;fill:url(#linearGradient39);fill-opacity:1;fill-rule:evenodd;image-rendering:optimizeQuality;shape-rendering:geometricPrecision;text-rendering:geometricPrecision"
         d="m 436.50781,423.11719 c -57.13652,2.87066 -118.88627,15.4165 -175.53515,23.51172 -45.25167,6.46647 -108.37268,18.34647 -126.28321,61.48047 -1.0873,2.61852 -1.8654,5.02023 -2.86718,7.56445 A 93.667259,138.5 0 0 0 106.33203,609.5 a 93.667259,138.5 0 0 0 25.04883,93.17383 c 0.046,0.22453 0.10603,0.46848 0.15234,0.69336 A 57.030808,73.694044 0 0 0 115.57227,740 h 110.81445 3.14648 a 93.667259,138.5 0 0 0 0.25586,-0.10156 H 600 970.21094 A 93.667259,138.5 0 0 0 970.4668,740 h 2.27734 112.41796 A 57.030808,73.694044 0 0 0 1070.3164,699.41406 93.667259,138.5 0 0 0 1093.668,609.5 93.667259,138.5 0 0 0 1067.2207,513.14648 c -0.6864,-1.7093 -1.1861,-3.29336 -1.9102,-5.0371 -17.91,-43.134 -81.03153,-55.014 -126.28315,-61.48047 -56.64893,-8.09522 -118.39864,-20.64106 -175.53516,-23.51172 -10.40049,0.81061 -20.28865,4.40538 -30.40625,6.69922 -43.49585,9.8612 -88.44366,14.36862 -133.08594,13.4375 -44.64222,0.93112 -89.59009,-3.5763 -133.08594,-13.4375 -10.1176,-2.29384 -20.00576,-5.88861 -30.40625,-6.69922 z"
         transform="matrix(0.82333333,0,0,0.84870465,18.000001,182.04454)" /></g><g
       id="g2"
       style="display:inline;opacity:1;fill:url(#linearGradient131);fill-opacity:1"
       inkscape:label="hoodie"
       transform="matrix(1.2145762,0,0,1.2269417,-22.633359,-241.09404)"><path
         id="path117"
         style="display:inline;opacity:1;fill:url(#linearGradient42);fill-opacity:1;fill-rule:nonzero"
         d="m 511.49895,196.5 c -14.25666,0.806 -26.92293,5.6395 -37.99872,14.50029 -17.83159,15.49971 -32.33376,33.6655 -43.50154,54.49908 -3.487,0.73887 -6.98611,1.57394 -10.4991,2.50081 -3.20199,1.702 -5.53506,4.20129 -6.99993,7.49928 -4.661,26.32038 -9.49418,52.65568 -14.49998,79.00105 -11.45179,52.01695 -27.11913,102.68524 -47.00071,151.99919 -1.81587,6.2768 -3.31538,12.6107 -4.49938,19.00049 -9.73879,2.414 -19.40616,5.08025 -28.99996,7.99912 -1.91487,-0.28399 -3.58049,0.0503 -4.99949,1.00129 -3.95095,-6.77992 -9.61869,-11.6143 -17.00053,-14.5003 -19.35459,-2.04162 -29.82737,5.80097 -31.62272,23.29694 l -95.21068,14.89667 0.003,0.0207 a 10.237466,17.380623 80.262497 0 0 -1.04364,0.14168 10.237466,17.380623 80.262497 0 0 -15.86523,12.84635 10.237466,17.380623 80.262497 0 0 18.47031,7.4738 10.237466,17.380623 80.262497 0 0 1.03559,-0.20535 l 0.005,0.043 99.20834,-15.52227 c 0.18016,1.09797 0.51583,2.29501 1.13048,3.67243 13.05544,29.25711 39.50603,62.46516 79.86485,88.24979 21.59513,14.57958 45.60289,25.94443 72.02551,34.08659 -0.71929,0.39963 -1.43872,0.79906 -2.15803,1.19868 A 241.3152,241.97803 0 0 0 301.40445,799.62564 h 61.91235 a 191.30777,182.50982 0 0 1 149.31745,-68.47565 191.30777,182.50982 0 0 1 149.31745,68.47565 h 61.84642 A 241.3152,241.97803 0 0 0 601.3049,689.21869 c 18.72015,-6.1288 36.79145,-13.85727 54.19683,-23.21894 17.46628,-9.53864 33.17252,-20.65912 47.18241,-33.30499 27.68037,-23.11364 45.91713,-48.50986 52.79781,-69.59472 l 98.51526,15.41402 0.005,-0.043 a 17.380623,10.237466 9.7375028 0 0 1.03559,0.20535 17.380623,10.237466 9.7375028 0 0 18.47031,-7.4738 17.380623,10.237466 9.7375028 0 0 -15.86523,-12.84635 h -0.002 a 17.380623,10.237466 9.7375028 0 0 -1.04203,-0.14168 l 0.002,-0.0207 -94.71057,-14.81867 c -0.19667,-8.03836 -3.62174,-14.84593 -10.39136,-20.37586 -15.76358,-7.26592 -28.42893,-3.76572 -37.99872,10.49993 -15.54459,-2.35987 -30.8789,-5.6931 -46.00048,-10.00009 -0.33301,-0.667 -0.66722,-1.33238 -1.00022,-1.99938 0.82788,-3.804 1.49544,-7.63664 2.00044,-11.49963 -0.855,-9.27279 -2.35602,-18.43967 -4.50099,-27.49946 C 655.71013,458.67215 648.0451,434.67114 641.00031,410.50069 632.66438,376.11732 624.33042,341.78304 615.99963,307.50068 612.19564,297.0889 608.19619,286.7555 604.0002,276.50071 590.91124,253.79517 575.0768,233.29423 556.49922,215.00065 543.52343,203.84386 528.52253,197.67599 511.49895,196.5 Z" /></g><g
       id="g58"
       style="clip-rule:evenodd;display:inline;fill:url(#linearGradient132);fill-rule:evenodd;image-rendering:optimizeQuality;shape-rendering:geometricPrecision;text-rendering:geometricPrecision"
       inkscape:label="ribbon"
       transform="matrix(1.2174307,0,0,1.2298252,-21.9545,-230.86833)"><path
         id="path58"
         style="display:inline;opacity:1;fill:url(#linearGradient43);fill-opacity:1"
         d="m 572.75313,615.31797 c -2.47143,-0.0968 -5.22106,0.4651 -8.25262,1.6826 l -4.50099,4.5002 c -2.29,7.08198 -4.79005,14.08189 -7.50004,20.99988 -3.701,2.057 -7.36621,4.05674 -10.99921,5.99974 -11.49598,-8.37499 -24.16335,-11.3754 -38.00033,-9.00041 -6.22698,0.874 -11.89454,3.20644 -17.00053,6.99943 -1.388,1.372 -3.05449,2.37267 -4.99949,3.00067 -4.297,-2.149 -8.62965,-4.31459 -12.99965,-6.49959 -1.981,-5.73498 -3.6475,-11.56897 -4.99949,-17.50096 -2.053,-4.05299 -5.05338,-7.05181 -9.00038,-8.99881 -10.09398,-1.87999 -16.09475,2.1195 -18.00075,11.99948 0.857,4.74099 1.69155,9.40745 2.50055,14.00045 -3.77199,1.325 -7.60593,2.48992 -11.50092,3.49892 -7.42598,5.41998 -8.92538,12.25405 -4.49938,20.50003 4.49099,4.75899 9.99143,6.2592 16.50041,4.5002 5.17299,-1.419 10.34022,-2.9192 15.5002,-4.5002 4.232,2.2 8.39754,4.53402 12.49954,7.00102 1.306,5.55398 1.306,11.05369 0,16.49967 -4.482,2.325 -8.98176,4.49159 -13.49976,6.49959 -8.27598,-2.962 -16.77681,-4.4622 -25.50079,-4.5002 -8.92598,6.18398 -10.25926,13.68502 -3.99927,22.501 4.63299,3.15 9.6331,5.48343 15.00008,6.99943 -3.87699,7.11998 -3.87699,14.11989 0,20.99988 14.18698,7.90598 22.8533,3.90649 25.9993,-11.99948 0.118,-3.18799 0.95155,-6.1884 2.50055,-9.0004 4.087,-3.296 8.58676,-5.96371 13.49976,-8.00071 3.40299,2.686 6.7366,5.35371 10.00059,8.00071 4.079,2.104 8.41165,3.43736 12.99965,4.00036 h 4.99949 c 8.39898,0.74299 16.39948,-0.59036 24.00047,-4.00036 2.62799,-1.988 5.29515,-3.98774 8.00015,-5.99974 8.27798,1.283 13.27809,5.94888 15.00009,13.99886 1.363,3.162 2.19594,6.4961 2.49894,10.00009 6.67098,9.50098 14.50537,10.50165 23.50035,3.00067 1.847,-2.7 2.84766,-5.70041 3.00066,-9.00041 -0.798,-4.38999 -1.79866,-8.72217 -3.00066,-12.99916 8.33298,-0.242 14.49987,-3.9078 18.50086,-10.99979 1.354,-10.64897 -3.31289,-16.6498 -13.99987,-18.0008 -5.39298,0.686 -10.5602,2.1862 -15.50019,4.5002 -2.667,0.667 -5.33316,0.667 -8.00016,0 -1.836,-1.419 -3.83571,-2.58651 -5.99971,-3.50051 -0.886,-0.825 -1.21922,-1.82407 -1.00022,-2.99907 V 675.5 c -0.285,-1.788 0.0482,-3.45505 1.00022,-5.00005 2.164,-0.914 4.16371,-2.08151 5.99971,-3.50051 2,-0.667 3.99972,-0.667 5.99972,0 5.89498,1.945 11.89576,3.44521 18.00074,4.5002 11.42298,-2.08199 15.58854,-8.7492 12.49954,-20.00018 -1.046,-1.59 -2.21377,-3.0902 -3.50077,-4.5002 -4.279,-1.653 -8.61165,-3.15161 -12.99965,-4.49861 -0.333,-0.667 -0.66722,-1.33398 -1.00022,-2.00098 1.804,-4.88799 2.63755,-9.88815 2.50055,-15.00014 -2.72661,-6.57455 -6.80992,-9.96863 -12.24707,-10.18156 z m -60.62589,38.0965 c 12.89553,-0.0278 22.18583,5.99989 27.8727,18.08517 4.68399,19.30696 -2.14873,32.3077 -20.49969,39.00069 -3.125,0.97899 -6.4586,1.31269 -10.0006,0.99969 -4.72699,-0.409 -9.05965,-1.90921 -12.99964,-4.5002 -12.07598,-9.71898 -15.57669,-21.88589 -10.50071,-36.49987 4.937,-9.78298 12.77037,-15.44952 23.50035,-16.99952 0.89175,-0.0557 1.76789,-0.0842 2.62759,-0.086 z" /></g><g
       id="g31"
       style="clip-rule:evenodd;display:inline;fill:url(#linearGradient133);fill-opacity:1;fill-rule:evenodd;image-rendering:optimizeQuality;shape-rendering:geometricPrecision;text-rendering:geometricPrecision"
       inkscape:label="under hoodie"
       transform="matrix(1.2145762,0,0,1.2269417,-22.150406,-241.09404)"><path
         id="path31"
         style="display:inline;opacity:1;fill:url(#linearGradient44);fill-opacity:1"
         d="m 512.23662,231.1326 c -22.08129,0.36874 -38.37521,6.89293 -54.23703,25.36796 -13.04281,15.1916 -22.0988,36.26975 -29.05784,55.03712 -17.51749,47.24179 -21.74113,93.82801 -9.9411,142.96217 8.66595,36.08418 31.97844,62.61996 65.49996,78.49962 8.70849,4.12534 18.02964,9.29132 27.73601,9.50025 8.17847,0.17604 20.08448,-4.89064 27.79229,-8.6295 29.30955,-14.21731 56.34042,-43.21258 63.85329,-74.78102 10.90031,-45.80214 7.01043,-105.95901 -9.49327,-152.37167 -7.5691,-21.28625 -18.3125,-41.31706 -24.79884,-48.48025 -21.19778,-23.40974 -39.17636,-27.40821 -57.35347,-27.10468 z"
         sodipodi:nodetypes="sssssssssss" /></g><g
       id="g6"
       style="clip-rule:evenodd;display:inline;fill:url(#linearGradient134);fill-opacity:1;fill-rule:evenodd;image-rendering:optimizeQuality;shape-rendering:geometricPrecision;text-rendering:geometricPrecision"
       inkscape:label="face"
       transform="matrix(1.2145762,0,0,1.2269417,-22.399719,-241.09404)"><path
         id="path6"
         style="opacity:1;fill:url(#linearGradient45);fill-opacity:1"
         d="m 510.5,241.5 c -3.698,0.052 -7.365,0.386 -11,1 -10.70885,2.356 -20.37515,6.85615 -29,13.5 -20.5877,22.9967 -35.08815,49.49745 -43.5,79.5 -0.333,6.66685 -0.667,13.33315 -1,20 -2.175,9.85085 -4.341,19.68515 -6.5,29.5 -0.39,13.11185 5.61015,21.278 18,24.5 1.175,3.542 1.841,7.209 2,11 1.543,12.2769 2.21,24.6101 2,37 -0.166,4.679 10e-4,9.345 0.5,14 1.045,0.873 1.878,1.873 2.5,3 2.451,2.777 5.451,4.777 9,6 3.345,1.717 7.011,2.384 11,2 7.05983,4.881 13.72617,10.38117 20,16.5 3.293,0.826 6.626,1.326 10,1.5 15.27766,1.649 30.61134,1.149 46,-1.5 6.56383,-6.07083 13.23017,-11.90417 20,-17.5 3.682,0.165 7.348,-10e-4 11,-0.5 0.556,-0.383 0.889,-0.883 1,-1.5 4.197,-1.69 7.697,-4.357 10.5,-8 -0.643,-13.67283 -0.476,-27.34017 0.5,-41 1.544,-5.10591 2.544,-10.43909 3,-16 -0.134,-1.792 0.199,-3.458 1,-5 5.43885,-0.974 9.939,-3.64 13.5,-8 5.31685,-9.56185 5.817,-19.22915 1.5,-29 -1.777,-3.005 -2.777,-6.338 -3,-10 -0.463,-2.982 -0.796,-5.982 -1,-9 -0.811,-7.17785 -1.478,-14.51215 -2,-22 -7.43385,-24.4977 -18.9343,-46.8323 -34.5,-67 -11.10485,-13.21085 -25.2723,-20.878 -42.5,-23 z m -50.86914,96.08594 c 2.62547,-0.0142 5.24846,0.45669 7.86914,1.41406 3.333,1.667 6.667,3.333 10,5 4.208,3.713 8.541,7.213 13,10.5 2.586,1.446 4.92,3.113 7,5 -1.106,2.902 -2.272,5.902 -3.5,9 -10.02889,8.26089 -21.52911,11.761 -34.5,10.5 -6.60089,-2.22 -12.101,-6.05311 -16.5,-11.5 -0.084,-6.99889 1.416,-13.66611 4.5,-20 2.235,-2.791 4.235,-5.791 6,-9 2.04531,-0.59894 4.08883,-0.90304 6.13086,-0.91406 z m 106.14844,0.66015 c 1.53934,-0.008 3.1127,0.0765 4.7207,0.25391 2.586,2.858 4.92,5.858 7,9 1,2.667 2,5.333 3,8 0.662,3.966 0.995,7.966 1,12 -7.95288,9.96688 -18.28712,13.8 -31,11.5 -6.05988,-1.864 -11.72612,-4.53 -17,-8 -3.115,-3.61 -5.115,-7.777 -6,-12.5 1.333,-1 2.667,-2 4,-3 2.59,-0.628 4.923,-1.795 7,-3.5 7.41026,-9.11651 16.50403,-13.70075 27.2793,-13.75391 z M 508.5,368.5 c 2.687,-0.164 5.354,0.003 8,0.5 4.5,5.16685 9,10.33315 13.5,15.5 4.621,8.38585 2.12085,12.552 -7.5,12.5 -3.176,-4.006 -6.509,-7.84 -10,-11.5 -1.688,1.021 -3.021,2.355 -4,4 -1.797,4.298 -4.964,6.964 -9.5,8 -6.72885,-2.634 -8.062,-6.96715 -4,-13 4.281,-5.58985 8.781,-10.92315 13.5,-16 z m -50,42 c 3.179,6.36985 6.846,12.37015 11,18 2.323,-0.558 4.657,-1.225 7,-2 0.1925,-0.443 0.4207,-0.83709 0.68359,-1.18359 0.26289,-0.3465 0.56122,-0.64454 0.89453,-0.89453 0.33332,-0.25 0.70171,-0.45197 1.10547,-0.60547 0.40377,-0.1535 0.84216,-0.25941 1.31641,-0.31641 0.45625,0.28775 0.92422,0.5462 1.40234,0.77344 0.47813,0.22723 0.9668,0.42315 1.4668,0.58984 0.5,0.16669 1.01133,0.30405 1.5332,0.41016 0.52188,0.10611 1.05391,0.18106 1.59766,0.22656 -0.086,-0.996 0.248,-1.829 1,-2.5 3.368,-0.543 6.701,-0.376 10,0.5 3.906,-3.082 8.239,-3.749 13,-2 0.311,0.978 0.978,1.645 2,2 4.377,-3.628 9.044,-3.962 14,-1 3.317,-0.721 6.651,-0.888 10,-0.5 0.881,0.708 1.547,1.542 2,2.5 2.641,-0.763 5.308,-0.93 8,-0.5 2.474,2.724 5.474,4.224 9,4.5 3.418,-5.83685 7.084,-11.50415 11,-17 0.992,7.48193 1.325,15.14807 1,23 -0.92,6.58383 -4.58617,10.584 -11,12 0.322,2.222 -0.345,4.056 -2,5.5 -4.966,1.147 -9.96617,1.98 -15,2.5 -1.183,1.004 -2.516,1.838 -4,2.5 -5.17783,0.076 -10.012,1.243 -14.5,3.5 -3.408,-0.121 -6.242,-1.454 -8.5,-4 -0.607,0.124 -0.94,0.457 -1,1 -2.138,1.475 -4.471,2.475 -7,3 -5.05383,-2.287 -10.38717,-3.454 -16,-3.5 -0.873,-1.045 -1.873,-1.878 -3,-2.5 -5.10083,-0.216 -10.101,-1.05 -15,-2.5 -1.361,-1.584 -2.028,-3.418 -2,-5.5 -1.599,0.268 -2.932,-0.066 -4,-1 -3.77,-2.166 -6.103,-5.5 -7,-10 -0.326,-8.51692 0.007,-16.85008 1,-25 z" /></g><g
       id="g16"
       style="display:inline;opacity:0.5;fill:url(#linearGradient135);fill-opacity:1"
       inkscape:label="face shadows"
       transform="matrix(1.2145762,0,0,1.2269417,-22.529044,-241.09404)"><path
         id="path16"
         style="display:inline;opacity:1;fill:url(#linearGradient46);fill-opacity:1"
         d="m 531.5,355.5 c -1.333,1 -2.667,2 -4,3 -2.742,-1.586 -5.742,-2.753 -9,-3.5 -2.027,-1.396 -2.36,-3.062 -1,-5 3.682,-0.222 7.348,0.111 11,1 0.415,2.026 1.415,3.526 3,4.5 z m -34,4 c -2.08,-1.887 -4.414,-3.554 -7,-5 2.745,0.127 4.745,-1.04 6,-3.5 3.622,-1.106 7.289,-1.439 11,-1 1.333,1.333 1.333,2.667 0,4 -2.706,1.908 -5.706,2.741 -9,2.5 0.237,1.291 -0.096,2.291 -1,3 z m 73,-21 c 7.4,0.97 13.9,3.97 19.5,9 1.164,3.067 0.164,4.733 -3,5 -3.232,-1.55 -6.232,-3.55 -9,-6 -0.399,0.228 -0.565,0.562 -0.5,1 -2.08,-3.142 -4.414,-6.142 -7,-9 z m -117,0 c -1.765,3.209 -3.765,6.209 -6,9 0.065,-0.438 -0.101,-0.772 -0.5,-1 -2.768,2.45 -5.768,4.45 -9,6 -3.392,-0.334 -4.226,-2 -2.5,-5 4.928,-5.131 10.928,-8.131 18,-9 z m 102,-26 c 5.333,0 10.667,0 16,0 0.239,1.967 -0.094,3.801 -1,5.5 -6.764,0.353 -13.43,1.353 -20,3 -6.157,2.579 -12.157,5.413 -18,8.5 -1.766,0.066 -2.766,-0.768 -3,-2.5 0.59,-2.257 1.923,-3.924 4,-5 7.276,-3.476 14.61,-6.642 22,-9.5 z m -102,0 c 15.443,-0.573 29.276,3.76 41.5,13 0.667,1 0.667,2 0,3 -1.726,1.076 -3.559,1.243 -5.5,0.5 -10.624,-6.874 -22.291,-10.541 -35,-11 -2.135,-1.556 -2.468,-3.389 -1,-5.5 z" /></g><g
       id="g27"
       style="display:inline;fill:url(#linearGradient136);fill-opacity:1"
       inkscape:label="teeth"
       transform="matrix(1.2145762,0,0,1.2269417,-22.045737,-241.09404)"><g
         id="g172"
         style="fill:url(#linearGradient71);fill-opacity:1;stroke:url(#linearGradient72);stroke-width:0.491504;stroke-dasharray:none"
         inkscape:label="all"><path
           style="clip-rule:evenodd;display:inline;opacity:1;fill:url(#linearGradient47);fill-opacity:1;fill-rule:evenodd;stroke:url(#linearGradient48);stroke-width:0.491504;stroke-dasharray:none;image-rendering:optimizeQuality;shape-rendering:geometricPrecision;text-rendering:geometricPrecision"
           d="m 468.82617,441.9043 c -0.36851,-0.0504 -0.75268,0.15871 -1.1289,0.37109 C 467.65786,443.8874 468.5,446.5 468.5,446.5 c -0.028,2.082 0.639,3.916 2,5.5 4.899,1.45 9.89902,2.284 15,2.5 0,0 1.27082,-4.45695 1.03906,-8.02734 -0.71566,0.1553 -1.4319,0.28791 -2.15625,0.25 -1.49607,-0.0783 -2.86942,-0.96717 -4.36328,-1.08008 -1.08248,-0.0818 -2.17299,0.47521 -3.24414,0.29883 -1.55074,-0.25536 -2.90943,-1.19828 -4.30859,-1.91407 -1.25088,-0.63993 -2.24853,-1.93256 -3.64063,-2.12304 z"
           id="path138"
           inkscape:label="t12" /><path
           style="clip-rule:evenodd;display:inline;fill:url(#linearGradient49);fill-opacity:1;fill-rule:evenodd;stroke:url(#linearGradient50);stroke-width:0.491504;stroke-dasharray:none;image-rendering:optimizeQuality;shape-rendering:geometricPrecision;text-rendering:geometricPrecision"
           d="m 489.77734,445.97461 c -1.08987,-0.0343 -2.16241,0.26458 -3.23828,0.49805 C 486.77088,450.04306 485.5,454.5 485.5,454.5 c 1.127,0.622 2.127,1.455 3,2.5 2.81687,0.0231 6.10139,0.37918 8.77734,0.9668 0,0 0.0263,-1.3685 0.0254,-2.05274 -10e-4,-1.09352 -0.0768,-2.18616 -0.0488,-3.27929 0.0285,-1.1124 0.2207,-3.33204 0.2207,-3.33204 0.0454,-0.68544 0.0228,-1.14346 0.0156,-1.63281 -0.90444,-0.23058 -1.80584,-0.47842 -2.71679,-0.67969 -1.65953,-0.36664 -3.29739,-0.96212 -4.9961,-1.01562 z"
           id="path140"
           inkscape:label="t11" /><path
           id="path159"
           style="clip-rule:evenodd;display:inline;fill:url(#linearGradient51);fill-opacity:1;fill-rule:evenodd;stroke:url(#linearGradient52);stroke-width:0.491504;stroke-dasharray:none;image-rendering:optimizeQuality;shape-rendering:geometricPrecision;text-rendering:geometricPrecision"
           d="m 497.55664,447.68555 -0.01,0.96679 -0.22071,3.74805 0.0234,1.89844 -0.0469,2.55859 0.0723,1.0918 c 2.31265,0.57141 4.91879,1.55243 7.125,2.55078 2.529,-0.525 4.862,-1.525 7,-3 0.0584,-0.52862 0.38024,-0.85483 0.95703,-0.98633 l 0.002,-0.0566 0.0117,-0.73242 -0.15234,-1.12695 -0.0156,-1.52149 -0.0898,-2.02539 -0.44141,-1.98047 c -0.98085,0.0822 -1.96042,0.14342 -2.94336,0.11914 -1.54428,-0.0381 -3.88168,0.14341 -5.41791,-0.0415 -1.54088,-0.18549 -2.28055,-0.73779 -3.80669,-1.00535 -0.68907,-0.12081 -1.36851,-0.28485 -2.04688,-0.45703 z"
           inkscape:label="t10"
           sodipodi:nodetypes="cccccccccccccccsssc" /><path
           id="path217"
           style="clip-rule:evenodd;display:inline;opacity:1;fill:url(#linearGradient53);fill-opacity:1;fill-rule:evenodd;stroke:url(#linearGradient54);stroke-width:0.491504;stroke-dasharray:none;image-rendering:optimizeQuality;shape-rendering:geometricPrecision;text-rendering:geometricPrecision"
           d="m 511.77148,449.07031 0.44141,1.98047 0.0898,2.02539 0.0156,1.52149 0.15234,1.12695 -0.0117,0.73242 -0.002,0.0547 c 0.0149,-0.003 0.0278,-0.009 0.043,-0.0117 2.258,2.546 5.092,3.879 8.5,4 2.19851,-1.10562 4.48138,-1.94887 6.8457,-2.53125 0,0 -0.13431,-0.0503 -0.16601,-0.0625 -0.11342,-0.63192 -0.11303,-1.26778 -0.13072,-1.90234 0.16227,-2.03014 0.22676,-4.08337 0.32424,-6.1231 l -0.4238,-1.67188 c 0,0 -2.56826,-0.0694 -3.85239,-0.10415 -0.90728,-0.0245 -1.81464,-0.10107 -2.72183,-0.0736 -1.58455,0.048 -3.19022,0.0714 -4.73759,0.41598 -0.56795,0.12648 -1.06686,0.49569 -1.63936,0.59964 -0.89427,0.16238 -1.56198,-0.37001 -2.72657,0.0234 z m 22.74219,7.95703 c -0.31428,0.0132 -0.62777,0.0314 -0.93945,0.0527 0.31824,-0.0218 0.63806,-0.0395 0.95898,-0.0527 -0.006,2.7e-4 -0.0131,-2.7e-4 -0.0195,0 z m -5.67187,0.71289 c -0.11361,0.0242 -0.22661,0.0507 -0.33985,0.0762 0.11334,-0.0254 0.22614,-0.0519 0.33985,-0.0762 z m -24.83399,2.54297 c -0.003,0.006 -0.007,0.0131 -0.01,0.0195 0.16566,0.0723 0.33689,0.12257 0.50195,0.19727 -0.16077,-0.0727 -0.32744,-0.14438 -0.49219,-0.2168 z"
           sodipodi:nodetypes="scccccccccccccaaaacsccscccccccccc"
           inkscape:label="t09" /><path
           id="path141"
           style="clip-rule:evenodd;display:inline;fill:url(#linearGradient55);fill-opacity:1;fill-rule:evenodd;stroke:url(#linearGradient56);stroke-width:0.491504;stroke-dasharray:none;image-rendering:optimizeQuality;shape-rendering:geometricPrecision;text-rendering:geometricPrecision"
           inkscape:label="t08"
           d="m 539.47266,445.98633 c -0.52048,0.51267 -1.45297,-0.20145 -2.13408,-0.01 -1.49611,0.42131 -2.70302,0.60036 -4.24678,0.78113 -1.09536,0.12827 -2.37148,0.54233 -3.44804,0.78171 -0.8256,0.18359 -1.35335,0.57081 -2.19454,0.66946 l 0.42383,1.67188 c -0.0975,2.03973 -0.16195,4.09291 -0.32422,6.12305 0.0167,0.59734 0.0206,1.19573 0.11523,1.79101 0.077,0.0737 0.18164,0.17383 0.18164,0.17383 0.21774,-0.0536 0.43713,-0.10314 0.65625,-0.15234 0.0163,-0.004 0.0325,-0.008 0.0488,-0.0117 0.0969,-0.0216 0.19379,-0.0437 0.29102,-0.0645 1.54342,-0.32938 3.11999,-0.54952 4.73242,-0.66015 0.31168,-0.0213 0.62517,-0.0395 0.93945,-0.0527 0.006,-2.7e-4 0.0135,2.7e-4 0.0195,0 0.32093,-0.0133 0.64315,-0.0226 0.9668,-0.0273 1.484,-0.662 2.817,-1.496 4,-2.5 0,0 -0.18156,-0.42598 -0.28711,-2.91211 0.004,-0.27566 0.33484,-1.52997 0.33984,-1.82031 0.0145,-0.85076 0.11022,-1.78655 0.10938,-2.67969 0,-0.27303 -0.11835,-0.60996 -0.11523,-0.90234 -0.0508,-0.0484 -0.08,-0.11062 -0.0742,-0.19922 z"
           sodipodi:nodetypes="cssscccccsccsscccccccc" /><path
           style="clip-rule:evenodd;display:inline;fill:url(#linearGradient57);fill-opacity:1;fill-rule:evenodd;stroke:url(#linearGradient58);stroke-width:0.491504;stroke-dasharray:none;image-rendering:optimizeQuality;shape-rendering:geometricPrecision;text-rendering:geometricPrecision"
           d="m 556.54883,443.77734 c -1.45878,0.7043 -3.55934,0.44599 -5.33789,0.67774 -1.05755,0.1378 -2.10514,0.39654 -3.17128,0.42383 -1.01321,0.0259 -2.02088,-0.33725 -3.03049,-0.24805 -0.87795,0.0776 -1.69583,0.4852 -2.55665,0.67443 -0.91993,0.20223 -2.1751,-0.22821 -2.7826,0.49159 -0.27756,0.32887 -0.008,0.88269 -0.008,1.29101 8.4e-4,0.89314 -0.0949,1.82893 -0.10938,2.67969 -0.005,0.29034 -0.3366,1.54405 -0.3406,1.81971 0.10555,2.48613 0.2876,2.91271 0.2876,2.91271 5.03397,-0.52 10.034,-1.353 15,-2.5 1.655,-1.444 2.322,-3.278 2,-5.5 0.12329,-0.93766 0.1371,-1.84493 0.0488,-2.72266 z"
           id="path149"
           sodipodi:nodetypes="cssssscscccccc"
           inkscape:label="t07" /><path
           style="clip-rule:evenodd;display:inline;fill:url(#linearGradient59);fill-opacity:1;fill-rule:evenodd;stroke:url(#linearGradient60);stroke-width:0.491504;stroke-dasharray:none;image-rendering:optimizeQuality;shape-rendering:geometricPrecision;text-rendering:geometricPrecision"
           d="m 543.48242,423.76758 c -1.67069,0.011 -3.3318,0.25555 -4.98242,0.73242 0,0 -0.69017,7.69097 0.12305,11.60742 0.12744,0.61373 0.57725,1.2145 0.72265,1.82422 0.18634,0.78131 0.1951,1.67832 0.17774,2.56836 0.80198,0.006 1.58098,6.8e-4 2.29297,-0.12109 1.37858,-0.2358 5.35845,-0.30499 6.34961,-0.9961 3.86568,-2.69547 5.90718,-3.55691 6.98437,-3.74219 0.41001,-2.34216 0.52767,-4.72232 0.34961,-7.14062 -3.526,-0.276 -6.526,-1.776 -9,-4.5 -1.0095,-0.16125 -2.01516,-0.23903 -3.01758,-0.23242 z"
           id="path30"
           inkscape:label="t06" /><path
           style="clip-rule:evenodd;display:inline;fill:url(#linearGradient61);fill-opacity:1;fill-rule:evenodd;stroke:url(#linearGradient62);stroke-width:0.491504;stroke-dasharray:none;image-rendering:optimizeQuality;shape-rendering:geometricPrecision;text-rendering:geometricPrecision"
           d="m 532.73828,421.79688 c -2.08591,0.0176 -4.16516,0.2525 -6.23828,0.70312 1.23343,4.0349 1.01133,10.80917 1.02148,15.81055 10e-4,0.48542 0.11407,0.70027 0.10157,1.06445 0.0292,0.44775 0.0568,0.89106 0.0742,1.31445 0.62422,-0.11767 0.77305,-0.14796 1.75195,-0.33007 1.93811,-0.36057 4.38193,0.62307 6.0918,0.31835 1.29963,-0.23163 2.59585,-0.1908 3.82812,-0.17773 -0.007,-0.80327 0.0754,-1.61573 -0.0937,-2.39844 -0.15487,-0.71669 -0.69246,-1.31729 -0.83203,-2.03711 C 537.70931,432.28011 538.5,424.5 538.5,424.5 c -0.453,-0.958 -1.119,-1.792 -2,-2.5 -1.25587,-0.1455 -2.51017,-0.21367 -3.76172,-0.20312 z"
           id="path28"
           inkscape:label="t05" /><path
           style="display:inline;opacity:1;fill:url(#linearGradient63);fill-opacity:1;stroke:url(#linearGradient64);stroke-width:0.491504;stroke-dasharray:none"
           d="m 520.16211,420.50391 c -2.6454,-0.0441 -5.94016,0.8042 -7.51172,2.99414 -0.0583,0.0812 -0.10997,0.16598 -0.16016,0.25 l -0.004,0.0703 -0.25781,6.14258 c -1.1e-4,0.007 10e-5,0.0183 0,0.0254 -0.005,0.37109 0.0313,0.74248 0.0156,1.11328 -0.0161,0.37773 -0.0626,0.75337 -0.10937,1.12891 l -0.125,2.96093 c -7.3e-4,0.0267 -0.003,0.0534 -0.004,0.0801 -0.009,0.30036 -0.0212,0.60013 -0.0371,0.90039 l -0.21484,5.15235 c 0.44678,-0.024 0.89252,-0.025 1.33203,0.0547 0.52104,0.0944 0.94168,0.4983 1.45117,0.64258 0.80959,0.22926 1.66142,0.30115 2.50195,0.33985 0.63591,0.0293 1.2755,-0.0119 1.90821,-0.082 1.58043,-0.17502 3.12683,-0.58044 4.69531,-0.84179 1.21161,-0.20189 2.05511,-0.17912 3.64258,-0.56055 0.65232,-0.15673 -4.68978,0.77728 0.27539,-0.16016 -0.0733,-2.09805 -0.37305,-4.52734 -0.37305,-4.52734 0.274,-4.763 0.2535,-9.1175 -0.6875,-13.6875 -2.16825,-1.29587 -4.28036,-1.9618 -6.33789,-1.99609 z"
           id="path139"
           inkscape:label="t04" /><path
           style="clip-rule:evenodd;display:inline;opacity:1;fill:url(#linearGradient65);fill-opacity:1;fill-rule:evenodd;stroke:url(#linearGradient66);stroke-width:0.491504;stroke-dasharray:none;image-rendering:optimizeQuality;shape-rendering:geometricPrecision;text-rendering:geometricPrecision"
           d="m 505.32422,420.55078 c -2.77509,0.0393 -5.38297,1.02297 -7.82422,2.94922 v 13 2.64844 l 0.0527,1.78906 c 0.93435,0.0607 1.92735,0.14358 2.75391,0.13867 1.19121,-0.007 2.30141,0.44039 3.46289,0.58789 1.09185,0.13866 2.19102,0.3162 3.29102,0.2793 0.77149,-0.0259 1.52135,-0.26901 2.28906,-0.34961 0.79651,-0.0836 1.6032,-0.22841 2.4043,-0.27148 l 0.125,-4.80079 0.24804,-4.89843 0.14844,-3.64649 L 512.5,423.5 c -1.022,-0.355 -1.689,-1.022 -2,-2 -1.78537,-0.65587 -3.51073,-0.97279 -5.17578,-0.94922 z"
           id="path27"
           inkscape:label="t03" /><path
           style="clip-rule:evenodd;display:inline;fill:url(#linearGradient67);fill-opacity:1;fill-rule:evenodd;stroke:url(#linearGradient68);stroke-width:0.491504;stroke-dasharray:none;image-rendering:optimizeQuality;shape-rendering:geometricPrecision;text-rendering:geometricPrecision"
           d="m 491.27344,422.68945 c -1.25321,0.004 -2.51044,0.10693 -3.77344,0.31055 -0.752,0.671 -0.79051,1.62726 -1,2.5 -0.85937,3.58009 -1.14502,8.22909 -1.24219,11 -0.0122,0.34862 -0.0392,0.6735 -0.0762,0.97852 0.062,0.93818 0.615,2.2113 0.53516,3.23242 1.02924,0.11659 2.05753,0.22795 3.09179,0.26758 2.52676,0.0968 4.97289,-0.10852 7.58594,-0.10352 0.33702,6.6e-4 0.75986,0.0366 1.1582,0.0625 L 497.5,439.14844 V 423.5 c -2.06187,-0.5475 -4.13788,-0.8172 -6.22656,-0.81055 z"
           id="path136"
           inkscape:label="t02" /><path
           style="clip-rule:evenodd;display:inline;opacity:1;fill:url(#linearGradient69);fill-opacity:1;fill-rule:evenodd;stroke:url(#linearGradient70);stroke-width:0.491504;stroke-dasharray:none;image-rendering:optimizeQuality;shape-rendering:geometricPrecision;text-rendering:geometricPrecision"
           d="m 480.5,423.5 c -1.897,0.228 -3.23,1.228 -4,3 -2.343,0.775 -4.677,1.442 -7,2 0.1614,1.98338 -0.70307,4.22227 -1.26562,6.36719 0.42466,0.38871 0.84554,0.78539 1.24414,1.04883 1.97597,1.30596 3.34482,3.61338 5.57812,4.40234 2.30865,0.81558 4.89841,-0.0437 7.34375,0.0801 1.08798,0.0551 2.17258,0.18372 3.25586,0.30664 -0.0215,-1.04156 -0.78422,-2.34388 -0.82617,-3.28516 0.21485,-4.29674 0.69794,-8.79673 1.66992,-11.91992 -2.175,-0.182 -4.175,-0.849 -6,-2 z"
           id="path32"
           inkscape:label="t01" /></g></g><g
       id="g121"
       inkscape:label="body shadows"
       transform="translate(149.61124)"
       style="display:inline;opacity:0.25;fill:url(#linearGradient137);fill-opacity:1"><path
         id="path35"
         style="clip-rule:evenodd;display:inline;opacity:1;fill:url(#linearGradient73);fill-rule:evenodd;image-rendering:optimizeQuality;shape-rendering:geometricPrecision;text-rendering:geometricPrecision"
         d="m 123.95028,588.95898 c -5.55084,-0.15205 -5.65105,6.67873 -6.36523,10.63282 -2.43221,13.46603 -4.62116,27.09742 -4.53125,40.79492 0.0647,9.85131 1.14517,19.71942 3.39844,29.27148 2.46355,10.44351 5.62691,20.77726 9.85937,30.62696 5.43919,12.65795 9.68368,25.77683 14.75391,38.57617 0.14389,0.36325 0.32748,0.76035 0.48047,1.13867 h 28.27148 c -23.16996,-21.7378 -36.9246,-51.98929 -42.78125,-82.88477 -3.52295,-18.58456 -3.23762,-37.71915 0.2461,-56.44335 0.67002,-3.60124 2.53321,-9.17295 -1.47266,-11.15626 -0.58189,-0.28809 -1.20066,-0.52433 -1.85938,-0.55664 z m 652.87696,0 c -0.65872,0.0323 -1.27749,0.26855 -1.85938,0.55664 -4.00587,1.98331 -2.14268,7.55502 -1.47265,11.15626 3.48371,18.7242 3.76904,37.85879 0.24609,56.44335 C 767.88465,688.01071 754.13001,718.2622 730.96005,740 h 28.27148 c 0.15299,-0.37832 0.33658,-0.77542 0.48047,-1.13867 5.07023,-12.79934 9.31472,-25.91822 14.75391,-38.57617 4.23247,-9.8497 7.39583,-20.18345 9.85937,-30.62696 2.25327,-9.55206 3.33378,-19.42017 3.39844,-29.27148 0.0899,-13.6975 -2.09904,-27.32889 -4.53125,-40.79492 -0.71418,-3.95409 -0.81439,-10.78487 -6.36523,-10.63282 z" /></g><g
       id="g43"
       transform="matrix(0.97488561,0,0,1.1791047,-0.25933584,-79.934321)" /></g></svg>
