<?xml version="1.0" encoding="UTF-8" standalone="no"?>
<!-- Created with Inkscape (http://www.inkscape.org/) -->

<svg
   width="1280"
   height="640"
   viewBox="0 0 338.66667 169.33333"
   version="1.1"
   id="svg1"
   inkscape:version="1.3.2 (091e20e, 2023-11-25, custom)"
   sodipodi:docname="banner.svg"
   xml:space="preserve"
   inkscape:export-filename="banner.png"
   inkscape:export-xdpi="96"
   inkscape:export-ydpi="96"
   xmlns:inkscape="http://www.inkscape.org/namespaces/inkscape"
   xmlns:sodipodi="http://sodipodi.sourceforge.net/DTD/sodipodi-0.dtd"
   xmlns:xlink="http://www.w3.org/1999/xlink"
   xmlns="http://www.w3.org/2000/svg"
   xmlns:svg="http://www.w3.org/2000/svg"><sodipodi:namedview
     id="namedview1"
     pagecolor="#2b2836"
     bordercolor="#000000"
     borderopacity="0.25"
     inkscape:showpageshadow="2"
     inkscape:pageopacity="0.0"
     inkscape:pagecheckerboard="0"
     inkscape:deskcolor="#d1d1d1"
     inkscape:document-units="mm"
     inkscape:zoom="0.65834035"
     inkscape:cx="573.41161"
     inkscape:cy="377.46433"
     inkscape:window-width="1920"
     inkscape:window-height="974"
     inkscape:window-x="-11"
     inkscape:window-y="-11"
     inkscape:window-maximized="1"
     inkscape:current-layer="svg1"
     inkscape:export-bgcolor="#2b2836ff" /><defs
     id="defs1"><linearGradient
       id="swatch10"
       inkscape:swatch="solid"><stop
         style="stop-color:#84fba2;stop-opacity:1;"
         offset="0"
         id="stop10" /></linearGradient><linearGradient
       id="swatch9"
       inkscape:swatch="solid"><stop
         style="stop-color:#f36a66;stop-opacity:1;"
         offset="0"
         id="stop9" /></linearGradient><linearGradient
       id="swatch8"
       inkscape:swatch="solid"><stop
         style="stop-color:#ffb793;stop-opacity:1;"
         offset="0"
         id="stop8" /></linearGradient><linearGradient
       id="swatch7"
       inkscape:swatch="solid"><stop
         style="stop-color:#93b4ff;stop-opacity:1;"
         offset="0"
         id="stop7" /></linearGradient><linearGradient
       id="swatch6"
       inkscape:swatch="solid"><stop
         style="stop-color:#ff8adb;stop-opacity:1;"
         offset="0"
         id="stop6" /></linearGradient><linearGradient
       id="swatch5"
       inkscape:swatch="solid"><stop
         style="stop-color:#f3e4a2;stop-opacity:1;"
         offset="0"
         id="stop5" /></linearGradient><linearGradient
       id="swatch3"
       inkscape:swatch="solid"><stop
         style="stop-color:#000000;stop-opacity:1;"
         offset="0"
         id="stop3" /></linearGradient><linearGradient
       id="swatch11"
       inkscape:swatch="solid"><stop
         style="stop-color:#ff8adb;stop-opacity:1;"
         offset="0"
         id="stop11" /></linearGradient><rect
       x="215.6939"
       y="177.71963"
       width="714.75385"
       height="141.81716"
       id="rect1" /><linearGradient
       inkscape:collect="always"
       xlink:href="#swatch11"
       id="linearGradient11"
       x1="42.781455"
       y1="15.408568"
       x2="297.5545"
       y2="15.408568"
       gradientUnits="userSpaceOnUse" /><linearGradient
       id="swatch136"
       inkscape:swatch="solid"><stop
         style="stop-color:#2b2836;stop-opacity:1;"
         offset="0"
         id="stop136" /></linearGradient><linearGradient
       id="swatch135"
       inkscape:swatch="solid"><stop
         style="stop-color:#000000;stop-opacity:1;"
         offset="0"
         id="stop135" /></linearGradient><linearGradient
       id="swatch129"
       inkscape:swatch="solid"><stop
         style="stop-color:#f3e4a2;stop-opacity:1;"
         offset="0"
         id="stop129" /></linearGradient><inkscape:path-effect
       effect="fillet_chamfer"
       id="path-effect123"
       is_visible="true"
       lpeversion="1"
       nodesatellites_param="F,0,0,1,0,0,0,1 @ F,0,0,1,0,0,0,1 @ F,0,0,1,0,0,0,1 @ F,0,0,1,0,0,0,1 @ F,0,0,1,0,0,0,1"
       radius="0"
       unit="px"
       method="auto"
       mode="F"
       chamfer_steps="1"
       flexible="false"
       use_knot_distance="true"
       apply_no_radius="true"
       apply_with_radius="true"
       only_selected="false"
       hide_knots="false" /><linearGradient
       id="swatch86"
       inkscape:swatch="solid"><stop
         style="stop-color:#503f77;stop-opacity:0.98823529;"
         offset="0"
         id="stop86" /></linearGradient><linearGradient
       id="swatch84"
       inkscape:swatch="solid"><stop
         style="stop-color:#655e7f;stop-opacity:0.98823529;"
         offset="0"
         id="stop84" /></linearGradient><linearGradient
       id="swatch83"
       inkscape:swatch="solid"><stop
         style="stop-color:#e9eb6e;stop-opacity:1;"
         offset="0"
         id="stop83" /></linearGradient><linearGradient
       id="swatch82"
       inkscape:swatch="solid"><stop
         style="stop-color:#84fba2;stop-opacity:1;"
         offset="0"
         id="stop82" /></linearGradient><linearGradient
       id="swatch80"
       inkscape:swatch="solid"><stop
         style="stop-color:#674d98;stop-opacity:1;"
         offset="0"
         id="stop80" /></linearGradient><linearGradient
       id="swatch78"
       inkscape:swatch="solid"><stop
         style="stop-color:#513e78;stop-opacity:0.99607843;"
         offset="0"
         id="stop78" /></linearGradient><linearGradient
       id="swatch76"
       inkscape:swatch="solid"><stop
         style="stop-color:#93b4ff;stop-opacity:0.98823529;"
         offset="0"
         id="stop76" /></linearGradient><clipPath
       clipPathUnits="userSpaceOnUse"
       id="clipPath14"><rect
         style="opacity:0.916143;fill:#dce7fd;fill-opacity:1;stroke-width:1.08331"
         id="rect15"
         width="1413.5018"
         height="579.22314"
         x="-195.50543"
         y="106.72144" /></clipPath><inkscape:path-effect
       effect="fillet_chamfer"
       id="path-effect123-2"
       is_visible="true"
       lpeversion="1"
       nodesatellites_param="F,0,0,1,0,0,0,1 @ F,0,0,1,0,0,0,1 @ F,0,0,1,0,0,0,1 @ F,0,0,1,0,0,0,1 @ F,0,0,1,0,0,0,1"
       radius="0"
       unit="px"
       method="auto"
       mode="F"
       chamfer_steps="1"
       flexible="false"
       use_knot_distance="true"
       apply_no_radius="true"
       apply_with_radius="true"
       only_selected="false"
       hide_knots="false" /><inkscape:path-effect
       effect="fillet_chamfer"
       id="path-effect123-5"
       is_visible="true"
       lpeversion="1"
       nodesatellites_param="F,0,0,1,0,0,0,1 @ F,0,0,1,0,0,0,1 @ F,0,0,1,0,0,0,1 @ F,0,0,1,0,0,0,1 @ F,0,0,1,0,0,0,1"
       radius="0"
       unit="px"
       method="auto"
       mode="F"
       chamfer_steps="1"
       flexible="false"
       use_knot_distance="true"
       apply_no_radius="true"
       apply_with_radius="true"
       only_selected="false"
       hide_knots="false" /><linearGradient
       id="swatch82-1"
       inkscape:swatch="solid"><stop
         style="stop-color:#7b94a5;stop-opacity:1;"
         offset="0"
         id="stop82-5" /></linearGradient><linearGradient
       id="swatch78-9"
       inkscape:swatch="solid"><stop
         style="stop-color:#655e7f;stop-opacity:0.99607843;"
         offset="0"
         id="stop78-6" /></linearGradient><linearGradient
       id="swatch2"
       inkscape:swatch="solid"
       inkscape:label="comments"><stop
         style="stop-color:#655e7f;stop-opacity:1;"
         offset="0"
         id="stop2" /></linearGradient><linearGradient
       id="swatch1"
       inkscape:swatch="solid"
       inkscape:label="blue"><stop
         style="stop-color:#2b2836;stop-opacity:1;"
         offset="0"
         id="stop1" /></linearGradient><linearGradient
       inkscape:collect="always"
       xlink:href="#swatch3"
       id="linearGradient3"
       x1="13.800461"
       y1="17.458955"
       x2="324.86619"
       y2="17.458955"
       gradientUnits="userSpaceOnUse" /><linearGradient
       inkscape:collect="always"
       xlink:href="#swatch5"
       id="linearGradient5"
       x1="13.800461"
       y1="17.458955"
       x2="324.86619"
       y2="17.458955"
       gradientUnits="userSpaceOnUse" /><linearGradient
       inkscape:collect="always"
       xlink:href="#swatch6"
       id="linearGradient6"
       x1="285.6868"
       y1="76.902939"
       x2="324.86617"
       y2="76.902939"
       gradientUnits="userSpaceOnUse" /><linearGradient
       inkscape:collect="always"
       xlink:href="#swatch7"
       id="linearGradient7"
       x1="279.32625"
       y1="65.64949"
       x2="324.86619"
       y2="65.64949"
       gradientUnits="userSpaceOnUse" /><linearGradient
       inkscape:collect="always"
       xlink:href="#swatch8"
       id="linearGradient8"
       x1="285.22116"
       y1="88.156379"
       x2="324.8662"
       y2="88.156379"
       gradientUnits="userSpaceOnUse" /><linearGradient
       inkscape:collect="always"
       xlink:href="#swatch9"
       id="linearGradient9"
       x1="241.81902"
       y1="42.872733"
       x2="324.86618"
       y2="42.872733"
       gradientUnits="userSpaceOnUse" /><linearGradient
       inkscape:collect="always"
       xlink:href="#swatch10"
       id="linearGradient10"
       x1="264.28737"
       y1="54.33784"
       x2="324.86619"
       y2="54.33784"
       gradientUnits="userSpaceOnUse" /><linearGradient
       inkscape:collect="always"
       xlink:href="#swatch7"
       id="linearGradient130"
       x1="141.5"
       y1="675.57153"
       x2="882.5"
       y2="675.57153"
       gradientUnits="userSpaceOnUse" /><linearGradient
       inkscape:collect="always"
       xlink:href="#swatch2"
       id="linearGradient131"
       x1="151.71059"
       y1="497.14832"
       x2="873.55792"
       y2="497.14832"
       gradientUnits="userSpaceOnUse" /><linearGradient
       inkscape:collect="always"
       xlink:href="#swatch82-1"
       id="linearGradient132"
       x1="420.52075"
       y1="681.3858"
       x2="601.22839"
       y2="681.3858"
       gradientUnits="userSpaceOnUse" /><linearGradient
       inkscape:collect="always"
       xlink:href="#swatch136"
       id="linearGradient133"
       x1="412.9617"
       y1="380.50009"
       x2="611.51154"
       y2="380.50009"
       gradientUnits="userSpaceOnUse" /><linearGradient
       inkscape:collect="always"
       xlink:href="#swatch5"
       id="linearGradient134"
       x1="419.48215"
       y1="371.47449"
       x2="605.40161"
       y2="371.47449"
       gradientUnits="userSpaceOnUse" /><linearGradient
       inkscape:collect="always"
       xlink:href="#swatch5"
       id="linearGradient135"
       x1="434.62714"
       y1="335.97491"
       x2="590.4696"
       y2="335.97491"
       gradientUnits="userSpaceOnUse" /><linearGradient
       inkscape:collect="always"
       xlink:href="#swatch5"
       id="linearGradient136"
       x1="467.69592"
       y1="440.50116"
       x2="556.60504"
       y2="440.50116"
       gradientUnits="userSpaceOnUse" /><linearGradient
       inkscape:collect="always"
       xlink:href="#swatch136"
       id="linearGradient137"
       x1="112.31167"
       y1="664.47375"
       x2="788.46582"
       y2="664.47375"
       gradientUnits="userSpaceOnUse" /><linearGradient
       inkscape:collect="always"
       xlink:href="#swatch1"
       id="linearGradient12"
       gradientUnits="userSpaceOnUse"
       x1="434.62714"
       y1="335.97491"
       x2="590.4696"
       y2="335.97491" /><linearGradient
       inkscape:collect="always"
       xlink:href="#swatch7"
       id="linearGradient45"
       gradientUnits="userSpaceOnUse"
       x1="141.5"
       y1="675.57153"
       x2="882.5"
       y2="675.57153" /><linearGradient
       inkscape:collect="always"
       xlink:href="#swatch2"
       id="linearGradient46"
       gradientUnits="userSpaceOnUse"
       x1="151.71059"
       y1="497.14832"
       x2="873.55792"
       y2="497.14832" /><linearGradient
       inkscape:collect="always"
       xlink:href="#swatch82-1"
       id="linearGradient47"
       gradientUnits="userSpaceOnUse"
       x1="420.52075"
       y1="681.3858"
       x2="601.22839"
       y2="681.3858" /><linearGradient
       inkscape:collect="always"
       xlink:href="#swatch136"
       id="linearGradient48"
       gradientUnits="userSpaceOnUse"
       x1="412.9617"
       y1="380.50009"
       x2="611.51154"
       y2="380.50009" /><linearGradient
       inkscape:collect="always"
       xlink:href="#swatch5"
       id="linearGradient49"
       gradientUnits="userSpaceOnUse"
       x1="419.48215"
       y1="371.47449"
       x2="605.40161"
       y2="371.47449" /><linearGradient
       inkscape:collect="always"
       xlink:href="#swatch5"
       id="linearGradient50"
       gradientUnits="userSpaceOnUse"
       x1="467.69592"
       y1="440.50116"
       x2="556.60504"
       y2="440.50116" /><linearGradient
       inkscape:collect="always"
       xlink:href="#swatch5"
       id="linearGradient51"
       gradientUnits="userSpaceOnUse"
       x1="467.69592"
       y1="440.50116"
       x2="556.60504"
       y2="440.50116" /><linearGradient
       inkscape:collect="always"
       xlink:href="#swatch5"
       id="linearGradient52"
       gradientUnits="userSpaceOnUse"
       x1="467.69592"
       y1="440.50116"
       x2="556.60504"
       y2="440.50116" /><linearGradient
       inkscape:collect="always"
       xlink:href="#swatch5"
       id="linearGradient53"
       gradientUnits="userSpaceOnUse"
       x1="467.69592"
       y1="440.50116"
       x2="556.60504"
       y2="440.50116" /><linearGradient
       inkscape:collect="always"
       xlink:href="#swatch5"
       id="linearGradient54"
       gradientUnits="userSpaceOnUse"
       x1="467.69592"
       y1="440.50116"
       x2="556.60504"
       y2="440.50116" /><linearGradient
       inkscape:collect="always"
       xlink:href="#swatch5"
       id="linearGradient55"
       gradientUnits="userSpaceOnUse"
       x1="467.69592"
       y1="440.50116"
       x2="556.60504"
       y2="440.50116" /><linearGradient
       inkscape:collect="always"
       xlink:href="#swatch5"
       id="linearGradient56"
       gradientUnits="userSpaceOnUse"
       x1="467.69592"
       y1="440.50116"
       x2="556.60504"
       y2="440.50116" /><linearGradient
       inkscape:collect="always"
       xlink:href="#swatch5"
       id="linearGradient57"
       gradientUnits="userSpaceOnUse"
       x1="467.69592"
       y1="440.50116"
       x2="556.60504"
       y2="440.50116" /><linearGradient
       inkscape:collect="always"
       xlink:href="#swatch5"
       id="linearGradient58"
       gradientUnits="userSpaceOnUse"
       x1="467.69592"
       y1="440.50116"
       x2="556.60504"
       y2="440.50116" /><linearGradient
       inkscape:collect="always"
       xlink:href="#swatch5"
       id="linearGradient59"
       gradientUnits="userSpaceOnUse"
       x1="467.69592"
       y1="440.50116"
       x2="556.60504"
       y2="440.50116" /><linearGradient
       inkscape:collect="always"
       xlink:href="#swatch5"
       id="linearGradient60"
       gradientUnits="userSpaceOnUse"
       x1="467.69592"
       y1="440.50116"
       x2="556.60504"
       y2="440.50116" /><linearGradient
       inkscape:collect="always"
       xlink:href="#swatch5"
       id="linearGradient61"
       gradientUnits="userSpaceOnUse"
       x1="467.69592"
       y1="440.50116"
       x2="556.60504"
       y2="440.50116" /><linearGradient
       inkscape:collect="always"
       xlink:href="#swatch5"
       id="linearGradient62"
       gradientUnits="userSpaceOnUse"
       x1="467.69592"
       y1="440.50116"
       x2="556.60504"
       y2="440.50116" /><linearGradient
       inkscape:collect="always"
       xlink:href="#swatch5"
       id="linearGradient63"
       gradientUnits="userSpaceOnUse"
       x1="467.69592"
       y1="440.50116"
       x2="556.60504"
       y2="440.50116" /><linearGradient
       inkscape:collect="always"
       xlink:href="#swatch5"
       id="linearGradient64"
       gradientUnits="userSpaceOnUse"
       x1="467.69592"
       y1="440.50116"
       x2="556.60504"
       y2="440.50116" /><linearGradient
       inkscape:collect="always"
       xlink:href="#swatch5"
       id="linearGradient65"
       gradientUnits="userSpaceOnUse"
       x1="467.69592"
       y1="440.50116"
       x2="556.60504"
       y2="440.50116" /><linearGradient
       inkscape:collect="always"
       xlink:href="#swatch5"
       id="linearGradient66"
       gradientUnits="userSpaceOnUse"
       x1="467.69592"
       y1="440.50116"
       x2="556.60504"
       y2="440.50116" /><linearGradient
       inkscape:collect="always"
       xlink:href="#swatch5"
       id="linearGradient67"
       gradientUnits="userSpaceOnUse"
       x1="467.69592"
       y1="440.50116"
       x2="556.60504"
       y2="440.50116" /><linearGradient
       inkscape:collect="always"
       xlink:href="#swatch5"
       id="linearGradient68"
       gradientUnits="userSpaceOnUse"
       x1="467.69592"
       y1="440.50116"
       x2="556.60504"
       y2="440.50116" /><linearGradient
       inkscape:collect="always"
       xlink:href="#swatch5"
       id="linearGradient69"
       gradientUnits="userSpaceOnUse"
       x1="467.69592"
       y1="440.50116"
       x2="556.60504"
       y2="440.50116" /><linearGradient
       inkscape:collect="always"
       xlink:href="#swatch5"
       id="linearGradient70"
       gradientUnits="userSpaceOnUse"
       x1="467.69592"
       y1="440.50116"
       x2="556.60504"
       y2="440.50116" /><linearGradient
       inkscape:collect="always"
       xlink:href="#swatch5"
       id="linearGradient71"
       gradientUnits="userSpaceOnUse"
       x1="467.69592"
       y1="440.50116"
       x2="556.60504"
       y2="440.50116" /><linearGradient
       inkscape:collect="always"
       xlink:href="#swatch5"
       id="linearGradient72"
       gradientUnits="userSpaceOnUse"
       x1="467.69592"
       y1="440.50116"
       x2="556.60504"
       y2="440.50116" /><linearGradient
       inkscape:collect="always"
       xlink:href="#swatch5"
       id="linearGradient73"
       gradientUnits="userSpaceOnUse"
       x1="467.69592"
       y1="440.50116"
       x2="556.60504"
       y2="440.50116" /><linearGradient
       inkscape:collect="always"
       xlink:href="#swatch5"
       id="linearGradient74"
       gradientUnits="userSpaceOnUse"
       x1="467.69592"
       y1="440.50116"
       x2="556.60504"
       y2="440.50116" /><linearGradient
       inkscape:collect="always"
       xlink:href="#swatch5"
       id="linearGradient75"
       gradientUnits="userSpaceOnUse"
       x1="467.69592"
       y1="440.50116"
       x2="556.60504"
       y2="440.50116" /><linearGradient
       inkscape:collect="always"
       xlink:href="#swatch136"
       id="linearGradient76"
       gradientUnits="userSpaceOnUse"
       x1="112.31167"
       y1="664.47375"
       x2="788.46582"
       y2="664.47375" /><linearGradient
       inkscape:collect="always"
       xlink:href="#swatch136"
       id="linearGradient77"
       gradientUnits="userSpaceOnUse"
       x1="112.31167"
       y1="664.47375"
       x2="788.46582"
       y2="664.47375" /></defs><g
     inkscape:label="Capa 1"
     inkscape:groupmode="layer"
     id="layer1"><text
       xml:space="preserve"
       style="font-style:normal;font-variant:normal;font-weight:bold;font-stretch:normal;font-size:38.8056px;font-family:'ITC Serif Gothic';-inkscape-font-specification:'ITC Serif Gothic Bold';text-align:center;letter-spacing:0px;text-anchor:middle;opacity:1;fill:url(#linearGradient5);fill-opacity:1"
       x="168.01393"
       y="31.622999"
       id="text6"><tspan
         sodipodi:role="line"
         id="tspan6"
         style="font-size:38.8056px;letter-spacing:0px;fill:url(#linearGradient5);fill-opacity:1"
         x="168.01393"
         y="31.622999">SKELETOR SYNTAX</tspan></text><text
       xml:space="preserve"
       style="font-style:normal;font-variant:normal;font-weight:bold;font-stretch:normal;font-size:10.5833px;font-family:'ITC Serif Gothic';-inkscape-font-specification:'ITC Serif Gothic Bold';text-align:center;letter-spacing:0px;text-anchor:middle;opacity:1;fill:url(#linearGradient6);fill-opacity:1"
       x="305.47757"
       y="80.670593"
       id="text15"><tspan
         sodipodi:role="line"
         id="tspan15"
         style="font-size:10.5833px;fill:url(#linearGradient6);fill-opacity:1"
         x="305.47757"
         y="80.670593">VSCODE</tspan></text><text
       xml:space="preserve"
       style="font-style:normal;font-variant:normal;font-weight:bold;font-stretch:normal;font-size:10.5833px;font-family:'ITC Serif Gothic';-inkscape-font-specification:'ITC Serif Gothic Bold';text-align:center;letter-spacing:0px;text-anchor:middle;opacity:1;fill:url(#linearGradient7);fill-opacity:1"
       x="302.24438"
       y="69.417145"
       id="text15-5"><tspan
         sodipodi:role="line"
         id="tspan15-5"
         style="font-size:10.5833px;fill:url(#linearGradient7);fill-opacity:1"
         x="302.24438"
         y="69.417145">TEXTMATE</tspan></text><text
       xml:space="preserve"
       style="font-style:normal;font-variant:normal;font-weight:bold;font-stretch:normal;font-size:10.5833px;font-family:'ITC Serif Gothic';-inkscape-font-specification:'ITC Serif Gothic Bold';text-align:center;letter-spacing:0px;text-anchor:middle;opacity:1;fill:url(#linearGradient8);fill-opacity:1"
       x="304.95901"
       y="91.924034"
       id="text17"><tspan
         sodipodi:role="line"
         id="tspan17"
         style="font-size:10.5833px;fill:url(#linearGradient8);fill-opacity:1"
         x="304.95901"
         y="91.924034">RSTUDIO</tspan></text><text
       xml:space="preserve"
       style="font-style:normal;font-variant:normal;font-weight:bold;font-stretch:normal;font-size:10.5833px;font-family:'ITC Serif Gothic';-inkscape-font-specification:'ITC Serif Gothic Bold';text-align:center;letter-spacing:0px;text-anchor:middle;opacity:1;fill:url(#linearGradient9);fill-opacity:1"
       x="283.05685"
       y="46.677429"
       id="text18"><tspan
         sodipodi:role="line"
         id="tspan18"
         style="font-size:10.5833px;fill:url(#linearGradient9);fill-opacity:1"
         x="283.05685"
         y="46.677429">PYGMENTS/JEKYLL</tspan></text><text
       xml:space="preserve"
       style="font-style:normal;font-variant:normal;font-weight:bold;font-stretch:normal;font-size:10.5833px;font-family:'ITC Serif Gothic';-inkscape-font-specification:'ITC Serif Gothic Bold';text-align:center;letter-spacing:0px;text-anchor:middle;opacity:1;fill:url(#linearGradient10);fill-opacity:1"
       x="294.44449"
       y="58.047287"
       id="text19"><tspan
         sodipodi:role="line"
         id="tspan19"
         style="font-size:10.5833px;fill:url(#linearGradient10);fill-opacity:1"
         x="294.44449"
         y="58.047287">HIGHLIGHT JS</tspan></text></g><g
     style="clip-rule:evenodd;fill-rule:evenodd;image-rendering:optimizeQuality;shape-rendering:geometricPrecision;text-rendering:geometricPrecision"
     id="g10"
     transform="matrix(0.17877252,0,0,0.17877252,88.8857,37.041669)"><g
       id="g62"
       style="clip-rule:evenodd;display:inline;opacity:1;fill:url(#linearGradient130);fill-opacity:1;fill-rule:evenodd;image-rendering:optimizeQuality;shape-rendering:geometricPrecision;text-rendering:geometricPrecision"
       inkscape:label="body"
       transform="matrix(1.2145749,0,0,1.1782662,-171.86235,-214.49693)"><path
         id="path85"
         style="clip-rule:evenodd;display:inline;opacity:1;fill:url(#linearGradient45);fill-opacity:1;fill-rule:nonzero;image-rendering:optimizeQuality;shape-rendering:geometricPrecision;text-rendering:geometricPrecision"
         d="m 385.23401,541.14629 c -31.49253,0.64591 -70.87255,4.54852 -86.74267,4.54852 -0.94299,0 -32.78769,2.6959 -38.39114,3.18099 -29.74175,2.57476 -62.2614,12.96603 -87.56278,45.11893 -6.72448,8.54542 -31.03742,58.91994 -31.03742,87.35359 0.0653,42.88242 0.0119,85.76822 0,128.65169 h 741 c -0.0119,-42.88347 -0.0653,-85.76927 0,-128.65169 0,-28.43365 -24.31294,-78.80817 -31.03741,-87.35359 -25.30139,-32.1529 -57.82104,-42.54417 -87.56279,-45.11893 -5.60345,-0.48509 -37.44814,-3.18099 -38.39113,-3.18099 -15.87013,0 -55.25014,-3.90261 -86.74267,-4.54852 -9.36842,-0.19215 -27.08836,8.82457 -56.0317,11.69621 -77.72453,7.7115 -77.08714,7.51726 -141.4686,0 -28.89233,-3.3735 -46.66327,-11.88836 -56.03169,-11.69621 z"
         sodipodi:nodetypes="ssssccccsssssss" /></g><g
       id="g2"
       style="display:inline;opacity:1;fill:url(#linearGradient131);fill-opacity:1"
       inkscape:label="hoodie"
       transform="matrix(1.2145762,0,0,1.2269417,-171.86253,-241.09404)"><path
         d="m 511.49949,196.5 c -14.25674,0.806 -26.92289,5.63946 -37.99872,14.50029 -17.83167,15.49975 -32.33372,33.66542 -43.50154,54.49908 -3.487,0.73891 -6.98611,1.5739 -10.4991,2.50081 -3.20199,1.702 -5.53502,4.20129 -6.99993,7.49928 -4.661,26.3205 -9.49414,52.65556 -14.49998,79.00105 -11.45183,52.01715 -27.11905,102.68504 -47.00071,151.99919 -1.81591,6.27684 -3.31538,12.61066 -4.49938,19.00049 -9.73883,2.414 -19.40612,5.08021 -28.99996,7.99912 -1.91491,-0.28399 -3.58049,0.0503 -4.99949,1.00129 -3.95099,-6.77992 -9.61869,-11.6143 -17.00053,-14.5003 -19.35467,-2.04162 -29.82737,5.80089 -31.62272,23.29694 l -95.21068,14.89667 0.002,0.0207 a 10.237466,17.380623 80.262497 0 0 -1.04364,0.14168 10.237466,17.380623 80.262497 0 0 -15.86523,12.84635 10.237466,17.380623 80.262497 0 0 18.47031,7.4738 10.237466,17.380623 80.262497 0 0 1.0356,-0.20535 l 0.005,0.043 99.20834,-15.52227 c 0.18016,1.09797 0.51583,2.29501 1.13048,3.67243 13.05552,29.25723 39.50587,62.46508 79.86485,88.24979 21.59521,14.57966 45.60277,25.94439 72.02551,34.08659 -11.99974,6.66691 -24.00006,13.33336 -35.99989,20.00019 -18.99565,11.91982 -42.84717,24.19408 -51.50008,42.4996 -2.66326,5.6342 -2.19406,5.70133 -3.20811,10.51586 -0.23886,1.13406 0.18588,8.74916 0.46634,9.87274 1.33931,14.52597 13.6634,25.90752 28.68639,25.9076 15.80063,-0.39661 22.01055,-11.67731 32.20162,-21.31985 27.719,-26.7315 71.90172,-43.03659 119.6614,-43.05834 48.50779,0.0225 93.32524,16.84145 120.95108,44.32228 0.14083,0.1401 0.42989,0.37586 0.58694,0.5285 0.47792,0.52044 0.68367,0.71989 1.1546,1.23051 0.40858,0.29584 0.73354,0.53327 1.12404,0.823 1.4122,1.29145 2.70224,2.53505 4.1247,3.71859 8.41568,7.00233 13.63341,13.60955 24.62601,13.75531 15.91753,-8e-5 28.82138,-12.77388 28.82146,-28.53099 -0.12465,-7.9365 -3.11414,-14.99962 -8.61927,-20.77065 -1.61577,-1.69386 -3.65613,-4.40119 -6.11549,-7.18409 -12.77222,-14.45222 -30.91863,-26.98216 -52.79298,-36.79435 -8.84597,-5.3155 -17.84192,-10.41008 -27.16836,-15.01606 19.00966,-6.16992 37.34419,-14.00386 55.00086,-23.5007 17.46636,-9.53868 33.17245,-20.65908 47.18242,-33.30499 27.68045,-23.11376 45.91712,-48.50974 52.7978,-69.59472 l 98.51526,15.41402 0.006,-0.043 a 17.380623,10.237466 9.7375028 0 0 1.0356,0.20535 17.380623,10.237466 9.7375028 0 0 18.47031,-7.4738 17.380623,10.237466 9.7375028 0 0 -15.86523,-12.84635 h -0.002 a 17.380623,10.237466 9.7375028 0 0 -1.04203,-0.14168 l 0.002,-0.0207 -94.71057,-14.81867 c -0.19667,-8.0384 -3.62174,-14.84589 -10.39136,-20.37586 -15.76366,-7.26592 -28.42889,-3.7658 -37.99872,10.49993 -15.54467,-2.35991 -30.87882,-5.6931 -46.00048,-10.00009 -0.33301,-0.667 -0.66722,-1.33238 -1.00022,-1.99938 0.82792,-3.804 1.49544,-7.63664 2.00044,-11.49963 -0.855,-9.27283 -2.35599,-18.43963 -4.501,-27.49946 -8.28882,-23.82865 -15.9538,-47.82946 -22.99863,-72.00003 C 632.66485,376.11723 624.33083,341.78319 616,307.50071 612.19601,297.08889 608.19656,286.75557 604.00057,276.50074 590.91174,253.79509 575.07742,233.29431 556.49976,215.00065 543.52393,203.84382 528.52315,197.67599 511.49949,196.5 Z"
         style="display:inline;opacity:1;fill:url(#linearGradient46);fill-opacity:1;fill-rule:nonzero"
         id="path117" /></g><g
       id="g58"
       style="clip-rule:evenodd;display:inline;fill:url(#linearGradient132);fill-rule:evenodd;image-rendering:optimizeQuality;shape-rendering:geometricPrecision;text-rendering:geometricPrecision"
       inkscape:label="ribbon"
       transform="matrix(1.2145762,0,0,1.2269417,-171.86253,-241.09404)"><path
         id="path58"
         style="display:inline;opacity:1;fill:url(#linearGradient47);fill-opacity:1"
         d="M 572.75391,615.31836 C 570.28247,615.22157 567.53156,615.7825 564.5,617 l -4.5,4.5 c -2.29,7.08199 -4.79,14.08201 -7.5,21 -3.701,2.057 -7.367,4.057 -11,6 -11.49599,-8.37499 -24.16301,-11.375 -38,-9 -6.22699,0.874 -11.89401,3.207 -17,7 -1.388,1.372 -3.055,2.372 -5,3 -4.297,-2.149 -8.63,-4.315 -13,-6.5 -1.981,-5.73499 -3.648,-11.56801 -5,-17.5 -2.053,-4.053 -5.053,-7.053 -9,-9 -10.09399,-1.88 -16.094,2.12001 -18,12 0.857,4.741 1.691,9.407 2.5,14 -3.772,1.325 -7.605,2.491 -11.5,3.5 -7.42599,5.41999 -8.926,12.25401 -4.5,20.5 4.491,4.759 9.99101,6.259 16.5,4.5 5.17299,-1.419 10.34001,-2.919 15.5,-4.5 4.232,2.2 8.398,4.533 12.5,7 1.306,5.55399 1.306,11.05401 0,16.5 -4.482,2.325 -8.982,4.492 -13.5,6.5 -8.27599,-2.962 -16.77601,-4.462 -25.5,-4.5 -8.92599,6.18399 -10.25999,13.68401 -4,22.5 4.633,3.15 9.63301,5.484 15,7 -3.877,7.11999 -3.877,14.12001 0,21 14.18699,7.90599 22.854,3.90598 26,-12 0.118,-3.188 0.951,-6.188 2.5,-9 4.087,-3.296 8.587,-5.963 13.5,-8 3.403,2.686 6.736,5.353 10,8 4.079,2.104 8.412,3.437 13,4 h 5 c 8.39899,0.743 16.39901,-0.59 24,-4 2.628,-1.988 5.295,-3.988 8,-6 8.27799,1.283 13.278,5.95001 15,14 1.363,3.162 2.197,6.496 2.5,10 6.67099,9.50099 14.50501,10.50099 23.5,3 1.847,-2.7 2.847,-5.7 3,-9 -0.798,-4.39 -1.798,-8.723 -3,-13 8.33299,-0.242 14.499,-3.90801 18.5,-11 1.354,-10.64899 -3.31301,-16.649 -14,-18 -5.39299,0.686 -10.56,2.186 -15.5,4.5 -2.667,0.667 -5.333,0.667 -8,0 -1.836,-1.419 -3.836,-2.586 -6,-3.5 -0.886,-0.825 -1.219,-1.825 -1,-3 v -14 c -0.285,-1.788 0.048,-3.455 1,-5 2.164,-0.914 4.164,-2.081 6,-3.5 2,-0.667 4,-0.667 6,0 5.89499,1.945 11.89501,3.445 18,4.5 11.42299,-2.082 15.589,-8.74901 12.5,-20 -1.046,-1.59 -2.213,-3.09 -3.5,-4.5 -4.279,-1.653 -8.612,-3.153 -13,-4.5 -0.333,-0.667 -0.667,-1.333 -1,-2 1.804,-4.888 2.637,-9.88801 2.5,-15 -2.72662,-6.57456 -6.80894,-9.96871 -12.24609,-10.18164 z m -60.62696,38.0957 C 525.02249,653.38629 534.31313,659.4147 540,671.5 c 4.684,19.30698 -2.14902,32.30701 -20.5,39 -3.125,0.979 -6.458,1.313 -10,1 -4.727,-0.409 -9.06,-1.909 -13,-4.5 -12.07599,-9.71899 -15.57599,-21.88601 -10.5,-36.5 4.937,-9.78299 12.77001,-15.45 23.5,-17 0.89175,-0.0557 1.76725,-0.0841 2.62695,-0.0859 z" /></g><g
       id="g31"
       style="clip-rule:evenodd;display:inline;fill:url(#linearGradient133);fill-opacity:1;fill-rule:evenodd;image-rendering:optimizeQuality;shape-rendering:geometricPrecision;text-rendering:geometricPrecision"
       inkscape:label="under hoodie"
       transform="matrix(1.2145762,0,0,1.2269417,-171.86253,-241.09404)"><path
         id="path31"
         style="display:inline;opacity:1;fill:url(#linearGradient48);fill-opacity:1"
         d="m 511.9996,218.5 c -22.08131,0.36874 -40.60777,19.11744 -53.9996,38 -11.57247,16.31725 -20.04095,34.23261 -27,53 -17.51751,47.24183 -23.80004,95.86579 -12,145 8.66596,36.08421 31.97845,62.62033 65.5,78.5 8.7085,4.12535 17.79322,9.29107 27.4996,9.5 8.17848,0.17604 15.82881,-3.18882 23.5004,-7 29.34536,-14.14479 52.1674,-35.37422 65.5,-65 4.81287,-10.69447 6.60366,-22.42847 8.5,-34 1.49466,-9.12046 2.10526,-18.45098 2,-28 -0.0717,-6.50859 -0.63174,-12.81757 -1,-19 -2.48322,-41.68856 -13.39009,-80.6844 -33.5,-117 -24.37476,-44.01731 -46.82327,-54.30354 -65.0004,-54 z"
         sodipodi:nodetypes="sssssasssssss" /></g><g
       id="g6"
       style="clip-rule:evenodd;display:inline;fill:url(#linearGradient134);fill-opacity:1;fill-rule:evenodd;image-rendering:optimizeQuality;shape-rendering:geometricPrecision;text-rendering:geometricPrecision"
       inkscape:label="face"
       transform="matrix(1.2145762,0,0,1.2269417,-171.86253,-241.09404)"><path
         id="path6"
         style="opacity:1;fill:url(#linearGradient49);fill-opacity:1"
         d="m 510.5,241.5 c -3.698,0.052 -7.365,0.386 -11,1 -10.70885,2.356 -20.37515,6.85615 -29,13.5 -20.5877,22.9967 -35.08815,49.49745 -43.5,79.5 -0.333,6.66685 -0.667,13.33315 -1,20 -2.175,9.85085 -4.341,19.68515 -6.5,29.5 -0.39,13.11185 5.61015,21.278 18,24.5 1.175,3.542 1.841,7.209 2,11 1.543,12.2769 2.21,24.6101 2,37 -0.166,4.679 10e-4,9.345 0.5,14 1.045,0.873 1.878,1.873 2.5,3 2.451,2.777 5.451,4.777 9,6 3.345,1.717 7.011,2.384 11,2 7.05983,4.881 13.72617,10.38117 20,16.5 3.293,0.826 6.626,1.326 10,1.5 15.27766,1.649 30.61134,1.149 46,-1.5 6.56383,-6.07083 13.23017,-11.90417 20,-17.5 3.682,0.165 7.348,-10e-4 11,-0.5 0.556,-0.383 0.889,-0.883 1,-1.5 4.197,-1.69 7.697,-4.357 10.5,-8 -0.643,-13.67283 -0.476,-27.34017 0.5,-41 1.544,-5.10591 2.544,-10.43909 3,-16 -0.134,-1.792 0.199,-3.458 1,-5 5.43885,-0.974 9.939,-3.64 13.5,-8 5.31685,-9.56185 5.817,-19.22915 1.5,-29 -1.777,-3.005 -2.777,-6.338 -3,-10 -0.463,-2.982 -0.796,-5.982 -1,-9 -0.811,-7.17785 -1.478,-14.51215 -2,-22 -7.43385,-24.4977 -18.9343,-46.8323 -34.5,-67 -11.10485,-13.21085 -25.2723,-20.878 -42.5,-23 z m -50.86914,96.08594 c 2.62547,-0.0142 5.24846,0.45669 7.86914,1.41406 3.333,1.667 6.667,3.333 10,5 4.208,3.713 8.541,7.213 13,10.5 2.586,1.446 4.92,3.113 7,5 -1.106,2.902 -2.272,5.902 -3.5,9 -10.02889,8.26089 -21.52911,11.761 -34.5,10.5 -6.60089,-2.22 -12.101,-6.05311 -16.5,-11.5 -0.084,-6.99889 1.416,-13.66611 4.5,-20 2.235,-2.791 4.235,-5.791 6,-9 2.04531,-0.59894 4.08883,-0.90304 6.13086,-0.91406 z m 106.14844,0.66015 c 1.53934,-0.008 3.1127,0.0765 4.7207,0.25391 2.586,2.858 4.92,5.858 7,9 1,2.667 2,5.333 3,8 0.662,3.966 0.995,7.966 1,12 -7.95288,9.96688 -18.28712,13.8 -31,11.5 -6.05988,-1.864 -11.72612,-4.53 -17,-8 -3.115,-3.61 -5.115,-7.777 -6,-12.5 1.333,-1 2.667,-2 4,-3 2.59,-0.628 4.923,-1.795 7,-3.5 7.41026,-9.11651 16.50403,-13.70075 27.2793,-13.75391 z M 508.5,368.5 c 2.687,-0.164 5.354,0.003 8,0.5 4.5,5.16685 9,10.33315 13.5,15.5 4.621,8.38585 2.12085,12.552 -7.5,12.5 -3.176,-4.006 -6.509,-7.84 -10,-11.5 -1.688,1.021 -3.021,2.355 -4,4 -1.797,4.298 -4.964,6.964 -9.5,8 -6.72885,-2.634 -8.062,-6.96715 -4,-13 4.281,-5.58985 8.781,-10.92315 13.5,-16 z m -50,42 c 3.179,6.36985 6.846,12.37015 11,18 2.323,-0.558 4.657,-1.225 7,-2 0.1925,-0.443 0.4207,-0.83709 0.68359,-1.18359 0.26289,-0.3465 0.56122,-0.64454 0.89453,-0.89453 0.33332,-0.25 0.70171,-0.45197 1.10547,-0.60547 0.40377,-0.1535 0.84216,-0.25941 1.31641,-0.31641 0.45625,0.28775 0.92422,0.5462 1.40234,0.77344 0.47813,0.22723 0.9668,0.42315 1.4668,0.58984 0.5,0.16669 1.01133,0.30405 1.5332,0.41016 0.52188,0.10611 1.05391,0.18106 1.59766,0.22656 -0.086,-0.996 0.248,-1.829 1,-2.5 3.368,-0.543 6.701,-0.376 10,0.5 3.906,-3.082 8.239,-3.749 13,-2 0.311,0.978 0.978,1.645 2,2 4.377,-3.628 9.044,-3.962 14,-1 3.317,-0.721 6.651,-0.888 10,-0.5 0.881,0.708 1.547,1.542 2,2.5 2.641,-0.763 5.308,-0.93 8,-0.5 2.474,2.724 5.474,4.224 9,4.5 3.418,-5.83685 7.084,-11.50415 11,-17 0.992,7.48193 1.325,15.14807 1,23 -0.92,6.58383 -4.58617,10.584 -11,12 0.322,2.222 -0.345,4.056 -2,5.5 -4.966,1.147 -9.96617,1.98 -15,2.5 -1.183,1.004 -2.516,1.838 -4,2.5 -5.17783,0.076 -10.012,1.243 -14.5,3.5 -3.408,-0.121 -6.242,-1.454 -8.5,-4 -0.607,0.124 -0.94,0.457 -1,1 -2.138,1.475 -4.471,2.475 -7,3 -5.05383,-2.287 -10.38717,-3.454 -16,-3.5 -0.873,-1.045 -1.873,-1.878 -3,-2.5 -5.10083,-0.216 -10.101,-1.05 -15,-2.5 -1.361,-1.584 -2.028,-3.418 -2,-5.5 -1.599,0.268 -2.932,-0.066 -4,-1 -3.77,-2.166 -6.103,-5.5 -7,-10 -0.326,-8.51692 0.007,-16.85008 1,-25 z" /></g><g
       id="g16"
       style="display:inline;opacity:1;fill:url(#linearGradient135);fill-opacity:1"
       inkscape:label="face shadows"
       transform="matrix(1.2145762,0,0,1.2269417,-171.86253,-241.09404)"><path
         id="path16"
         style="display:inline;opacity:0.5;fill:url(#linearGradient12);fill-opacity:1"
         d="m 531.5,355.5 c -1.333,1 -2.667,2 -4,3 -2.742,-1.586 -5.742,-2.753 -9,-3.5 -2.027,-1.396 -2.36,-3.062 -1,-5 3.682,-0.222 7.348,0.111 11,1 0.415,2.026 1.415,3.526 3,4.5 z m -34,4 c -2.08,-1.887 -4.414,-3.554 -7,-5 2.745,0.127 4.745,-1.04 6,-3.5 3.622,-1.106 7.289,-1.439 11,-1 1.333,1.333 1.333,2.667 0,4 -2.706,1.908 -5.706,2.741 -9,2.5 0.237,1.291 -0.096,2.291 -1,3 z m 73,-21 c 7.4,0.97 13.9,3.97 19.5,9 1.164,3.067 0.164,4.733 -3,5 -3.232,-1.55 -6.232,-3.55 -9,-6 -0.399,0.228 -0.565,0.562 -0.5,1 -2.08,-3.142 -4.414,-6.142 -7,-9 z m -117,0 c -1.765,3.209 -3.765,6.209 -6,9 0.065,-0.438 -0.101,-0.772 -0.5,-1 -2.768,2.45 -5.768,4.45 -9,6 -3.392,-0.334 -4.226,-2 -2.5,-5 4.928,-5.131 10.928,-8.131 18,-9 z m 102,-26 c 5.333,0 10.667,0 16,0 0.239,1.967 -0.094,3.801 -1,5.5 -6.764,0.353 -13.43,1.353 -20,3 -6.157,2.579 -12.157,5.413 -18,8.5 -1.766,0.066 -2.766,-0.768 -3,-2.5 0.59,-2.257 1.923,-3.924 4,-5 7.276,-3.476 14.61,-6.642 22,-9.5 z m -102,0 c 15.443,-0.573 29.276,3.76 41.5,13 0.667,1 0.667,2 0,3 -1.726,1.076 -3.559,1.243 -5.5,0.5 -10.624,-6.874 -22.291,-10.541 -35,-11 -2.135,-1.556 -2.468,-3.389 -1,-5.5 z" /></g><g
       id="g27"
       style="display:inline;fill:url(#linearGradient136);fill-opacity:1"
       inkscape:label="teeth"
       transform="matrix(1.2145762,0,0,1.2269417,-171.86253,-241.09404)"><g
         id="g172"
         style="fill:url(#linearGradient74);fill-opacity:1;stroke:url(#linearGradient75);stroke-width:0.491504;stroke-dasharray:none"
         inkscape:label="all"><path
           style="clip-rule:evenodd;display:inline;opacity:1;fill:url(#linearGradient50);fill-opacity:1;fill-rule:evenodd;stroke:url(#linearGradient51);stroke-width:0.491504;stroke-dasharray:none;image-rendering:optimizeQuality;shape-rendering:geometricPrecision;text-rendering:geometricPrecision"
           d="m 468.82617,441.9043 c -0.36851,-0.0504 -0.75268,0.15871 -1.1289,0.37109 C 467.65786,443.8874 468.5,446.5 468.5,446.5 c -0.028,2.082 0.639,3.916 2,5.5 4.899,1.45 9.89902,2.284 15,2.5 0,0 1.27082,-4.45695 1.03906,-8.02734 -0.71566,0.1553 -1.4319,0.28791 -2.15625,0.25 -1.49607,-0.0783 -2.86942,-0.96717 -4.36328,-1.08008 -1.08248,-0.0818 -2.17299,0.47521 -3.24414,0.29883 -1.55074,-0.25536 -2.90943,-1.19828 -4.30859,-1.91407 -1.25088,-0.63993 -2.24853,-1.93256 -3.64063,-2.12304 z"
           id="path138"
           inkscape:label="t12" /><path
           style="clip-rule:evenodd;display:inline;fill:url(#linearGradient52);fill-opacity:1;fill-rule:evenodd;stroke:url(#linearGradient53);stroke-width:0.491504;stroke-dasharray:none;image-rendering:optimizeQuality;shape-rendering:geometricPrecision;text-rendering:geometricPrecision"
           d="m 489.77734,445.97461 c -1.08987,-0.0343 -2.16241,0.26458 -3.23828,0.49805 C 486.77088,450.04306 485.5,454.5 485.5,454.5 c 1.127,0.622 2.127,1.455 3,2.5 2.81687,0.0231 6.10139,0.37918 8.77734,0.9668 0,0 0.0263,-1.3685 0.0254,-2.05274 -10e-4,-1.09352 -0.0768,-2.18616 -0.0488,-3.27929 0.0285,-1.1124 0.2207,-3.33204 0.2207,-3.33204 0.0454,-0.68544 0.0228,-1.14346 0.0156,-1.63281 -0.90444,-0.23058 -1.80584,-0.47842 -2.71679,-0.67969 -1.65953,-0.36664 -3.29739,-0.96212 -4.9961,-1.01562 z"
           id="path140"
           inkscape:label="t11" /><path
           id="path159"
           style="clip-rule:evenodd;display:inline;fill:url(#linearGradient54);fill-opacity:1;fill-rule:evenodd;stroke:url(#linearGradient55);stroke-width:0.491504;stroke-dasharray:none;image-rendering:optimizeQuality;shape-rendering:geometricPrecision;text-rendering:geometricPrecision"
           d="m 497.55664,447.68555 -0.01,0.96679 -0.22071,3.74805 0.0234,1.89844 -0.0469,2.55859 0.0723,1.0918 c 2.31265,0.57141 4.91879,1.55243 7.125,2.55078 2.529,-0.525 4.862,-1.525 7,-3 0.0584,-0.52862 0.38024,-0.85483 0.95703,-0.98633 l 0.002,-0.0566 0.0117,-0.73242 -0.15234,-1.12695 -0.0156,-1.52149 -0.0898,-2.02539 -0.44141,-1.98047 c -0.98085,0.0822 -1.96042,0.14342 -2.94336,0.11914 -1.54428,-0.0381 -3.88168,0.14341 -5.41791,-0.0415 -1.54088,-0.18549 -2.28055,-0.73779 -3.80669,-1.00535 -0.68907,-0.12081 -1.36851,-0.28485 -2.04688,-0.45703 z"
           inkscape:label="t10"
           sodipodi:nodetypes="cccccccccccccccsssc" /><path
           id="path217"
           style="clip-rule:evenodd;display:inline;opacity:1;fill:url(#linearGradient56);fill-opacity:1;fill-rule:evenodd;stroke:url(#linearGradient57);stroke-width:0.491504;stroke-dasharray:none;image-rendering:optimizeQuality;shape-rendering:geometricPrecision;text-rendering:geometricPrecision"
           d="m 511.77148,449.07031 0.44141,1.98047 0.0898,2.02539 0.0156,1.52149 0.15234,1.12695 -0.0117,0.73242 -0.002,0.0547 c 0.0149,-0.003 0.0278,-0.009 0.043,-0.0117 2.258,2.546 5.092,3.879 8.5,4 2.19851,-1.10562 4.48138,-1.94887 6.8457,-2.53125 0,0 -0.13431,-0.0503 -0.16601,-0.0625 -0.11342,-0.63192 -0.11303,-1.26778 -0.13072,-1.90234 0.16227,-2.03014 0.22676,-4.08337 0.32424,-6.1231 l -0.4238,-1.67188 c 0,0 -2.56826,-0.0694 -3.85239,-0.10415 -0.90728,-0.0245 -1.81464,-0.10107 -2.72183,-0.0736 -1.58455,0.048 -3.19022,0.0714 -4.73759,0.41598 -0.56795,0.12648 -1.06686,0.49569 -1.63936,0.59964 -0.89427,0.16238 -1.56198,-0.37001 -2.72657,0.0234 z m 22.74219,7.95703 c -0.31428,0.0132 -0.62777,0.0314 -0.93945,0.0527 0.31824,-0.0218 0.63806,-0.0395 0.95898,-0.0527 -0.006,2.7e-4 -0.0131,-2.7e-4 -0.0195,0 z m -5.67187,0.71289 c -0.11361,0.0242 -0.22661,0.0507 -0.33985,0.0762 0.11334,-0.0254 0.22614,-0.0519 0.33985,-0.0762 z m -24.83399,2.54297 c -0.003,0.006 -0.007,0.0131 -0.01,0.0195 0.16566,0.0723 0.33689,0.12257 0.50195,0.19727 -0.16077,-0.0727 -0.32744,-0.14438 -0.49219,-0.2168 z"
           sodipodi:nodetypes="scccccccccccccaaaacsccscccccccccc"
           inkscape:label="t09" /><path
           id="path141"
           style="clip-rule:evenodd;display:inline;fill:url(#linearGradient58);fill-opacity:1;fill-rule:evenodd;stroke:url(#linearGradient59);stroke-width:0.491504;stroke-dasharray:none;image-rendering:optimizeQuality;shape-rendering:geometricPrecision;text-rendering:geometricPrecision"
           inkscape:label="t08"
           d="m 539.47266,445.98633 c -0.52048,0.51267 -1.45297,-0.20145 -2.13408,-0.01 -1.49611,0.42131 -2.70302,0.60036 -4.24678,0.78113 -1.09536,0.12827 -2.37148,0.54233 -3.44804,0.78171 -0.8256,0.18359 -1.35335,0.57081 -2.19454,0.66946 l 0.42383,1.67188 c -0.0975,2.03973 -0.16195,4.09291 -0.32422,6.12305 0.0167,0.59734 0.0206,1.19573 0.11523,1.79101 0.077,0.0737 0.18164,0.17383 0.18164,0.17383 0.21774,-0.0536 0.43713,-0.10314 0.65625,-0.15234 0.0163,-0.004 0.0325,-0.008 0.0488,-0.0117 0.0969,-0.0216 0.19379,-0.0437 0.29102,-0.0645 1.54342,-0.32938 3.11999,-0.54952 4.73242,-0.66015 0.31168,-0.0213 0.62517,-0.0395 0.93945,-0.0527 0.006,-2.7e-4 0.0135,2.7e-4 0.0195,0 0.32093,-0.0133 0.64315,-0.0226 0.9668,-0.0273 1.484,-0.662 2.817,-1.496 4,-2.5 0,0 -0.18156,-0.42598 -0.28711,-2.91211 0.004,-0.27566 0.33484,-1.52997 0.33984,-1.82031 0.0145,-0.85076 0.11022,-1.78655 0.10938,-2.67969 0,-0.27303 -0.11835,-0.60996 -0.11523,-0.90234 -0.0508,-0.0484 -0.08,-0.11062 -0.0742,-0.19922 z"
           sodipodi:nodetypes="cssscccccsccsscccccccc" /><path
           style="clip-rule:evenodd;display:inline;fill:url(#linearGradient60);fill-opacity:1;fill-rule:evenodd;stroke:url(#linearGradient61);stroke-width:0.491504;stroke-dasharray:none;image-rendering:optimizeQuality;shape-rendering:geometricPrecision;text-rendering:geometricPrecision"
           d="m 556.54883,443.77734 c -1.45878,0.7043 -3.55934,0.44599 -5.33789,0.67774 -1.05755,0.1378 -2.10514,0.39654 -3.17128,0.42383 -1.01321,0.0259 -2.02088,-0.33725 -3.03049,-0.24805 -0.87795,0.0776 -1.69583,0.4852 -2.55665,0.67443 -0.91993,0.20223 -2.1751,-0.22821 -2.7826,0.49159 -0.27756,0.32887 -0.008,0.88269 -0.008,1.29101 8.4e-4,0.89314 -0.0949,1.82893 -0.10938,2.67969 -0.005,0.29034 -0.3366,1.54405 -0.3406,1.81971 0.10555,2.48613 0.2876,2.91271 0.2876,2.91271 5.03397,-0.52 10.034,-1.353 15,-2.5 1.655,-1.444 2.322,-3.278 2,-5.5 0.12329,-0.93766 0.1371,-1.84493 0.0488,-2.72266 z"
           id="path149"
           sodipodi:nodetypes="cssssscscccccc"
           inkscape:label="t07" /><path
           style="clip-rule:evenodd;display:inline;fill:url(#linearGradient62);fill-opacity:1;fill-rule:evenodd;stroke:url(#linearGradient63);stroke-width:0.491504;stroke-dasharray:none;image-rendering:optimizeQuality;shape-rendering:geometricPrecision;text-rendering:geometricPrecision"
           d="m 543.48242,423.76758 c -1.67069,0.011 -3.3318,0.25555 -4.98242,0.73242 0,0 -0.69017,7.69097 0.12305,11.60742 0.12744,0.61373 0.57725,1.2145 0.72265,1.82422 0.18634,0.78131 0.1951,1.67832 0.17774,2.56836 0.80198,0.006 1.58098,6.8e-4 2.29297,-0.12109 1.37858,-0.2358 5.35845,-0.30499 6.34961,-0.9961 3.86568,-2.69547 5.90718,-3.55691 6.98437,-3.74219 0.41001,-2.34216 0.52767,-4.72232 0.34961,-7.14062 -3.526,-0.276 -6.526,-1.776 -9,-4.5 -1.0095,-0.16125 -2.01516,-0.23903 -3.01758,-0.23242 z"
           id="path30"
           inkscape:label="t06" /><path
           style="clip-rule:evenodd;display:inline;fill:url(#linearGradient64);fill-opacity:1;fill-rule:evenodd;stroke:url(#linearGradient65);stroke-width:0.491504;stroke-dasharray:none;image-rendering:optimizeQuality;shape-rendering:geometricPrecision;text-rendering:geometricPrecision"
           d="m 532.73828,421.79688 c -2.08591,0.0176 -4.16516,0.2525 -6.23828,0.70312 1.23343,4.0349 1.01133,10.80917 1.02148,15.81055 10e-4,0.48542 0.11407,0.70027 0.10157,1.06445 0.0292,0.44775 0.0568,0.89106 0.0742,1.31445 0.62422,-0.11767 0.77305,-0.14796 1.75195,-0.33007 1.93811,-0.36057 4.38193,0.62307 6.0918,0.31835 1.29963,-0.23163 2.59585,-0.1908 3.82812,-0.17773 -0.007,-0.80327 0.0754,-1.61573 -0.0937,-2.39844 -0.15487,-0.71669 -0.69246,-1.31729 -0.83203,-2.03711 C 537.70931,432.28011 538.5,424.5 538.5,424.5 c -0.453,-0.958 -1.119,-1.792 -2,-2.5 -1.25587,-0.1455 -2.51017,-0.21367 -3.76172,-0.20312 z"
           id="path28"
           inkscape:label="t05" /><path
           style="display:inline;opacity:1;fill:url(#linearGradient66);fill-opacity:1;stroke:url(#linearGradient67);stroke-width:0.491504;stroke-dasharray:none"
           d="m 520.16211,420.50391 c -2.6454,-0.0441 -5.94016,0.8042 -7.51172,2.99414 -0.0583,0.0812 -0.10997,0.16598 -0.16016,0.25 l -0.004,0.0703 -0.25781,6.14258 c -1.1e-4,0.007 10e-5,0.0183 0,0.0254 -0.005,0.37109 0.0313,0.74248 0.0156,1.11328 -0.0161,0.37773 -0.0626,0.75337 -0.10937,1.12891 l -0.125,2.96093 c -7.3e-4,0.0267 -0.003,0.0534 -0.004,0.0801 -0.009,0.30036 -0.0212,0.60013 -0.0371,0.90039 l -0.21484,5.15235 c 0.44678,-0.024 0.89252,-0.025 1.33203,0.0547 0.52104,0.0944 0.94168,0.4983 1.45117,0.64258 0.80959,0.22926 1.66142,0.30115 2.50195,0.33985 0.63591,0.0293 1.2755,-0.0119 1.90821,-0.082 1.58043,-0.17502 3.12683,-0.58044 4.69531,-0.84179 1.21161,-0.20189 2.05511,-0.17912 3.64258,-0.56055 0.65232,-0.15673 -4.68978,0.77728 0.27539,-0.16016 -0.0733,-2.09805 -0.37305,-4.52734 -0.37305,-4.52734 0.274,-4.763 0.2535,-9.1175 -0.6875,-13.6875 -2.16825,-1.29587 -4.28036,-1.9618 -6.33789,-1.99609 z"
           id="path139"
           inkscape:label="t04" /><path
           style="clip-rule:evenodd;display:inline;opacity:1;fill:url(#linearGradient68);fill-opacity:1;fill-rule:evenodd;stroke:url(#linearGradient69);stroke-width:0.491504;stroke-dasharray:none;image-rendering:optimizeQuality;shape-rendering:geometricPrecision;text-rendering:geometricPrecision"
           d="m 505.32422,420.55078 c -2.77509,0.0393 -5.38297,1.02297 -7.82422,2.94922 v 13 2.64844 l 0.0527,1.78906 c 0.93435,0.0607 1.92735,0.14358 2.75391,0.13867 1.19121,-0.007 2.30141,0.44039 3.46289,0.58789 1.09185,0.13866 2.19102,0.3162 3.29102,0.2793 0.77149,-0.0259 1.52135,-0.26901 2.28906,-0.34961 0.79651,-0.0836 1.6032,-0.22841 2.4043,-0.27148 l 0.125,-4.80079 0.24804,-4.89843 0.14844,-3.64649 L 512.5,423.5 c -1.022,-0.355 -1.689,-1.022 -2,-2 -1.78537,-0.65587 -3.51073,-0.97279 -5.17578,-0.94922 z"
           id="path27"
           inkscape:label="t03" /><path
           style="clip-rule:evenodd;display:inline;fill:url(#linearGradient70);fill-opacity:1;fill-rule:evenodd;stroke:url(#linearGradient71);stroke-width:0.491504;stroke-dasharray:none;image-rendering:optimizeQuality;shape-rendering:geometricPrecision;text-rendering:geometricPrecision"
           d="m 491.27344,422.68945 c -1.25321,0.004 -2.51044,0.10693 -3.77344,0.31055 -0.752,0.671 -0.79051,1.62726 -1,2.5 -0.85937,3.58009 -1.14502,8.22909 -1.24219,11 -0.0122,0.34862 -0.0392,0.6735 -0.0762,0.97852 0.062,0.93818 0.615,2.2113 0.53516,3.23242 1.02924,0.11659 2.05753,0.22795 3.09179,0.26758 2.52676,0.0968 4.97289,-0.10852 7.58594,-0.10352 0.33702,6.6e-4 0.75986,0.0366 1.1582,0.0625 L 497.5,439.14844 V 423.5 c -2.06187,-0.5475 -4.13788,-0.8172 -6.22656,-0.81055 z"
           id="path136"
           inkscape:label="t02" /><path
           style="clip-rule:evenodd;display:inline;opacity:1;fill:url(#linearGradient72);fill-opacity:1;fill-rule:evenodd;stroke:url(#linearGradient73);stroke-width:0.491504;stroke-dasharray:none;image-rendering:optimizeQuality;shape-rendering:geometricPrecision;text-rendering:geometricPrecision"
           d="m 480.5,423.5 c -1.897,0.228 -3.23,1.228 -4,3 -2.343,0.775 -4.677,1.442 -7,2 0.1614,1.98338 -0.70307,4.22227 -1.26562,6.36719 0.42466,0.38871 0.84554,0.78539 1.24414,1.04883 1.97597,1.30596 3.34482,3.61338 5.57812,4.40234 2.30865,0.81558 4.89841,-0.0437 7.34375,0.0801 1.08798,0.0551 2.17258,0.18372 3.25586,0.30664 -0.0215,-1.04156 -0.78422,-2.34388 -0.82617,-3.28516 0.21485,-4.29674 0.69794,-8.79673 1.66992,-11.91992 -2.175,-0.182 -4.175,-0.849 -6,-2 z"
           id="path32"
           inkscape:label="t01" /></g></g><g
       id="g121"
       inkscape:label="body shadows"
       transform="translate(-0.38876)"
       style="opacity:0.25;fill:url(#linearGradient137);fill-opacity:1"><path
         id="path118-5"
         style="clip-rule:evenodd;opacity:1;fill:url(#linearGradient76);fill-opacity:1;fill-rule:evenodd;image-rendering:optimizeQuality;shape-rendering:geometricPrecision;text-rendering:geometricPrecision"
         d="m 778.424,588.95899 c 1.19747,-0.0848 2.50331,0.30206 3.32227,1.08789 1.99964,1.91872 2.05699,3.69378 2.45703,6.17578 1.64615,10.2134 6.74712,30.41087 2.79492,61.59375 -4.19078,32.6456 -16.87992,61.58985 -34.0625,82.18359 h -20.38476 c 22.34895,-20.51446 39.39764,-54.15756 44.39062,-93.04883 2.01567,-15.84248 1.76242,-26.13939 -0.41211,-39.50781 -0.62092,-3.81722 -2.89118,-11.54773 -2.26172,-14.2832 0.62947,-2.73547 1.46916,-3.36127 3.01758,-3.95508 0.35325,-0.13547 0.73952,-0.21783 1.13867,-0.24609 z"
         inkscape:label="right" /><path
         id="path118"
         style="opacity:1;fill:url(#linearGradient77);fill-opacity:1;fill-rule:evenodd"
         d="m 122.35352,588.95899 c -1.19747,-0.0848 -2.50331,0.30206 -3.32227,1.08789 -1.99964,1.91872 -2.05699,3.69378 -2.45703,6.17578 -1.64615,10.2134 -6.74712,30.41087 -2.79492,61.59375 4.19078,32.6456 16.87992,61.58985 34.0625,82.18359 h 20.38476 c -22.34895,-20.51446 -39.39764,-54.15756 -44.39062,-93.04883 -2.01567,-15.84248 -1.76242,-26.13939 0.41211,-39.50781 0.62092,-3.81722 2.89118,-11.54773 2.26172,-14.2832 -0.62947,-2.73547 -1.46916,-3.36127 -3.01758,-3.95508 -0.35325,-0.13547 -0.73952,-0.21783 -1.13867,-0.24609 z"
         inkscape:label="left" /></g></g></svg>
