<?xml version="1.0" encoding="UTF-8" standalone="no"?>
<!-- Created with Inkscape (http://www.inkscape.org/) -->

<svg
   width="512"
   height="512"
   viewBox="0 0 512 512"
   version="1.1"
   id="svg1"
   xml:space="preserve"
   inkscape:version="1.3.2 (091e20e, 2023-11-25, custom)"
   sodipodi:docname="icon.svg"
   inkscape:export-filename="icon.png"
   inkscape:export-xdpi="96"
   inkscape:export-ydpi="96"
   xmlns:inkscape="http://www.inkscape.org/namespaces/inkscape"
   xmlns:sodipodi="http://sodipodi.sourceforge.net/DTD/sodipodi-0.dtd"
   xmlns:xlink="http://www.w3.org/1999/xlink"
   xmlns="http://www.w3.org/2000/svg"
   xmlns:svg="http://www.w3.org/2000/svg"><sodipodi:namedview
     id="namedview1"
     pagecolor="#ffffff"
     bordercolor="#000000"
     borderopacity="0.25"
     inkscape:showpageshadow="2"
     inkscape:pageopacity="0.0"
     inkscape:pagecheckerboard="0"
     inkscape:deskcolor="#d1d1d1"
     inkscape:document-units="px"
     inkscape:zoom="0.69042969"
     inkscape:cx="65.90099"
     inkscape:cy="378.74965"
     inkscape:window-width="1920"
     inkscape:window-height="974"
     inkscape:window-x="-11"
     inkscape:window-y="-11"
     inkscape:window-maximized="1"
     inkscape:current-layer="layer1" /><defs
     id="defs1"><linearGradient
       id="swatch3"
       inkscape:swatch="solid"
       inkscape:label="delete"><stop
         style="stop-color:#655e7f;stop-opacity:1;"
         offset="0"
         id="stop3" /></linearGradient><linearGradient
       id="swatch7"
       inkscape:swatch="solid"
       inkscape:label="background"><stop
         style="stop-color:#2b2836;stop-opacity:1;"
         offset="0"
         id="stop7" /></linearGradient><linearGradient
       id="swatch5"
       inkscape:swatch="solid"
       inkscape:label="yellow"><stop
         style="stop-color:#f3e4a2;stop-opacity:1;"
         offset="0"
         id="stop5" /></linearGradient><linearGradient
       id="swatch4"
       inkscape:swatch="solid"
       inkscape:label="bluegray"><stop
         style="stop-color:#7b94a5;stop-opacity:1;"
         offset="0"
         id="stop4" /></linearGradient><linearGradient
       id="swatch2"
       inkscape:swatch="solid"
       inkscape:label="comments"><stop
         style="stop-color:#655e7f;stop-opacity:1;"
         offset="0"
         id="stop2" /></linearGradient><linearGradient
       id="swatch1"
       inkscape:swatch="solid"
       inkscape:label="blue"><stop
         style="stop-color:#93b4ff;stop-opacity:1;"
         offset="0"
         id="stop1" /></linearGradient><clipPath
       clipPathUnits="userSpaceOnUse"
       id="clipPath35"><circle
         style="fill:url(#linearGradient36);fill-opacity:1;fill-rule:evenodd;stroke-width:1.5"
         id="circle36"
         cx="450"
         cy="356"
         r="384"
         inkscape:label="bg" /></clipPath><linearGradient
       inkscape:collect="always"
       xlink:href="#swatch7"
       id="linearGradient36"
       gradientUnits="userSpaceOnUse"
       gradientTransform="matrix(1.5,0,0,1.5,229.48515,-70.908061)"
       x1="-108.9901"
       y1="284.60538"
       x2="403.00989"
       y2="284.60538" /><inkscape:path-effect
       effect="mirror_symmetry"
       start_point="600,0"
       end_point="600,740"
       center_point="600,370"
       id="path-effect41"
       is_visible="true"
       lpeversion="1.2"
       lpesatellites=""
       mode="vertical"
       discard_orig_path="false"
       fuse_paths="false"
       oposite_fuse="false"
       split_items="false"
       split_open="false"
       link_styles="false" /><inkscape:path-effect
       effect="mirror_symmetry"
       start_point="600,0"
       end_point="600,740"
       center_point="600,370"
       id="path-effect40"
       is_visible="true"
       lpeversion="1.2"
       lpesatellites=""
       mode="vertical"
       discard_orig_path="false"
       fuse_paths="false"
       oposite_fuse="false"
       split_items="false"
       split_open="false"
       link_styles="false" /><inkscape:path-effect
       effect="bend_path"
       id="path-effect23"
       is_visible="true"
       lpeversion="1"
       bendpath="m 527.26517,145.6875 10.23825,0.1535 6.0196,1.06072 8.37407,2.00994 8.5463,3.1225 8.31328,4.02917 10.13978,5.54964"
       prop_scale="1.1862028"
       scale_y_rel="false"
       vertical="false"
       hide_knot="false"
       bendpath-nodetypes="ccccccc" /><inkscape:path-effect
       effect="mirror_symmetry"
       start_point="600,55.087891"
       end_point="600,374.05869"
       center_point="600,214.57329"
       id="path-effect11"
       is_visible="true"
       lpeversion="1.2"
       lpesatellites=""
       mode="free"
       discard_orig_path="false"
       fuse_paths="false"
       oposite_fuse="false"
       split_items="false"
       split_open="false"
       link_styles="false" /><inkscape:path-effect
       effect="mirror_symmetry"
       start_point="511.18058,196.5"
       end_point="511.18058,799.62564"
       center_point="511.18058,498.06282"
       id="path-effect10"
       is_visible="true"
       lpeversion="1.2"
       lpesatellites=""
       mode="free"
       discard_orig_path="false"
       fuse_paths="false"
       oposite_fuse="false"
       split_items="false"
       split_open="false"
       link_styles="false" /><inkscape:path-effect
       effect="bend_path"
       id="path-effect9"
       is_visible="true"
       lpeversion="1"
       bendpath="m 403.65225,440.74631 3.39343,-43.68111 21.12377,-58.86835 26.48645,-84.0939 15.15746,-64.4246 5.95103,-32.0166 4.03609,-22.2643 2.69831,-12.81316 2.94729,-21.2776 2.57506,-5.391254 7.82593,-2.635073 25.5278,-5.128059 72.29582,6.719544"
       prop_scale="0.23553013"
       scale_y_rel="false"
       vertical="false"
       hide_knot="false"
       bendpath-nodetypes="ccccccccccccc" /><inkscape:path-effect
       effect="bend_path"
       id="path-effect1"
       is_visible="true"
       lpeversion="1"
       bendpath="M 521.57172,245.79424 H 640.36566"
       prop_scale="1"
       scale_y_rel="false"
       vertical="false"
       hide_knot="false" /><inkscape:path-effect
       effect="bend_path"
       id="path-effect58"
       is_visible="true"
       lpeversion="1"
       bendpath="m 490.49238,-460.42759 c 14.62882,2.84503 37.08131,10.97447 50.91137,15.17349 18.30331,5.55716 34.67494,15.29477 51.63997,23.01412 27.22942,12.3898 53.42378,27.52722 82.03715,40.2976 24.54321,10.95383 49.07707,21.35866 70.93715,29.60986 12.29528,4.64092 31.78832,14.67366 38.06935,20.82055 16.06759,15.72444 9.34513,29.78588 29.76856,41.8506"
       prop_scale="0.64542871"
       scale_y_rel="false"
       vertical="false"
       hide_knot="false"
       bendpath-nodetypes="csssssc" /><inkscape:path-effect
       effect="bend_path"
       id="path-effect57"
       is_visible="true"
       lpeversion="1"
       bendpath="m 499.85757,-432.87753 h 369"
       prop_scale="1"
       scale_y_rel="false"
       vertical="false"
       hide_knot="false" /><inkscape:path-effect
       effect="mirror_symmetry"
       start_point="600,374.12305"
       end_point="600,474.46875"
       center_point="600,424.2959"
       id="path-effect54"
       is_visible="true"
       lpeversion="1.2"
       lpesatellites=""
       mode="free"
       discard_orig_path="false"
       fuse_paths="false"
       oposite_fuse="false"
       split_items="false"
       split_open="false"
       link_styles="false" /><inkscape:path-effect
       effect="mirror_symmetry"
       start_point="600.04302,505.48702"
       end_point="600.04302,667.84892"
       center_point="600.04302,586.66797"
       id="path-effect44"
       is_visible="true"
       lpeversion="1.2"
       lpesatellites=""
       mode="X"
       discard_orig_path="false"
       fuse_paths="false"
       oposite_fuse="false"
       split_items="false"
       split_open="false"
       link_styles="false" /><inkscape:path-effect
       effect="mirror_symmetry"
       start_point="490.1047,586.66783"
       end_point="675.08716,586.66783"
       center_point="582.59593,586.66783"
       id="path-effect39"
       is_visible="true"
       lpeversion="1.2"
       lpesatellites=""
       mode="Y"
       discard_orig_path="false"
       fuse_paths="false"
       oposite_fuse="false"
       split_items="false"
       split_open="false"
       link_styles="false" /><inkscape:path-effect
       effect="bend_path"
       id="path-effect38"
       is_visible="true"
       lpeversion="1"
       bendpath="M 688.56944,333.92609 839.84541,357.5255"
       prop_scale="1"
       scale_y_rel="false"
       vertical="false"
       hide_knot="false"
       bendpath-nodetypes="cc" /><inkscape:path-effect
       effect="mirror_symmetry"
       start_point="600,0"
       end_point="600,740"
       center_point="600,370"
       id="path-effect22"
       is_visible="true"
       lpeversion="1.2"
       lpesatellites=""
       mode="vertical"
       discard_orig_path="false"
       fuse_paths="false"
       oposite_fuse="false"
       split_items="false"
       split_open="false"
       link_styles="false" /><inkscape:path-effect
       effect="bend_path"
       id="path-effect21"
       is_visible="true"
       lpeversion="1"
       bendpath="M 159,458.25 350.15685,431.02639"
       prop_scale="1"
       scale_y_rel="false"
       vertical="false"
       hide_knot="false"
       bendpath-nodetypes="cc" /><inkscape:path-effect
       effect="mirror_symmetry"
       start_point="-0.5,-605"
       end_point="739.5,-605"
       center_point="369.5,-605"
       id="path-effect20"
       is_visible="true"
       lpeversion="1.2"
       lpesatellites=""
       mode="vertical"
       discard_orig_path="false"
       fuse_paths="false"
       oposite_fuse="false"
       split_items="false"
       split_open="false"
       link_styles="false" /><inkscape:path-effect
       effect="mirror_symmetry"
       start_point="369.5,-5"
       end_point="369.5,-1205"
       center_point="369.5,-605"
       id="path-effect19"
       is_visible="true"
       lpeversion="1.2"
       lpesatellites=""
       mode="horizontal"
       discard_orig_path="false"
       fuse_paths="false"
       oposite_fuse="false"
       split_items="false"
       split_open="false"
       link_styles="false" /><inkscape:path-effect
       effect="bend_path"
       id="path-effect18"
       is_visible="true"
       lpeversion="1"
       bendpath="m 390.57651,-331.6331 c 77.11444,-7.16809 134.76025,-79.13854 161.86176,-138.35284 31.04075,-67.82116 25.75454,-129.82246 27.56024,-244.64716"
       prop_scale="0.98691928"
       scale_y_rel="false"
       vertical="false"
       hide_knot="false"
       bendpath-nodetypes="csc" /><inkscape:path-effect
       effect="bend_path"
       id="path-effect17"
       is_visible="true"
       lpeversion="1"
       bendpath="m 390.67651,-331.63309 h 549.422"
       prop_scale="1"
       scale_y_rel="false"
       vertical="false"
       hide_knot="false" /><inkscape:path-effect
       effect="bend_path"
       id="path-effect16"
       is_visible="true"
       lpeversion="1"
       bendpath="m 390.67651,-331.63309 h 549.422"
       prop_scale="1"
       scale_y_rel="false"
       vertical="false"
       hide_knot="false" /><inkscape:path-effect
       effect="mirror_symmetry"
       start_point="600,567.68555"
       end_point="600,797.50073"
       center_point="600,682.59314"
       id="path-effect15"
       is_visible="true"
       lpeversion="1.2"
       lpesatellites=""
       mode="free"
       discard_orig_path="false"
       fuse_paths="false"
       oposite_fuse="false"
       split_items="false"
       split_open="false"
       link_styles="false" /><inkscape:path-effect
       effect="mirror_symmetry"
       start_point="601.60167,568.45144"
       end_point="601.60167,799.0471"
       center_point="601.60167,683.74927"
       id="path-effect8"
       is_visible="true"
       lpeversion="1.2"
       lpesatellites=""
       mode="free"
       discard_orig_path="false"
       fuse_paths="false"
       oposite_fuse="false"
       split_items="false"
       split_open="false"
       link_styles="false" /><inkscape:path-effect
       effect="bend_path"
       id="path-effect7"
       is_visible="true"
       lpeversion="1"
       bendpath="m 304.5,785.47461 c 89.10985,-74.50026 195.43653,-189.73862 295.5,-184.5"
       prop_scale="0.99603871"
       scale_y_rel="false"
       vertical="false"
       hide_knot="false"
       bendpath-nodetypes="cc" /><inkscape:path-effect
       effect="bend_path"
       id="path-effect6"
       is_visible="true"
       lpeversion="1"
       bendpath="M 100,626.97461 H 600"
       prop_scale="1"
       scale_y_rel="false"
       vertical="false"
       hide_knot="false" /><inkscape:path-effect
       effect="bend_path"
       id="path-effect5"
       is_visible="true"
       lpeversion="1"
       bendpath="m 173.9,636.5 c 301.07104,-311.9176 611.87657,-286.69163 852,0"
       prop_scale="1"
       scale_y_rel="false"
       vertical="false"
       hide_knot="false"
       bendpath-nodetypes="cc" /><inkscape:path-effect
       effect="bend_path"
       id="path-effect4"
       is_visible="true"
       lpeversion="1"
       bendpath="m 173.9,636.5 h 852"
       prop_scale="1"
       scale_y_rel="false"
       vertical="false"
       hide_knot="true" /><inkscape:path-effect
       effect="bend_path"
       id="path-effect3"
       is_visible="true"
       lpeversion="1"
       bendpath="m 174,636.5 h 852"
       prop_scale="1"
       scale_y_rel="false"
       vertical="false"
       hide_knot="false" /><inkscape:path-effect
       effect="mirror_symmetry"
       start_point="600,423.11719"
       end_point="600,740"
       center_point="600,581.55859"
       id="path-effect2"
       is_visible="true"
       lpeversion="1.2"
       lpesatellites=""
       mode="free"
       discard_orig_path="false"
       fuse_paths="false"
       oposite_fuse="false"
       split_items="false"
       split_open="false"
       link_styles="false" /><linearGradient
       id="swatch42"
       inkscape:swatch="solid"><stop
         style="stop-color:#65f97f;stop-opacity:1;"
         offset="0"
         id="stop42" /></linearGradient><linearGradient
       id="swatch41"
       inkscape:swatch="solid"><stop
         style="stop-color:#000000;stop-opacity:1;"
         offset="0"
         id="stop41" /></linearGradient><inkscape:path-effect
       effect="mirror_symmetry"
       start_point="598.40341,583.95648"
       end_point="598.40341,746.17532"
       center_point="598.40341,665.0659"
       id="path-effect37"
       is_visible="true"
       lpeversion="1.2"
       lpesatellites=""
       mode="free"
       discard_orig_path="false"
       fuse_paths="false"
       oposite_fuse="false"
       split_items="false"
       split_open="false"
       link_styles="false" /><inkscape:path-effect
       effect="simplify"
       id="path-effect36"
       is_visible="true"
       lpeversion="1.3"
       threshold="14.567931"
       steps="1"
       smooth_angles="358.62069"
       helper_size="2.61"
       simplify_individual_paths="false"
       simplify_just_coalesce="false" /><inkscape:path-effect
       effect="simplify"
       id="path-effect35"
       is_visible="true"
       lpeversion="1.3"
       threshold="0.01"
       steps="31.132184"
       smooth_angles="243.44828"
       helper_size="2.4712644"
       simplify_individual_paths="false"
       simplify_just_coalesce="false" /><inkscape:path-effect
       effect="mirror_symmetry"
       start_point="450.22655,595.9475"
       end_point="450.22655,747"
       center_point="450.22655,671.47375"
       id="path-effect34"
       is_visible="true"
       lpeversion="1.2"
       lpesatellites=""
       mode="free"
       discard_orig_path="false"
       fuse_paths="false"
       oposite_fuse="false"
       split_items="false"
       split_open="false"
       link_styles="false" /><inkscape:path-effect
       effect="mirror_symmetry"
       start_point="609.5253,423.11719"
       end_point="609.5253,739.89844"
       center_point="609.5253,581.50782"
       id="path-effect33"
       is_visible="true"
       lpeversion="1.2"
       lpesatellites=""
       mode="free"
       discard_orig_path="false"
       fuse_paths="false"
       oposite_fuse="false"
       split_items="false"
       split_open="false"
       link_styles="false" /><linearGradient
       inkscape:collect="always"
       xlink:href="#swatch5"
       id="linearGradient1"
       gradientUnits="userSpaceOnUse"
       x1="419.48215"
       y1="371.47449"
       x2="605.40161"
       y2="371.47449"
       gradientTransform="matrix(1.2145762,0,0,1.2269417,-22.399719,-241.09404)" /><clipPath
       clipPathUnits="userSpaceOnUse"
       id="clipPath1"><circle
         style="opacity:0.402;fill:url(#linearGradient2);fill-opacity:1;fill-rule:evenodd;stroke-width:1.477"
         id="circle2"
         cx="600"
         cy="327.17923"
         r="378.11261"
         inkscape:label="bg" /></clipPath><linearGradient
       inkscape:collect="always"
       xlink:href="#swatch7"
       id="linearGradient2"
       gradientUnits="userSpaceOnUse"
       gradientTransform="matrix(1.4770024,0,0,1.4770024,382.86603,-93.18359)"
       x1="-108.9901"
       y1="284.60538"
       x2="403.00989"
       y2="284.60538" /></defs><g
     inkscape:label="Capa 1"
     inkscape:groupmode="layer"
     id="layer1"><circle
       style="fill:#2b2836;fill-opacity:1;fill-rule:evenodd"
       id="circle1"
       cx="256"
       cy="256"
       r="256"
       inkscape:label="bg" /></g><g
     style="clip-rule:evenodd;fill-rule:evenodd;image-rendering:optimizeQuality;shape-rendering:geometricPrecision;text-rendering:geometricPrecision"
     id="g1"
     transform="matrix(0.67704696,0,0,0.67704696,-150.22818,34.484289)"
     inkscape:label="Skeletor"
     clip-path="url(#clipPath1)"><path
       id="path2"
       style="clip-rule:evenodd;display:inline;opacity:1;fill:#93b4ff;fill-opacity:1;fill-rule:evenodd;image-rendering:optimizeQuality;shape-rendering:geometricPrecision;text-rendering:geometricPrecision"
       inkscape:label="body"
       d="m 436.50779,423.11719 c -57.13646,2.87065 -118.88633,15.4165 -175.53515,23.51172 -45.25163,6.46646 -100.04867,30.02995 -126.28321,61.48047 -26.23454,31.45052 -27.75874,56.54365 -28.35742,101.39062 -0.75976,56.91381 24.54562,90.68387 25.20117,93.86719 -7.96003,9.94943 -13.50604,22.67839 -15.96093,36.63281 432.36249,0 -375.01732,-0.10156 484.42773,-0.10156 V 443.25391 c -44.64218,0.93112 -71.05692,-0.65519 -115.05472,-7.95742 -15.95122,-2.6474 -38.03699,-11.36869 -48.43747,-12.1793 z m 326.98438,0 c 57.13646,2.87065 118.88633,15.4165 175.53515,23.51172 45.25163,6.46646 100.04868,30.02995 126.28328,61.48047 26.2345,31.45052 27.7587,56.54365 28.3574,101.39062 0.7597,56.91381 -24.5456,90.68387 -25.2012,93.86719 7.96,9.94943 13.506,22.67839 15.9609,36.63281 -432.36248,0 375.0174,-0.10156 -484.42772,-0.10156 V 443.25391 c 44.64218,0.93112 71.05692,-0.65519 115.05472,-7.95742 15.95122,-2.6474 38.03699,-11.36869 48.43747,-12.1793 z"
       sodipodi:nodetypes="cszsccccsc" /><path
       id="path35"
       style="clip-rule:evenodd;display:inline;opacity:0.2;fill:#2b2836;fill-opacity:1;fill-rule:evenodd;image-rendering:optimizeQuality;shape-rendering:geometricPrecision;text-rendering:geometricPrecision"
       d="m 273.56152,588.95898 c -5.55084,-0.15205 -5.65105,6.67873 -6.36523,10.63282 -2.43221,13.46603 -4.62116,27.09742 -4.53125,40.79492 0.0647,9.85131 1.14517,19.71942 3.39844,29.27148 2.46355,10.44351 5.62691,20.77726 9.85937,30.62696 5.43919,12.65795 9.68368,25.77683 14.75391,38.57617 0.14389,0.36325 0.32748,0.76035 0.48047,1.13867 h 28.27148 c -23.16996,-21.7378 -36.9246,-51.98929 -42.78125,-82.88477 -3.52295,-18.58456 -3.23762,-37.71915 0.2461,-56.44335 0.67002,-3.60124 2.53321,-9.17295 -1.47266,-11.15626 -0.58189,-0.28809 -1.20066,-0.52433 -1.85938,-0.55664 z m 652.87696,0 c -0.65872,0.0323 -1.27749,0.26855 -1.85938,0.55664 -4.00587,1.98331 -2.14268,7.55502 -1.47265,11.15626 3.48371,18.7242 3.76904,37.85879 0.24609,56.44335 C 917.49589,688.01071 903.74125,718.2622 880.57129,740 h 28.27148 c 0.15299,-0.37832 0.33658,-0.77542 0.48047,-1.13867 5.07023,-12.79934 9.31472,-25.91822 14.75391,-38.57617 4.23247,-9.8497 7.39583,-20.18345 9.85937,-30.62696 2.25327,-9.55206 3.33378,-19.42017 3.39844,-29.27148 0.0899,-13.6975 -2.09904,-27.32889 -4.53125,-40.79492 -0.71418,-3.95409 -0.81439,-10.78487 -6.36523,-10.63282 z"
       inkscape:label="body_shadows" /><path
       id="path55"
       style="display:inline;opacity:1;fill:#655e7f;fill-rule:nonzero;stroke-width:1.19098"
       inkscape:label="hoodie"
       d="m 600,1.5 c -34.61758,-0.1532834 -56.06248,14.251951 -77,42.146484 -8.25156,10.993353 -15.69499,24.236444 -21.70898,38.71875 -0.31163,0.750423 -0.16025,1.979367 -0.92383,2.261719 -1.59469,0.589672 -4.63663,1.000846 -6.35352,1.429688 -3.02277,0.755022 -8.18801,1.583284 -10.92578,4.291015 -2.78194,2.751416 -4.44974,4.419564 -5.28711,8.664063 -1.4467,7.333141 -1.93855,14.827901 -3.2539,22.185551 -0.75835,4.24192 -1.842,8.41992 -2.67188,12.64843 -1.45864,7.43226 -2.68741,14.90782 -4.05469,22.35742 -1.94702,10.60829 -3.68833,21.25794 -5.9082,31.8125 -4.50702,21.42908 -9.23826,42.8336 -15.03906,63.94922 -5.71672,20.80954 -12.96988,41.16699 -19.45508,61.75 -2.3006,7.30174 -4.28017,14.71179 -6.90235,21.9043 -1.39359,3.8226 -0.93926,1.37853 -4.68554,11.27148 -3.74629,9.89296 -13.68021,34.84124 -16.61328,48.49805 -0.59457,2.76838 -0.68555,8.4668 -0.68555,8.4668 -12.80087,3.37489 -25.26526,6.90832 -36.95898,10.76562 -0.89518,-2.4587 -1.89964,-4.86279 -3.27344,-7.08398 -2.90374,-4.69482 -6.17737,-9.73772 -11.04688,-12.33789 -5.01409,-2.67743 -11.00376,-4.02581 -16.81054,-3.85938 -1.93563,0.0555 -3.85083,0.2789 -5.70313,0.67774 -6.61959,1.42535 -13.44112,5.21174 -17.16211,10.86914 -3.96295,6.02532 -4.38604,14.08907 -3.6289,21.33594 l -133.26368,18.98046 c -7.56427,1.07728 -12.82198,7.7954 -11.78711,15.0625 1.03496,7.26717 7.95917,12.24916 15.52344,11.17188 l 138.71094,-19.75391 c 1.56491,2.85178 3.17418,5.67175 4.74805,8.45703 10.58502,18.73299 22.65826,37.0954 38.00586,52.17579 28.27522,27.78292 61.98158,50.39889 97.33984,68.32031 13.37767,6.78048 27.72302,11.57548 42.26562,15.49414 -24.36724,12.37252 -46.59514,27.14721 -67.16796,42.62109 -26.85175,20.06544 -51.84316,41.50642 -76.04102,62.85352 C 336.80422,713.23593 321.70287,726.79605 306.5957,740 h 98.54883 c 20.60435,-17.80666 41.16023,-35.13385 62.34375,-50.74219 22.93707,-16.78344 45.92775,-31.87811 69.89844,-42.15625 10.73912,-4.62536 21.41736,-8.35233 31.95117,-10.56445 9.84884,-2.06036 20.40857,-3.0528 30.66211,-3.0918 10.25354,0.039 20.81327,1.03144 30.66211,3.0918 10.53381,2.21212 21.21205,5.93909 31.95117,10.56445 23.97069,10.27814 46.96137,25.37281 69.89844,42.15625 21.18352,15.60834 41.7394,32.93553 62.34375,50.74219 h 98.54883 c -15.10717,-13.20395 -30.20852,-26.76407 -45.68555,-40.39453 -24.19786,-21.3471 -49.18927,-42.78808 -76.04102,-62.85352 -20.57282,-15.47388 -42.80072,-30.24857 -67.16796,-42.62109 14.5426,-3.91866 28.88795,-8.71366 42.26562,-15.49414 35.35826,-17.92142 69.06462,-40.53739 97.33984,-68.32031 15.3476,-15.08039 27.42084,-33.4428 38.00586,-52.17579 1.57387,-2.78528 3.18314,-5.60525 4.74805,-8.45703 l 138.71096,19.75391 c 7.5643,1.07728 14.4885,-3.90471 15.5234,-11.17188 1.035,-7.2671 -4.2228,-13.98522 -11.7871,-15.0625 L 896.05273,424.22266 c 0.75714,-7.24687 0.33405,-15.31062 -3.6289,-21.33594 -3.72099,-5.6574 -10.54252,-9.44379 -17.16211,-10.86914 -7.4091,-1.59535 -15.82818,-0.38827 -22.51367,3.18164 -4.86951,2.60017 -8.14314,7.64307 -11.04688,12.33789 -1.3738,2.22119 -2.37826,4.62528 -3.27344,7.08398 -15.97378,-5.26911 -33.10521,-10.06211 -51.12304,-14.4082 0.73161,-3.40246 1.3373,-6.83192 1.54101,-10.29297 0.38854,-6.60125 0.009,-10.70337 -0.58593,-14.79883 -0.59513,-4.09545 -1.3493,-9.25445 -2.35743,-13.8164 -1.97902,-8.95541 -4.06232,-17.49306 -7.23242,-26.54688 -8.16395,-23.31629 -15.37656,-47.28657 -22.36328,-71.63672 -7.81599,-27.2403 -13.20217,-57.23947 -21.80078,-88.53125 -17.199,-62.58998 -22.43271,-74.48582 -26.73633,-82.322262 C 700.89618,79.751913 686.62874,59.312608 673.22461,43.646484 657.04435,24.735727 634.61758,1.6532834 600,1.5 Z" /><path
       id="path51"
       style="clip-rule:evenodd;display:inline;opacity:1;fill:#7b94a5;fill-rule:nonzero;stroke-width:0.970949;image-rendering:optimizeQuality;shape-rendering:geometricPrecision;text-rendering:geometricPrecision"
       d="m 528.30469,505.49414 c -1.66354,-0.0486 -3.36898,0.15058 -5.07031,0.62695 l -0.32422,0.0918 c -9.07371,2.54068 -14.49473,11.93313 -12.1543,21.06055 l 2.80859,10.95117 -10.97851,2.81445 c -9.12743,2.34043 -14.42928,11.52979 -11.88867,20.60352 l 0.0898,0.32422 c 2.54068,9.07372 11.93507,14.49472 21.0625,12.15429 l 10.24414,-2.62695 10.58008,-2.71289 20.02148,11.03711 A 48,48 0 0 0 552,587.60547 a 48,48 0 0 0 0.43359,6.05664 l -19.75976,10.89258 -10.58008,-2.71289 -10.24414,-2.62696 c -9.12743,-2.34038 -18.52182,3.08058 -21.0625,12.1543 l -0.0898,0.32422 c -2.54061,9.07373 2.76124,18.26311 11.88867,20.60352 l 10.97851,2.81445 -2.80859,10.95117 c -2.34043,9.12742 3.08059,18.51987 12.1543,21.06055 l 0.32422,0.0918 c 1.70133,0.47637 3.40677,0.67556 5.07031,0.62696 7.20859,-0.2107 13.6316,-5.10157 15.5332,-12.51758 l 2.99609,-11.68164 2.32422,-9.06641 19.40625,-10.69726 A 48,48 0 0 0 600,635.60547 48,48 0 0 0 631.43555,623.87891 l 19.40625,10.69726 2.32422,9.06641 2.99609,11.68164 c 1.9016,7.41601 8.32461,12.30688 15.5332,12.51758 1.66354,0.0486 3.369,-0.15059 5.07031,-0.62696 l 0.32422,-0.0918 c 9.07371,-2.54068 14.49473,-11.93313 12.1543,-21.06055 l -2.80859,-10.95117 10.97851,-2.81445 c 9.12743,-2.34041 14.4293,-11.52979 11.88867,-20.60352 l -0.0898,-0.32422 c -2.54068,-9.07372 -11.93507,-14.49468 -21.0625,-12.1543 l -10.24414,2.62696 -10.58008,2.71289 -19.75976,-10.89258 A 48,48 0 0 0 648,587.60547 a 48,48 0 0 0 -0.65234,-7.81055 l 19.97851,-11.01367 10.58008,2.71289 10.24414,2.62695 c 9.12743,2.34043 18.52182,-3.08057 21.0625,-12.15429 l 0.0898,-0.32422 c 2.54063,-9.07373 -2.76124,-18.26309 -11.88867,-20.60352 l -10.97851,-2.81445 2.80859,-10.95117 c 2.34043,-9.12742 -3.08059,-18.51987 -12.1543,-21.06055 l -0.32422,-0.0918 c -1.70131,-0.47637 -3.40677,-0.67555 -5.07031,-0.62695 -7.20859,0.2107 -13.6316,5.10157 -15.5332,12.51758 l -2.99609,11.68164 -2.32422,9.06641 -20.76563,11.44726 A 48,48 0 0 0 600,539.60547 48,48 0 0 0 570.00586,550.25195 l -20.84766,-11.49218 -2.32422,-9.06641 -2.99609,-11.68164 c -1.9016,-7.41601 -8.32461,-12.30688 -15.5332,-12.51758 z"
       inkscape:label="ribbon" /><circle
       style="clip-rule:evenodd;display:inline;opacity:1;fill:#655e7f;fill-rule:nonzero;image-rendering:optimizeQuality;shape-rendering:geometricPrecision;text-rendering:geometricPrecision"
       id="path52"
       cx="600"
       cy="587.60547"
       r="31.5"
       inkscape:label="ribbon_centre" /><path
       id="path9"
       style="clip-rule:evenodd;display:inline;opacity:1;fill:#2b2836;fill-opacity:1;fill-rule:evenodd;stroke-width:1.22074;image-rendering:optimizeQuality;shape-rendering:geometricPrecision;text-rendering:geometricPrecision"
       inkscape:label="under_hoodie"
       d="m 599.99999,42.562501 c -26.15173,0.691505 -45.64368,8.760217 -64.59179,31.054692 -15.84146,18.639159 -26.84069,44.500917 -35.29297,67.527337 -21.27628,57.9628 -26.40623,115.12162 -12.07421,175.40625 10.52543,44.27311 38.84033,76.83106 79.55468,96.31446 10.19138,4.87694 21.07836,10.88383 32.40429,11.54882 11.32594,-0.66499 22.21293,-6.67188 32.4043,-11.54882 40.71436,-19.4834 69.02926,-52.04135 79.55469,-96.31446 C 726.291,256.26615 721.16105,199.10733 699.88476,141.14453 691.43249,118.11811 680.43325,92.256352 664.5918,73.617193 645.64369,51.322718 626.15174,43.254006 599.99999,42.562501 Z" /><path
       id="path1"
       style="clip-rule:evenodd;display:inline;opacity:1;fill:url(#linearGradient1);fill-opacity:1;fill-rule:evenodd;stroke-width:1.22074;image-rendering:optimizeQuality;shape-rendering:geometricPrecision;text-rendering:geometricPrecision"
       inkscape:label="face"
       d="m 597,55.087891 c -4.49196,0 -8.79576,0.434599 -13.17969,1.351562 -13.04176,2.727889 -25.49246,7.063635 -34.76172,16.564453 -17.8236,18.268859 -31.04586,39.634394 -40.89843,62.953124 -4.70103,11.12619 -9.69563,22.45283 -11.93555,34.58789 -1.48658,8.05375 0.003,16.44024 -1.21484,24.53906 -1.8389,12.23429 -5.99026,24.01892 -7.89454,36.19532 -0.89981,5.75376 0.67221,10.84781 2.53321,15.08008 1.8156,4.12898 4.59962,7.50038 8.34961,10.11718 2.1837,1.52385 4.6955,2.79164 7.53515,3.80274 1.09902,0.39133 2.4562,0.31166 3.44336,1.05859 0.40273,0.30473 1.7923,7.09881 2.42969,13.49609 1.50491,15.10437 2.76115,30.19828 2.42969,45.39844 -0.12523,5.74303 -1.83311,11.99231 0.60742,17.17578 2.20121,4.67519 6.96945,7.98287 11.5918,10.29297 4.78804,2.39293 10.91144,0.88733 15.73632,3.20508 4.86442,2.33672 9.01955,5.83775 13.13282,9.27344 4.00305,3.34362 6.69364,8.26522 11.1582,10.9707 3.52866,2.13833 8.06283,1.43664 12.14648,1.83984 7.25826,0.71665 14.52057,1.07519 21.79102,1.06836 7.27045,0.007 14.53276,-0.35171 21.79102,-1.06836 4.08365,-0.4032 8.61782,0.29849 12.14648,-1.83984 4.46456,-2.70548 7.15515,-7.62708 11.1582,-10.9707 4.11327,-3.43569 8.2684,-6.93672 13.13282,-9.27344 4.82488,-2.31775 10.94828,-0.81215 15.73632,-3.20508 4.62235,-2.3101 9.39059,-5.61778 11.5918,-10.29297 2.44053,-5.18347 0.73265,-11.43275 0.60742,-17.17578 -0.33146,-15.20016 0.92478,-30.29407 2.42969,-45.39844 0.63739,-6.39728 2.02696,-13.19136 2.42969,-13.49609 0.98716,-0.74693 2.34434,-0.66726 3.44336,-1.05859 2.83965,-1.0111 5.35145,-2.27889 7.53515,-3.80274 3.74999,-2.6168 6.53401,-5.9882 8.34961,-10.11718 1.861,-4.23227 3.43302,-9.32632 2.53321,-15.08008 -1.90428,-12.1764 -6.05564,-23.96103 -7.89454,-36.19532 -1.21755,-8.09882 0.27174,-16.48531 -1.21484,-24.53906 -2.23992,-12.13506 -7.23452,-23.4617 -11.93555,-34.58789 C 681.98727,112.6383 668.76501,91.272765 650.94141,73.003906 641.67215,63.503088 629.22145,59.167342 616.17969,56.439453 611.79576,55.52249 607.49196,55.087891 603,55.087891 h -3 z M 531.88672,172.98047 c 1.32368,-0.0486 2.7306,0.12981 3.9707,0.12305 3.18884,-0.0174 6.45723,0.35621 9.55664,1.73632 4.14334,1.84497 8.46696,3.48294 12.14649,6.13477 5.55436,4.00303 10.20181,9.09098 15.78906,12.88281 2.98485,2.02571 5.97566,3.81953 8.50195,6.13477 -1.34332,3.56056 -1.3905,8.12625 -4.25,11.04101 -11.09718,11.31174 -26.3239,15.68212 -41.90429,12.88282 -8.3339,-1.49734 -17.16537,-6.05017 -20.03907,-14.10938 -2.88428,-8.08896 1.15314,-17.06694 5.46485,-24.53906 2.18399,-3.7849 4.13224,-7.85601 7.28711,-11.04102 0.91155,-0.92025 2.15288,-1.19747 3.47656,-1.24609 z m 136.22656,0 c 1.32368,0.0486 2.56501,0.32584 3.47656,1.24609 3.15487,3.18501 5.10312,7.25612 7.28711,11.04102 4.31171,7.47212 8.34913,16.4501 5.46485,24.53906 -2.8737,8.05921 -11.70517,12.61204 -20.03907,14.10938 -15.58039,2.7993 -30.80711,-1.57108 -41.90429,-12.88282 -2.8595,-2.91476 -2.90668,-7.48045 -4.25,-11.04101 2.52629,-2.31524 5.5171,-4.10906 8.50195,-6.13477 5.58725,-3.79183 10.2347,-8.87978 15.78906,-12.88281 3.67953,-2.65183 8.00315,-4.2898 12.14649,-6.13477 3.09941,-1.38011 6.3678,-1.75372 9.55664,-1.73632 1.2401,0.007 2.64702,-0.17167 3.9707,-0.12305 z m -69.24609,37.75781 c 0.40524,-0.0246 1.89013,-0.0228 2.26562,0 1.38342,0.0841 2.3554,0.21482 3.6543,0.29492 5.73156,6.229 11.41123,12.61707 16.39648,19.63282 5.15261,7.25119 3.84216,14.70258 -4.85742,15.94921 -5.59685,0.80204 -7.99949,-5.33939 -11.53906,-9.8164 -1.64608,-2.08204 -2.39057,-4.73544 -4.78711,-4.90625 -2.39654,0.17081 -3.14103,2.82421 -4.78711,4.90625 -3.53957,4.47701 -5.94221,10.61844 -11.53906,9.8164 -8.69958,-1.24663 -10.01003,-8.69802 -4.85742,-15.94921 4.98525,-7.01575 10.66492,-13.40382 16.39648,-19.63282 1.2989,-0.0801 2.27088,-0.21083 3.6543,-0.29492 z m -64.38281,51.82813 C 538.34549,270.38181 542.95468,278.09253 548,285 v 15 h 104 v -15 c 5.04532,-6.90747 9.65451,-14.61819 13.51562,-22.43359 1.20658,9.99944 2.18328,20.25958 1.21485,30.67187 -0.52117,5.60352 -4.0575,9.39273 -8.50195,12.26953 -1.45301,0.94051 -2.88768,1.22852 -4.85743,1.22852 H 546.62891 c -1.96975,0 -3.40442,-0.28801 -4.85743,-1.22852 -4.44445,-2.8768 -7.98078,-6.66601 -8.50195,-12.26953 -0.96843,-10.41229 0.008,-20.67243 1.21485,-30.67187 z" /><path
       id="rect19"
       style="clip-rule:evenodd;display:inline;opacity:0.7;fill:#2b2836;fill-rule:evenodd;image-rendering:optimizeQuality;shape-rendering:geometricPrecision;text-rendering:geometricPrecision"
       d="m 529.73308,141.80045 c 0,0 5.43797,-0.10529 8.14073,0.14128 2.52692,0.23053 5.04169,0.65644 7.50934,1.24734 5.63945,1.35042 16.59132,5.23181 16.59132,5.23181 v 0 c 0,0 5.75707,2.69623 8.58231,4.1511 2.7121,1.39661 5.35258,2.92811 8.02887,4.39216 1.18162,0.6464 1.29177,2.70419 0.24695,4.61389 -1.04481,1.90968 -2.82115,2.93499 -3.98281,2.29888 -2.63108,-1.44074 -5.1942,-3.0132 -7.89323,-4.32223 -5.27743,-2.55955 -11.68504,-5.41881 -16.19222,-6.88729 -2.42575,-0.75739 -4.89096,-1.39783 -7.37788,-1.92044 -2.06618,-0.43419 -4.14993,-0.82524 -6.25343,-1.00668 -2.54409,-0.21945 -6.13738,-0.0765 -7.66001,-0.0956 -1.29487,-0.0162 -2.31203,-1.78154 -2.28062,-3.95824 0.0314,-2.17671 1.16455,-3.90984 2.54068,-3.88596 z m 140.53384,0 c 0,0 -5.43797,-0.10529 -8.14073,0.14128 -2.52692,0.23053 -5.04169,0.65644 -7.50934,1.24734 -5.63945,1.35042 -16.59132,5.23181 -16.59132,5.23181 v 0 c 0,0 -5.75707,2.69623 -8.58231,4.1511 -2.7121,1.39661 -5.35258,2.92811 -8.02887,4.39216 -1.18162,0.6464 -1.29177,2.70419 -0.24695,4.61389 1.04481,1.90968 2.82115,2.93499 3.98281,2.29888 2.63108,-1.44074 5.1942,-3.0132 7.89323,-4.32223 5.27743,-2.55955 11.68504,-5.41881 16.19222,-6.88729 2.42575,-0.75739 4.89096,-1.39783 7.37788,-1.92044 2.06618,-0.43419 4.14993,-0.82524 6.25343,-1.00668 2.54409,-0.21945 6.13738,-0.0765 7.66001,-0.0956 1.29487,-0.0162 2.31203,-1.78154 2.28062,-3.95824 -0.0314,-2.17671 -1.16455,-3.90984 -2.54068,-3.88596 z"
       sodipodi:nodetypes="caasaasssaaaasssc"
       inkscape:label="eyebrows" /><path
       id="path33"
       style="clip-rule:evenodd;display:inline;opacity:0.7;fill:#2b2836;fill-rule:evenodd;image-rendering:optimizeQuality;shape-rendering:geometricPrecision;text-rendering:geometricPrecision"
       d="m 528.42188,174.2168 c -0.0482,0.003 -0.0924,0.006 -0.14063,0.01 -8.58945,1.06621 -16.39533,4.29128 -21.86328,11.04102 -2.66639,3.29141 -1.03366,6.88966 3.03711,6.13476 4.28876,-0.79533 7.5697,-4.35534 10.93164,-7.36132 0.48461,0.27974 0.68637,0.68916 0.60742,1.22656 0.004,0.0187 -0.004,0.19055 -0.002,0.23633 0.0443,-0.0773 0.0865,-0.15939 0.13086,-0.23633 2.18397,-3.7849 4.13224,-7.85601 7.28711,-11.04102 0.004,-0.004 0.008,-0.006 0.0117,-0.01 z m 62.07617,13.89258 c -3.36037,-0.0487 -6.69084,0.43537 -9.99024,1.45312 -1.50425,2.97858 -3.89347,4.40552 -7.16015,4.29297 7.5e-4,5.1e-4 10e-4,0.001 0.002,0.002 2.95954,2.00854 5.92291,3.79123 8.43555,6.07813 1.04735,-0.86642 1.43426,-2.07367 1.15234,-3.625 4.00081,0.29569 7.645,-0.72541 10.93164,-3.06641 1.61903,-1.63551 1.61903,-3.27269 0,-4.9082 -1.12682,-0.13466 -2.25097,-0.21034 -3.37109,-0.22656 z m 81.08007,-13.89258 c 0.0482,0.003 0.0924,0.006 0.14063,0.01 8.58945,1.06621 16.39533,4.29128 21.86328,11.04102 2.66639,3.29141 1.03366,6.88966 -3.03711,6.13476 -4.28876,-0.79533 -7.5697,-4.35534 -10.93164,-7.36132 -0.48461,0.27974 -0.68637,0.68916 -0.60742,1.22656 -0.004,0.0187 0.004,0.19055 0.002,0.23633 -0.0443,-0.0773 -0.0865,-0.15939 -0.13086,-0.23633 -2.18397,-3.7849 -4.13224,-7.85601 -7.28711,-11.04102 -0.004,-0.004 -0.008,-0.006 -0.0117,-0.01 z m -62.07617,13.89258 c 3.36037,-0.0487 6.69084,0.43537 9.99024,1.45312 1.50425,2.97858 3.89347,4.40552 7.16015,4.29297 -7.5e-4,5.1e-4 -10e-4,0.001 -0.002,0.002 -2.95954,2.00854 -5.92291,3.79123 -8.43555,6.07813 -1.04735,-0.86642 -1.43426,-2.07367 -1.15234,-3.625 -4.00081,0.29569 -7.645,-0.72541 -10.93164,-3.06641 -1.61903,-1.63551 -1.61903,-3.27269 0,-4.9082 1.12682,-0.13466 2.25097,-0.21034 3.37109,-0.22656 z"
       inkscape:label="eyes_shadows" /></g></svg>
