<svg xmlns="http://www.w3.org/2000/svg" xmlns:svg="http://www.w3.org/2000/svg" xmlns:xlink="http://www.w3.org/1999/xlink" style="shape-rendering:geometricPrecision;text-rendering:geometricPrecision;image-rendering:optimizeQuality;fill-rule:evenodd;clip-rule:evenodd" id="svg64" width="1024" height="819" version="1.1"><defs id="defs64"><linearGradient id="swatch136"><stop style="stop-color:#2b2836;stop-opacity:1" id="stop136" offset="0"/></linearGradient><linearGradient id="swatch135"><stop style="stop-color:#000;stop-opacity:1" id="stop135" offset="0"/></linearGradient><linearGradient id="swatch134"><stop style="stop-color:#000;stop-opacity:1" id="stop134" offset="0"/></linearGradient><linearGradient id="swatch133"><stop style="stop-color:#000;stop-opacity:1" id="stop133" offset="0"/></linearGradient><linearGradient id="swatch129"><stop style="stop-color:#f3e4a2;stop-opacity:1" id="stop129" offset="0"/></linearGradient><linearGradient id="swatch128"><stop style="stop-color:#2b2836;stop-opacity:1" id="stop128" offset="0"/></linearGradient><linearGradient id="swatch105"><stop style="stop-color:#f3e4a2;stop-opacity:1" id="stop105" offset="0"/></linearGradient><linearGradient id="swatch104"><stop style="stop-color:#2b2836;stop-opacity:1" id="stop104" offset="0"/></linearGradient><linearGradient id="swatch103"><stop style="stop-color:#2b2836;stop-opacity:1" id="stop103" offset="0"/></linearGradient><linearGradient id="swatch96"><stop style="stop-color:#2b2836;stop-opacity:1" id="stop96" offset="0"/></linearGradient><linearGradient id="swatch89"><stop style="stop-color:#000;stop-opacity:1" id="stop89" offset="0"/></linearGradient><linearGradient id="swatch88"><stop style="stop-color:#000;stop-opacity:1" id="stop88" offset="0"/></linearGradient><linearGradient id="swatch87"><stop style="stop-color:#000;stop-opacity:1" id="stop87" offset="0"/></linearGradient><linearGradient id="swatch86"><stop style="stop-color:#503f77;stop-opacity:.98823529" id="stop86" offset="0"/></linearGradient><linearGradient id="swatch85"><stop style="stop-color:#503f77;stop-opacity:.98823529" id="stop85" offset="0"/></linearGradient><linearGradient id="swatch84"><stop style="stop-color:#655e7f;stop-opacity:.98823529" id="stop84" offset="0"/></linearGradient><linearGradient id="swatch83"><stop style="stop-color:#e9eb6e;stop-opacity:1" id="stop83" offset="0"/></linearGradient><linearGradient id="swatch82"><stop style="stop-color:#7b94a5;stop-opacity:1" id="stop82" offset="0"/></linearGradient><linearGradient id="swatch81"><stop style="stop-color:#655e7f;stop-opacity:.98823529" id="stop81" offset="0"/></linearGradient><linearGradient id="swatch80"><stop style="stop-color:#674d98;stop-opacity:1" id="stop80" offset="0"/></linearGradient><linearGradient id="swatch79"><stop style="stop-color:#000;stop-opacity:1" id="stop79" offset="0"/></linearGradient><linearGradient id="swatch78"><stop style="stop-color:#655e7f;stop-opacity:.99607843" id="stop78" offset="0"/></linearGradient><linearGradient id="swatch77"><stop style="stop-color:#000;stop-opacity:1" id="stop77" offset="0"/></linearGradient><linearGradient id="swatch76"><stop style="stop-color:#93b4ff;stop-opacity:.98823529" id="stop76" offset="0"/></linearGradient><linearGradient id="linearGradient77" x1="504.5" x2="637.297" y1="756" y2="756" gradientUnits="userSpaceOnUse" xlink:href="#swatch76"/><linearGradient id="linearGradient82" x1="503.5" x2="601.228" y1="681.386" y2="681.386" gradientUnits="userSpaceOnUse" xlink:href="#swatch82"/></defs><g id="g62" style="clip-rule:evenodd;display:inline;fill:url(#linearGradient77);fill-rule:evenodd;image-rendering:optimizeQuality;shape-rendering:geometricPrecision;text-rendering:geometricPrecision"><path id="path62" d="m 263.5,548.5 c -46.46065,3.692 -80.96114,25.69228 -103.5,66 -12.15893,25.61579 -18.326,52.61621 -18.5,81 30.38379,16.19286 61.71721,30.19307 94,42 1.527,-0.073 2.527,0.594 3,2 h 2 c 29.96079,11.92493 60.62821,21.59207 92,29 0.006,-0.0783 0.0266,-0.15608 0.0332,-0.23438 8.29161,2.60413 25.68898,5.59005 51.9668,11.23438 41.29172,7.44993 82.95828,11.116 125,11 23.38086,-0.17 46.71414,-1.336 70,-3.5 19.02786,-2.411 38.02814,-4.911 57,-7.5 1.062,-1.075 15.81601,-3.0128 30.8237,-5.87724 L 691.5,766.5 c 29.96679,-7.66793 59.30121,-17.00107 88,-28 h 1 c 1.681,-1.508 3.681,-2.508 6,-3 32.44479,-11.38693 64.11221,-24.72014 95,-40 0.333,-1 0.667,-2 1,-3 -1.993,-22.63686 -6.82607,-44.63714 -14.5,-66 -19.81986,-46.94065 -55.32035,-72.607 -106.5,-77 -21.81286,50.98565 -57.14635,89.82021 -106,116.5 -17.65686,9.49693 -35.99014,17.33007 -55,23.5 l -51.20737,18.42388 c -21.29414,5.63725 -46.17483,6.96339 -65.12698,2.78591 C 453.41538,702.18033 460.06866,702.51685 423.5,689 363.02042,670.36314 315.18672,634.86265 280,582.5 c -5.62393,-11.42793 -11.12407,-22.76207 -16.5,-34 z" style="opacity:.991;fill:url(#linearGradient77)"/></g><g id="g2" style="display:inline;fill:#655e7f;fill-opacity:.98823529"><g id="g52" style="clip-rule:evenodd;display:inline;fill-rule:evenodd;image-rendering:optimizeQuality;shape-rendering:geometricPrecision;text-rendering:geometricPrecision;fill:#655e7f;fill-opacity:.98823529"><path id="path52" d="m 511.5,196.5 c -14.25693,0.806 -26.92407,5.63907 -38,14.5 -17.83186,15.49986 -32.33207,33.66614 -43.5,54.5 -3.487,0.739 -6.987,1.573 -10.5,2.5 -3.202,1.702 -5.535,4.202 -7,7.5 -4.661,26.32079 -9.49407,52.65421 -14.5,79 -11.45193,52.01765 -27.11814,102.68535 -47,152 -1.816,6.27693 -3.316,12.61007 -4.5,19 -9.73893,2.414 -19.40607,5.081 -29,8 -1.915,-0.284 -3.581,0.049 -5,1 -3.951,-6.77993 -9.61807,-11.614 -17,-14.5 -21.21586,-2.238 -31.883,7.26214 -32,28.5 5.37593,11.23793 10.87607,22.57207 16.5,34 35.18672,52.36265 83.02042,87.86314 143.5,106.5 -11.99993,6.66693 -24.00007,13.33307 -36,20 -18.99586,11.91993 -36.16314,26.08614 -51.5,42.5 -1.873,5.63593 -3.04,11.30307 -3.5,17 0.522,3.068 1.355,6.068 2.5,9 8.32893,13.23293 20.16314,17.733 35.5,13.5 5.79893,-2.648 10.466,-6.48207 14,-11.5 16.42086,-15.07186 34.75414,-27.40607 55,-37 -3.877,-6.87993 -3.877,-13.88007 0,-21 -5.36693,-1.516 -10.367,-3.85 -15,-7 -6.25993,-8.81593 -4.92593,-16.31607 4,-22.5 8.72393,0.038 17.22407,1.538 25.5,4.5 4.518,-2.008 9.018,-4.175 13.5,-6.5 1.306,-5.44593 1.306,-10.94607 0,-16.5 -4.102,-2.467 -8.268,-4.8 -12.5,-7 -5.15993,1.581 -10.32707,3.081 -15.5,4.5 -6.50893,1.759 -12.009,0.259 -16.5,-4.5 -4.426,-8.24593 -2.92593,-15.08007 4.5,-20.5 3.895,-1.009 7.728,-2.175 11.5,-3.5 -0.809,-4.593 -1.643,-9.259 -2.5,-14 1.906,-9.87993 7.90607,-13.88 18,-12 3.947,1.947 6.947,4.947 9,9 1.352,5.93193 3.019,11.76507 5,17.5 4.37,2.185 8.703,4.351 13,6.5 1.945,-0.628 3.612,-1.628 5,-3 5.10593,-3.793 10.77307,-6.126 17,-7 13.83693,-2.375 26.50407,0.62507 38,9 3.633,-1.943 7.299,-3.943 11,-6 2.71,-6.91793 5.21,-13.91807 7.5,-21 l 4.5,-4.5 c 9.70093,-3.896 16.534,-1.06293 20.5,8.5 0.137,5.11193 -0.696,10.112 -2.5,15 0.333,0.667 0.667,1.333 1,2 4.388,1.347 8.721,2.847 13,4.5 1.287,1.41 2.454,2.91 3.5,4.5 3.089,11.25093 -1.07707,17.918 -12.5,20 -6.10493,-1.055 -12.10507,-2.555 -18,-4.5 -2,-0.667 -4,-0.667 -6,0 -1.836,1.419 -3.836,2.586 -6,3.5 -0.952,1.545 -1.285,3.212 -1,5 v 14 c -0.219,1.175 0.114,2.175 1,3 2.164,0.914 4.164,2.081 6,3.5 2.667,0.667 5.333,0.667 8,0 4.94,-2.314 10.10707,-3.814 15.5,-4.5 10.68693,1.351 15.354,7.35107 14,18 -4.001,7.09193 -10.16707,10.758 -18.5,11 1.202,4.277 2.202,8.61 3,13 -0.153,3.3 -1.153,6.3 -3,9 19.55186,8.78093 29.79436,14.84986 46.24222,28.73579 1.062,0.925 4.59456,4.83417 7.75778,8.26421 5.49393,3.978 9.14744,7.40933 16.51022,10.12861 7.54854,1.64656 13.82285,2.03839 20.48978,1.37139 10.78293,-4.761 16.783,-12.92707 18,-24.5 -0.414,-10.32493 -4.74707,-18.82507 -13,-25.5 -23.80386,-20.40786 -49.80421,-37.57507 -78,-51.5 19.00986,-6.16993 37.34314,-14.00307 55,-23.5 48.85365,-26.67979 84.18714,-65.51435 106,-116.5 1.766,-10.77893 -1.56807,-19.61207 -10,-26.5 -15.76386,-7.26593 -28.43007,-3.76593 -38,10.5 -15.54486,-2.36 -30.87814,-5.693 -46,-10 -0.333,-0.667 -0.667,-1.333 -1,-2 0.828,-3.804 1.495,-7.637 2,-11.5 -0.855,-9.27293 -2.355,-18.44007 -4.5,-27.5 -8.28893,-23.82886 -15.95507,-47.82914 -23,-72 -8.33593,-34.38379 -16.66907,-68.71721 -25,-103 -3.804,-10.41193 -7.804,-20.74507 -12,-31 -13.08893,-22.70586 -28.92214,-43.20614 -47.5,-61.5 -12.97593,-11.15693 -27.97614,-17.324 -45,-18.5 z m 0,22 c 4.941,1.59 9.94107,3.09 15,4.5 21.78086,11.44793 38.61507,27.94814 50.5,49.5 20.14786,36.29472 31.315,75.29528 33.5,117 0.666,6.15793 1,12.49107 1,19 0.177,9.54793 -0.49,18.88207 -2,28 -1.881,11.57393 -4.715,22.90807 -8.5,34 -14.33193,29.16479 -36.16621,50.83207 -65.5,65 -6.15898,2.94 -12.49202,5.274 -19,7 h -5 c -8.91193,-3.109 -17.91207,-6.275 -27,-9.5 -33.08479,-16.75286 -54.91807,-42.92028 -65.5,-78.5 -9.86293,-49.55065 -5.86286,-97.88535 12,-145 6.61193,-18.88986 15.61207,-36.55614 27,-53 13.57493,-18.75386 31.40914,-31.42107 53.5,-38 z m -30,495 c -4.913,2.037 -9.413,4.704 -13.5,8 -1.549,2.812 -2.382,5.812 -2.5,9 8.32893,-3.777 16.99507,-6.777 26,-9 -3.264,-2.647 -6.597,-5.314 -10,-8 z m 60,2 c -2.705,2.012 -5.372,4.012 -8,6 7.61793,2.651 15.28407,5.318 23,8 -1.722,-8.04993 -6.72207,-12.717 -15,-14 z" style="opacity:1;fill:#655e7f;fill-opacity:.98823529"/></g></g><g id="g58" style="clip-rule:evenodd;display:inline;fill:url(#linearGradient82);fill-rule:evenodd;image-rendering:optimizeQuality;shape-rendering:geometricPrecision;text-rendering:geometricPrecision"><path id="path58" d="M 572.75391,615.31836 C 570.28247,615.22157 567.53156,615.7825 564.5,617 l -4.5,4.5 c -2.29,7.08199 -4.79,14.08201 -7.5,21 -3.701,2.057 -7.367,4.057 -11,6 -11.49599,-8.37499 -24.16301,-11.375 -38,-9 -6.22699,0.874 -11.89401,3.207 -17,7 -1.388,1.372 -3.055,2.372 -5,3 -4.297,-2.149 -8.63,-4.315 -13,-6.5 -1.981,-5.73499 -3.648,-11.56801 -5,-17.5 -2.053,-4.053 -5.053,-7.053 -9,-9 -10.09399,-1.88 -16.094,2.12001 -18,12 0.857,4.741 1.691,9.407 2.5,14 -3.772,1.325 -7.605,2.491 -11.5,3.5 -7.42599,5.41999 -8.926,12.25401 -4.5,20.5 4.491,4.759 9.99101,6.259 16.5,4.5 5.17299,-1.419 10.34001,-2.919 15.5,-4.5 4.232,2.2 8.398,4.533 12.5,7 1.306,5.55399 1.306,11.05401 0,16.5 -4.482,2.325 -8.982,4.492 -13.5,6.5 -8.27599,-2.962 -16.77601,-4.462 -25.5,-4.5 -8.92599,6.18399 -10.25999,13.68401 -4,22.5 4.633,3.15 9.63301,5.484 15,7 -3.877,7.11999 -3.877,14.12001 0,21 14.18699,7.90599 22.854,3.90598 26,-12 0.118,-3.188 0.951,-6.188 2.5,-9 4.087,-3.296 8.587,-5.963 13.5,-8 3.403,2.686 6.736,5.353 10,8 4.079,2.104 8.412,3.437 13,4 h 5 c 8.39899,0.743 16.39901,-0.59 24,-4 2.628,-1.988 5.295,-3.988 8,-6 8.27799,1.283 13.278,5.95001 15,14 1.363,3.162 2.197,6.496 2.5,10 6.67099,9.50099 14.50501,10.50099 23.5,3 1.847,-2.7 2.847,-5.7 3,-9 -0.798,-4.39 -1.798,-8.723 -3,-13 8.33299,-0.242 14.499,-3.90801 18.5,-11 1.354,-10.64899 -3.31301,-16.649 -14,-18 -5.39299,0.686 -10.56,2.186 -15.5,4.5 -2.667,0.667 -5.333,0.667 -8,0 -1.836,-1.419 -3.836,-2.586 -6,-3.5 -0.886,-0.825 -1.219,-1.825 -1,-3 v -14 c -0.285,-1.788 0.048,-3.455 1,-5 2.164,-0.914 4.164,-2.081 6,-3.5 2,-0.667 4,-0.667 6,0 5.89499,1.945 11.89501,3.445 18,4.5 11.42299,-2.082 15.589,-8.74901 12.5,-20 -1.046,-1.59 -2.213,-3.09 -3.5,-4.5 -4.279,-1.653 -8.612,-3.153 -13,-4.5 -0.333,-0.667 -0.667,-1.333 -1,-2 1.804,-4.888 2.637,-9.88801 2.5,-15 -2.72662,-6.57456 -6.80894,-9.96871 -12.24609,-10.18164 z m -60.62696,38.0957 C 525.02249,653.38629 534.31313,659.4147 540,671.5 c 4.684,19.30698 -2.14902,32.30701 -20.5,39 -3.125,0.979 -6.458,1.313 -10,1 -4.727,-0.409 -9.06,-1.909 -13,-4.5 -12.07599,-9.71899 -15.57599,-21.88601 -10.5,-36.5 4.937,-9.78299 12.77001,-15.45 23.5,-17 0.89175,-0.0557 1.76725,-0.0841 2.62695,-0.0859 z" style="display:inline;opacity:1;fill:url(#linearGradient82)"/></g><g id="g55" style="display:inline;fill:#655e7f;fill-opacity:.98823529"><path id="path55" d="m 512.12695,653.41406 c -0.8597,0.002 -1.7352,0.0303 -2.62695,0.0859 -10.72999,1.55 -18.563,7.21701 -23.5,17 -5.07599,14.61399 -1.57599,26.78101 10.5,36.5 3.94,2.591 8.273,4.091 13,4.5 3.542,0.313 6.875,-0.021 10,-1 18.35098,-6.69299 25.184,-19.69302 20.5,-39 -5.68687,-12.0853 -14.97751,-18.11371 -27.87305,-18.08594 z" style="display:inline;opacity:1;fill:#655e7f;fill-opacity:.98823529"/></g><g id="g31" style="clip-rule:evenodd;display:inline;fill-rule:evenodd;image-rendering:optimizeQuality;shape-rendering:geometricPrecision;text-rendering:geometricPrecision;fill:#2b2836;fill-opacity:.98823529"><path id="path31" d="m 511.5,218.5 c -22.09096,6.57898 -39.92502,19.24604 -53.5,38 -11.38798,16.44396 -20.38802,34.11004 -27,53 -17.86296,47.1149 -21.86298,95.4491 -12,145 10.58198,35.57992 32.41506,61.74704 65.5,78.5 9.08798,3.225 18.08802,6.391 27,9.5 h 5 c 6.50798,-1.726 12.84102,-4.06 19,-7 29.33394,-14.16798 51.16802,-35.83506 65.5,-65 3.785,-11.09198 6.619,-22.42602 8.5,-34 1.51,-9.11798 2.177,-18.45202 2,-28 0,-6.50898 -0.334,-12.84202 -1,-19 -2.185,-41.70492 -13.35204,-80.70508 -33.5,-117 -11.88498,-21.55196 -28.71904,-38.05202 -50.5,-49.5 -5.05898,-1.41 -10.059,-2.91 -15,-4.5 z" style="display:inline;opacity:1;fill:#2b2836;fill-opacity:.98823529"/></g><g id="g6" style="clip-rule:evenodd;display:inline;fill-rule:evenodd;image-rendering:optimizeQuality;shape-rendering:geometricPrecision;text-rendering:geometricPrecision;fill:#f3e4a2;fill-opacity:1"><path id="path6" d="M 510.5 241.5 C 506.802 241.552 503.135 241.886 499.5 242.5 C 488.79115 244.856 479.12485 249.35615 470.5 256 C 449.9123 278.9967 435.41185 305.49745 427 335.5 C 426.667 342.16685 426.333 348.83315 426 355.5 C 423.825 365.35085 421.659 375.18515 419.5 385 C 419.11 398.11185 425.11015 406.278 437.5 409.5 C 438.675 413.042 439.341 416.709 439.5 420.5 C 441.043 432.7769 441.71 445.1101 441.5 457.5 C 441.334 462.179 441.501 466.845 442 471.5 C 443.045 472.373 443.878 473.373 444.5 474.5 C 446.951 477.277 449.951 479.277 453.5 480.5 C 456.845 482.217 460.511 482.884 464.5 482.5 C 471.55983 487.381 478.22617 492.88117 484.5 499 C 487.793 499.826 491.126 500.326 494.5 500.5 C 509.77766 502.149 525.11134 501.649 540.5 499 C 547.06383 492.92917 553.73017 487.09583 560.5 481.5 C 564.182 481.665 567.848 481.499 571.5 481 C 572.056 480.617 572.389 480.117 572.5 479.5 C 576.697 477.81 580.197 475.143 583 471.5 C 582.357 457.82717 582.524 444.15983 583.5 430.5 C 585.044 425.39409 586.044 420.06091 586.5 414.5 C 586.366 412.708 586.699 411.042 587.5 409.5 C 592.93885 408.526 597.439 405.86 601 401.5 C 606.31685 391.93815 606.817 382.27085 602.5 372.5 C 600.723 369.495 599.723 366.162 599.5 362.5 C 599.037 359.518 598.704 356.518 598.5 353.5 C 597.689 346.32215 597.022 338.98785 596.5 331.5 C 589.06615 307.0023 577.5657 284.6677 562 264.5 C 550.89515 251.28915 536.7277 243.622 519.5 241.5 L 510.5 241.5 z M 459.63086 337.58594 C 462.25633 337.57174 464.87932 338.04263 467.5 339 C 470.833 340.667 474.167 342.333 477.5 344 C 481.708 347.713 486.041 351.213 490.5 354.5 C 493.086 355.946 495.42 357.613 497.5 359.5 C 496.394 362.402 495.228 365.402 494 368.5 C 483.97111 376.76089 472.47089 380.261 459.5 379 C 452.89911 376.78 447.399 372.94689 443 367.5 C 442.916 360.50111 444.416 353.83389 447.5 347.5 C 449.735 344.709 451.735 341.709 453.5 338.5 C 455.54531 337.90106 457.58883 337.59696 459.63086 337.58594 z M 565.7793 338.24609 C 567.31864 338.23809 568.892 338.32259 570.5 338.5 C 573.086 341.358 575.42 344.358 577.5 347.5 C 578.5 350.167 579.5 352.833 580.5 355.5 C 581.162 359.466 581.495 363.466 581.5 367.5 C 573.54712 377.46688 563.21288 381.3 550.5 379 C 544.44012 377.136 538.77388 374.47 533.5 371 C 530.385 367.39 528.385 363.223 527.5 358.5 C 528.833 357.5 530.167 356.5 531.5 355.5 C 534.09 354.872 536.423 353.705 538.5 352 C 545.91026 342.88349 555.00403 338.29925 565.7793 338.24609 z M 508.5 368.5 C 511.187 368.336 513.854 368.503 516.5 369 C 521 374.16685 525.5 379.33315 530 384.5 C 534.621 392.88585 532.12085 397.052 522.5 397 C 519.324 392.994 515.991 389.16 512.5 385.5 C 510.812 386.521 509.479 387.855 508.5 389.5 C 506.703 393.798 503.536 396.464 499 397.5 C 492.27115 394.866 490.938 390.53285 495 384.5 C 499.281 378.91015 503.781 373.57685 508.5 368.5 z M 458.5 410.5 C 461.679 416.86985 465.346 422.87015 469.5 428.5 C 471.823 427.942 474.157 427.275 476.5 426.5 C 476.6925 426.057 476.9207 425.66291 477.18359 425.31641 C 477.44648 424.96991 477.74481 424.67187 478.07812 424.42188 C 478.41144 424.17188 478.77983 423.96991 479.18359 423.81641 C 479.58736 423.66291 480.02575 423.557 480.5 423.5 C 480.95625 423.78775 481.42422 424.0462 481.90234 424.27344 C 482.38047 424.50067 482.86914 424.69659 483.36914 424.86328 C 483.86914 425.02997 484.38047 425.16733 484.90234 425.27344 C 485.42422 425.37955 485.95625 425.4545 486.5 425.5 C 486.414 424.504 486.748 423.671 487.5 423 C 490.868 422.457 494.201 422.624 497.5 423.5 C 501.406 420.418 505.739 419.751 510.5 421.5 C 510.811 422.478 511.478 423.145 512.5 423.5 C 516.877 419.872 521.544 419.538 526.5 422.5 C 529.817 421.779 533.151 421.612 536.5 422 C 537.381 422.708 538.047 423.542 538.5 424.5 C 541.141 423.737 543.808 423.57 546.5 424 C 548.974 426.724 551.974 428.224 555.5 428.5 C 558.918 422.66315 562.584 416.99585 566.5 411.5 C 567.492 418.98193 567.825 426.64807 567.5 434.5 C 566.58 441.08383 562.91383 445.084 556.5 446.5 C 556.822 448.722 556.155 450.556 554.5 452 C 549.534 453.147 544.53383 453.98 539.5 454.5 C 538.317 455.504 536.984 456.338 535.5 457 C 530.32217 457.076 525.488 458.243 521 460.5 C 517.592 460.379 514.758 459.046 512.5 456.5 C 511.893 456.624 511.56 456.957 511.5 457.5 C 509.362 458.975 507.029 459.975 504.5 460.5 C 499.44617 458.213 494.11283 457.046 488.5 457 C 487.627 455.955 486.627 455.122 485.5 454.5 C 480.39917 454.284 475.399 453.45 470.5 452 C 469.139 450.416 468.472 448.582 468.5 446.5 C 466.901 446.768 465.568 446.434 464.5 445.5 C 460.73 443.334 458.397 440 457.5 435.5 C 457.174 426.98308 457.507 418.64992 458.5 410.5 z" style="opacity:1;fill:#f3e4a2;fill-opacity:1"/></g><g id="g16" style="display:inline;fill:#2b2836;fill-opacity:1;opacity:.75"><path id="path16" d="m 531.5,355.5 c -1.333,1 -2.667,2 -4,3 -2.742,-1.586 -5.742,-2.753 -9,-3.5 -2.027,-1.396 -2.36,-3.062 -1,-5 3.682,-0.222 7.348,0.111 11,1 0.415,2.026 1.415,3.526 3,4.5 z m -34,4 c -2.08,-1.887 -4.414,-3.554 -7,-5 2.745,0.127 4.745,-1.04 6,-3.5 3.622,-1.106 7.289,-1.439 11,-1 1.333,1.333 1.333,2.667 0,4 -2.706,1.908 -5.706,2.741 -9,2.5 0.237,1.291 -0.096,2.291 -1,3 z m 73,-21 c 7.4,0.97 13.9,3.97 19.5,9 1.164,3.067 0.164,4.733 -3,5 -3.232,-1.55 -6.232,-3.55 -9,-6 -0.399,0.228 -0.565,0.562 -0.5,1 -2.08,-3.142 -4.414,-6.142 -7,-9 z m -117,0 c -1.765,3.209 -3.765,6.209 -6,9 0.065,-0.438 -0.101,-0.772 -0.5,-1 -2.768,2.45 -5.768,4.45 -9,6 -3.392,-0.334 -4.226,-2 -2.5,-5 4.928,-5.131 10.928,-8.131 18,-9 z m 102,-26 c 5.333,0 10.667,0 16,0 0.239,1.967 -0.094,3.801 -1,5.5 -6.764,0.353 -13.43,1.353 -20,3 -6.157,2.579 -12.157,5.413 -18,8.5 -1.766,0.066 -2.766,-0.768 -3,-2.5 0.59,-2.257 1.923,-3.924 4,-5 7.276,-3.476 14.61,-6.642 22,-9.5 z m -102,0 c 15.443,-0.573 29.276,3.76 41.5,13 0.667,1 0.667,2 0,3 -1.726,1.076 -3.559,1.243 -5.5,0.5 -10.624,-6.874 -22.291,-10.541 -35,-11 -2.135,-1.556 -2.468,-3.389 -1,-5.5 z" style="opacity:.5;fill:#2b2836;fill-opacity:1"/></g><g id="g27" style="display:inline;fill:#f3e4a2;fill-opacity:1;stroke:#2b2836;stroke-width:.2;stroke-dasharray:none;stroke-opacity:1"><g id="g172"><path style="clip-rule:evenodd;display:inline;opacity:1;fill:#f3e4a2;fill-opacity:1;fill-rule:evenodd;stroke:#2b2836;stroke-width:.2;stroke-dasharray:none;stroke-opacity:1;image-rendering:optimizeQuality;shape-rendering:geometricPrecision;text-rendering:geometricPrecision" id="path138" d="m 468.82617,441.9043 c -0.36851,-0.0504 -0.75268,0.15871 -1.1289,0.37109 C 467.65786,443.8874 468.5,446.5 468.5,446.5 c -0.028,2.082 0.639,3.916 2,5.5 4.899,1.45 9.89902,2.284 15,2.5 0,0 1.27082,-4.45695 1.03906,-8.02734 -0.71566,0.1553 -1.4319,0.28791 -2.15625,0.25 -1.49607,-0.0783 -2.86942,-0.96717 -4.36328,-1.08008 -1.08248,-0.0818 -2.17299,0.47521 -3.24414,0.29883 -1.55074,-0.25536 -2.90943,-1.19828 -4.30859,-1.91407 -1.25088,-0.63993 -2.24853,-1.93256 -3.64063,-2.12304 z"/><path style="clip-rule:evenodd;display:inline;fill:#f3e4a2;fill-opacity:1;fill-rule:evenodd;stroke:#2b2836;stroke-width:.2;stroke-dasharray:none;stroke-opacity:1;image-rendering:optimizeQuality;shape-rendering:geometricPrecision;text-rendering:geometricPrecision" id="path140" d="m 489.77734,445.97461 c -1.08987,-0.0343 -2.16241,0.26458 -3.23828,0.49805 C 486.77088,450.04306 485.5,454.5 485.5,454.5 c 1.127,0.622 2.127,1.455 3,2.5 2.81687,0.0231 6.10139,0.37918 8.77734,0.9668 0,0 0.0263,-1.3685 0.0254,-2.05274 -10e-4,-1.09352 -0.0768,-2.18616 -0.0488,-3.27929 0.0285,-1.1124 0.2207,-3.33204 0.2207,-3.33204 0.0454,-0.68544 0.0228,-1.14346 0.0156,-1.63281 -0.90444,-0.23058 -1.80584,-0.47842 -2.71679,-0.67969 -1.65953,-0.36664 -3.29739,-0.96212 -4.9961,-1.01562 z"/><path id="path159" d="M 497.55664 447.68555 L 497.54688 448.65234 L 497.32617 452.40039 L 497.34961 454.29883 L 497.30273 456.85742 L 497.375 457.94922 C 499.68765 458.52063 502.29379 459.50165 504.5 460.5 C 507.029 459.975 509.362 458.975 511.5 457.5 C 511.5584 456.97138 511.88024 456.64517 512.45703 456.51367 L 512.45898 456.45703 L 512.4707 455.72461 L 512.31836 454.59766 L 512.30273 453.07617 L 512.21289 451.05078 L 511.77148 449.07031 C 510.79063 449.15251 509.81106 449.21373 508.82812 449.18945 C 505.7349 449.11305 502.6512 448.67689 499.60352 448.14258 C 498.91445 448.02177 498.23501 447.85773 497.55664 447.68555 z" style="clip-rule:evenodd;display:inline;fill:#f3e4a2;fill-opacity:1;fill-rule:evenodd;stroke:#2b2836;stroke-width:.2;stroke-dasharray:none;stroke-opacity:1;image-rendering:optimizeQuality;shape-rendering:geometricPrecision;text-rendering:geometricPrecision"/><path id="path217" d="m 511.77148,449.07031 0.44141,1.98047 0.0898,2.02539 0.0156,1.52149 0.15234,1.12695 -0.0117,0.73242 -0.002,0.0547 c 0.0149,-0.003 0.0278,-0.009 0.043,-0.0117 2.258,2.546 5.092,3.879 8.5,4 2.19851,-1.10562 4.48138,-1.94887 6.8457,-2.53125 0,0 -0.13431,-0.0503 -0.16601,-0.0625 l -0.13672,-1.34961 c -0.0207,-0.15035 -0.0103,-0.3492 0.006,-0.55273 0.0491,-0.25645 0.099,-0.50694 0.0645,-0.94141 -0.0351,-0.43869 -0.0506,-0.68003 -0.0645,-0.91992 v -0.002 c -0.014,-0.24035 -0.0262,-0.47985 -0.0547,-0.91992 -0.0205,-0.31628 -0.0619,-0.63092 -0.10156,-0.94531 -0.0397,-0.31439 -0.0776,-0.62854 -0.0879,-0.94531 -0.005,-0.15921 -0.003,-0.35938 0.002,-0.56836 v -0.002 c 2e-4,-0.008 -2.1e-4,-0.0154 0,-0.0234 0.0169,-0.62357 0.0664,-1.32422 0.0664,-1.32422 l 0.0762,-1.20313 c 0,0 -2.56826,-0.0694 -3.85239,-0.10415 -0.90728,-0.0245 -1.81672,-0.14089 -2.72183,-0.0736 -1.46513,0.10896 -2.88669,0.55309 -4.33984,0.76953 -0.67651,0.10076 -1.35455,0.20207 -2.03711,0.24609 -0.90701,0.0585 -1.56198,-0.37001 -2.72657,0.0234 z m 22.74219,7.95703 c -0.31428,0.0132 -0.62777,0.0314 -0.93945,0.0527 0.31824,-0.0218 0.63806,-0.0395 0.95898,-0.0527 -0.006,2.7e-4 -0.0131,-2.7e-4 -0.0195,0 z m -5.67187,0.71289 c -0.11361,0.0242 -0.22661,0.0507 -0.33985,0.0762 0.11334,-0.0254 0.22614,-0.0519 0.33985,-0.0762 z m -24.83399,2.54297 c -0.003,0.006 -0.007,0.0131 -0.01,0.0195 0.16566,0.0723 0.33689,0.12257 0.50195,0.19727 -0.16077,-0.0727 -0.32744,-0.14438 -0.49219,-0.2168 z" style="clip-rule:evenodd;display:inline;opacity:1;fill:#f3e4a2;fill-opacity:1;fill-rule:evenodd;stroke:#2b2836;stroke-width:.2;stroke-dasharray:none;stroke-opacity:1;image-rendering:optimizeQuality;shape-rendering:geometricPrecision;text-rendering:geometricPrecision"/><path id="path141" d="m 539.47266,445.98633 c -0.52048,0.51267 -1.05522,0.99179 -1.73633,1.18359 -1.49611,0.42131 -3.10077,-0.59288 -4.64453,-0.41211 -1.09536,0.12827 -2.06212,0.8075 -3.13868,1.04688 -0.82562,0.18359 -1.66271,0.30564 -2.5039,0.40429 l -0.0762,1.20313 c 0,0 -0.0495,0.70065 -0.0664,1.32422 -2.1e-4,0.008 2e-4,0.0156 0,0.0234 -2e-5,6.4e-4 2e-5,0.001 0,0.002 -0.005,0.20898 -0.007,0.40915 -0.002,0.56836 0.0103,0.31677 0.0482,0.63092 0.0879,0.94531 0.0397,0.31439 0.0811,0.62903 0.10156,0.94531 0.0285,0.44007 0.0407,0.67953 0.0547,0.91992 3e-5,5.1e-4 -3e-5,0.001 0,0.002 0.0139,0.23989 0.0294,0.48123 0.0645,0.91992 0.0345,0.43447 -0.0154,0.68496 -0.0645,0.94141 -0.016,0.20353 -0.0267,0.40238 -0.006,0.55273 l 0.13672,1.34961 c 0.0317,0.0122 0.16601,0.0625 0.16601,0.0625 2.46218,-0.60648 5.01285,-0.92998 7.6543,-0.96875 1.484,-0.662 2.817,-1.496 4,-2.5 0,0 -0.18156,-0.42598 -0.28711,-2.91211 0.004,-0.27566 0.33484,-1.52997 0.33984,-1.82031 0.0145,-0.85076 0.11022,-1.78655 0.10938,-2.67969 0,-0.27303 -0.11835,-0.60996 -0.11523,-0.90234 -0.0508,-0.0484 -0.08,-0.11062 -0.0742,-0.19922 z" style="clip-rule:evenodd;display:inline;fill:#f3e4a2;fill-opacity:1;fill-rule:evenodd;stroke:#2b2836;stroke-width:.2;stroke-dasharray:none;stroke-opacity:1;image-rendering:optimizeQuality;shape-rendering:geometricPrecision;text-rendering:geometricPrecision"/><path style="clip-rule:evenodd;display:inline;fill:#f3e4a2;fill-opacity:1;fill-rule:evenodd;stroke:#2b2836;stroke-width:.2;stroke-dasharray:none;stroke-opacity:1;image-rendering:optimizeQuality;shape-rendering:geometricPrecision;text-rendering:geometricPrecision" id="path149" d="m 556.54883,443.77734 c -1.45878,0.7043 -3.55934,0.44599 -5.33789,0.67774 -1.05755,0.1378 -2.10514,0.39654 -3.17128,0.42383 -1.01321,0.0259 -2.02088,-0.33725 -3.03049,-0.24805 -0.87795,0.0776 -1.69583,0.4852 -2.55665,0.67443 -0.91993,0.20223 -2.1751,-0.22821 -2.7826,0.49159 -0.27756,0.32887 -0.008,0.88269 -0.008,1.29101 8.4e-4,0.89314 -0.0949,1.82893 -0.10938,2.67969 -0.005,0.29034 -0.3366,1.54405 -0.3406,1.81971 0.10555,2.48613 0.2876,2.91271 0.2876,2.91271 5.03397,-0.52 10.034,-1.353 15,-2.5 1.655,-1.444 2.322,-3.278 2,-5.5 0.12329,-0.93766 0.1371,-1.84493 0.0488,-2.72266 z"/><path style="clip-rule:evenodd;display:inline;fill:#f3e4a2;fill-opacity:1;fill-rule:evenodd;stroke:#2b2836;stroke-width:.2;stroke-dasharray:none;stroke-opacity:1;image-rendering:optimizeQuality;shape-rendering:geometricPrecision;text-rendering:geometricPrecision" id="path30" d="m 543.48242,423.76758 c -1.67069,0.011 -3.3318,0.25555 -4.98242,0.73242 0,0 -0.69017,7.69097 0.12305,11.60742 0.12744,0.61373 0.57725,1.2145 0.72265,1.82422 0.18634,0.78131 0.1951,1.67832 0.17774,2.56836 0.80198,0.006 1.58098,6.8e-4 2.29297,-0.12109 1.37858,-0.2358 5.35845,-0.30499 6.34961,-0.9961 3.86568,-2.69547 5.90718,-3.55691 6.98437,-3.74219 0.41001,-2.34216 0.52767,-4.72232 0.34961,-7.14062 -3.526,-0.276 -6.526,-1.776 -9,-4.5 -1.0095,-0.16125 -2.01516,-0.23903 -3.01758,-0.23242 z"/><path style="clip-rule:evenodd;display:inline;fill:#f3e4a2;fill-opacity:1;fill-rule:evenodd;stroke:#2b2836;stroke-width:.2;stroke-dasharray:none;stroke-opacity:1;image-rendering:optimizeQuality;shape-rendering:geometricPrecision;text-rendering:geometricPrecision" id="path28" d="m 532.73828,421.79688 c -2.08591,0.0176 -4.16516,0.2525 -6.23828,0.70312 1.23343,4.0349 1.01133,10.80917 1.02148,15.81055 10e-4,0.48542 0.11407,0.70027 0.10157,1.06445 0.0292,0.44775 0.0568,0.89106 0.0742,1.31445 0.62422,-0.11767 0.77305,-0.14796 1.75195,-0.33007 1.93811,-0.36057 4.38193,0.62307 6.0918,0.31835 1.29963,-0.23163 2.59585,-0.1908 3.82812,-0.17773 -0.007,-0.80327 0.0754,-1.61573 -0.0937,-2.39844 -0.15487,-0.71669 -0.69246,-1.31729 -0.83203,-2.03711 C 537.70931,432.28011 538.5,424.5 538.5,424.5 c -0.453,-0.958 -1.119,-1.792 -2,-2.5 -1.25587,-0.1455 -2.51017,-0.21367 -3.76172,-0.20312 z"/><path style="display:inline;opacity:1;fill:#f3e4a2;fill-opacity:1;stroke:#2b2836;stroke-width:.2;stroke-dasharray:none;stroke-opacity:1" id="path139" d="m 520.16211,420.50391 c -2.6454,-0.0441 -5.94016,0.8042 -7.51172,2.99414 -0.0583,0.0812 -0.10997,0.16598 -0.16016,0.25 l -0.004,0.0703 -0.25781,6.14258 c -1.1e-4,0.007 10e-5,0.0183 0,0.0254 -0.005,0.37109 0.0313,0.74248 0.0156,1.11328 -0.0161,0.37773 -0.0626,0.75337 -0.10937,1.12891 l -0.125,2.96093 c -7.3e-4,0.0267 -0.003,0.0534 -0.004,0.0801 -0.009,0.30036 -0.0212,0.60013 -0.0371,0.90039 l -0.21484,5.15235 c 0.44678,-0.024 0.89252,-0.025 1.33203,0.0547 0.52104,0.0944 0.94168,0.4983 1.45117,0.64258 0.80959,0.22926 1.66142,0.30115 2.50195,0.33985 0.63591,0.0293 1.2755,-0.0119 1.90821,-0.082 1.58043,-0.17502 3.12683,-0.58044 4.69531,-0.84179 1.21161,-0.20189 2.05511,-0.17912 3.64258,-0.56055 0.65232,-0.15673 -4.68978,0.77728 0.27539,-0.16016 -0.0733,-2.09805 -0.37305,-4.52734 -0.37305,-4.52734 0.274,-4.763 0.2535,-9.1175 -0.6875,-13.6875 -2.16825,-1.29587 -4.28036,-1.9618 -6.33789,-1.99609 z"/><path style="clip-rule:evenodd;display:inline;opacity:1;fill:#f3e4a2;fill-opacity:1;fill-rule:evenodd;stroke:#2b2836;stroke-width:.2;stroke-dasharray:none;stroke-opacity:1;image-rendering:optimizeQuality;shape-rendering:geometricPrecision;text-rendering:geometricPrecision" id="path27" d="m 505.32422,420.55078 c -2.77509,0.0393 -5.38297,1.02297 -7.82422,2.94922 v 13 2.64844 l 0.0527,1.78906 c 0.93435,0.0607 1.92735,0.14358 2.75391,0.13867 1.19121,-0.007 2.30141,0.44039 3.46289,0.58789 1.09185,0.13866 2.19102,0.3162 3.29102,0.2793 0.77149,-0.0259 1.52135,-0.26901 2.28906,-0.34961 0.79651,-0.0836 1.6032,-0.22841 2.4043,-0.27148 l 0.125,-4.80079 0.24804,-4.89843 0.14844,-3.64649 L 512.5,423.5 c -1.022,-0.355 -1.689,-1.022 -2,-2 -1.78537,-0.65587 -3.51073,-0.97279 -5.17578,-0.94922 z"/><path style="clip-rule:evenodd;display:inline;fill:#f3e4a2;fill-opacity:1;fill-rule:evenodd;stroke:#2b2836;stroke-width:.2;stroke-dasharray:none;stroke-opacity:1;image-rendering:optimizeQuality;shape-rendering:geometricPrecision;text-rendering:geometricPrecision" id="path136" d="m 491.27344,422.68945 c -1.25321,0.004 -2.51044,0.10693 -3.77344,0.31055 -0.752,0.671 -0.79051,1.62726 -1,2.5 -0.85937,3.58009 -1.14502,8.22909 -1.24219,11 -0.0122,0.34862 -0.0392,0.6735 -0.0762,0.97852 0.062,0.93818 0.615,2.2113 0.53516,3.23242 1.02924,0.11659 2.05753,0.22795 3.09179,0.26758 2.52676,0.0968 4.97289,-0.10852 7.58594,-0.10352 0.33702,6.6e-4 0.75986,0.0366 1.1582,0.0625 L 497.5,439.14844 V 423.5 c -2.06187,-0.5475 -4.13788,-0.8172 -6.22656,-0.81055 z"/><path style="clip-rule:evenodd;display:inline;opacity:1;fill:#f3e4a2;fill-opacity:1;fill-rule:evenodd;stroke:#2b2836;stroke-width:.2;stroke-dasharray:none;stroke-opacity:1;image-rendering:optimizeQuality;shape-rendering:geometricPrecision;text-rendering:geometricPrecision" id="path32" d="m 480.5,423.5 c -1.897,0.228 -3.23,1.228 -4,3 -2.343,0.775 -4.677,1.442 -7,2 0.1614,1.98338 -0.70307,4.22227 -1.26562,6.36719 0.42466,0.38871 0.84554,0.78539 1.24414,1.04883 1.97597,1.30596 3.34482,3.61338 5.57812,4.40234 2.30865,0.81558 4.89841,-0.0437 7.34375,0.0801 1.08798,0.0551 2.17258,0.18372 3.25586,0.30664 -0.0215,-1.04156 -0.78422,-2.34388 -0.82617,-3.28516 0.21485,-4.29674 0.69794,-8.79673 1.66992,-11.91992 -2.175,-0.182 -4.175,-0.849 -6,-2 z"/></g></g></svg>